<?xml version="1.0" standalone="no"?>
<!DOCTYPE svg PUBLIC "-//W3C//DTD SVG 1.1//EN" "http://www.w3.org/Graphics/SVG/1.1/DTD/svg11.dtd" >
<svg>
<metadata>
Created by FontForge 20110222 at Wed Jan 22 04:55:06 2014
 By Orthosie Webhosting
Copyright (c) 2006 by type-together. All rights reserved.
</metadata>
<defs>
<font id="RonniaBold" horiz-adv-x="400" >
  <font-face 
    font-family="RonniaBold"
    font-weight="700"
    font-stretch="normal"
    units-per-em="1000"
    panose-1="2 0 8 3 0 0 0 2 0 4"
    ascent="800"
    descent="-200"
    x-height="536"
    cap-height="719"
    bbox="-171 -264 1146 994"
    underline-thickness="50"
    underline-position="-50"
    unicode-range="U+000D-FB04"
  />
<missing-glyph horiz-adv-x="545" 
d="M115 632v-726h347v726h-347zM39 -172v882h500v-882h-500z" />
    <glyph glyph-name="ff" unicode="ff" horiz-adv-x="656" 
d="M653 429h-126v-429h-151v429h-148v-429h-151v429h-75v107h75q0 39 12 78q36 118 182 118q54 0 99 -15l-14 -105q-27 9 -62 9q-66 0 -66 -74v-11h148q0 39 12 78q36 118 182 118q77 0 126 -20l-10 -107q-48 16 -93 16q-66 0 -66 -74v-11h126v-107z" />
    <glyph glyph-name="fi" unicode="fi" horiz-adv-x="582" 
d="M370 429h-142v-429h-151v429h-75v107h75q0 23 7 56q31 134 212 134q93 0 148 -21q-1 -16 -3 -33.5t-5 -39.5t-4 -34q-47 18 -113 18q-55 0 -70 -14q-13 -12 -17 -25t-4 -41h294v-536h-152v429z" />
    <glyph glyph-name="fl" unicode="fl" horiz-adv-x="668" 
d="M658 17q-57 -27 -126 -27q-72 0 -106.5 31t-41.5 90q-4 34 -4 55v443q-28 7 -63 7q-46 0 -68 -15q-21 -15 -21 -65h94v-107h-94v-429h-151v429h-75v107h75q0 15 4 43q12 70 70.5 109t164.5 39q114 0 217 -35v-519q0 -58 44 -58q26 0 63 17z" />
    <glyph glyph-name="ffi" unicode="ffi" horiz-adv-x="881" 
d="M669 429h-142v-429h-151v429h-148v-429h-151v429h-75v107h75q0 39 12 78q36 118 182 118q54 0 99 -15l-14 -105q-27 9 -62 9q-66 0 -66 -74v-11h148q0 23 7 56q31 134 212 134q93 0 148 -21q-1 -16 -3 -33.5t-5 -39.5t-4 -34q-47 18 -113 18q-55 0 -70 -14
q-13 -12 -17 -25t-4 -41h294v-536h-152v429z" />
    <glyph glyph-name="ffl" unicode="ffl" horiz-adv-x="966" 
d="M956 17q-57 -27 -126 -27q-72 0 -106.5 31t-41.5 90q-4 34 -4 55v443q-28 7 -63 7q-46 0 -68 -15q-21 -15 -21 -65h94v-107h-94v-429h-151v429h-147v-429h-151v429h-75v107h75q0 39 12 78q36 118 182 118q54 0 99 -15l-14 -105q-27 9 -62 9q-66 0 -66 -74v-11h147
q0 15 4 43q12 70 70.5 109t164.5 39q114 0 217 -35v-519q0 -58 44 -58q26 0 63 17z" />
    <glyph glyph-name=".notdef" horiz-adv-x="545" 
d="M115 632v-726h347v726h-347zM39 -172v882h500v-882h-500z" />
    <glyph glyph-name=".null" horiz-adv-x="0" 
 />
    <glyph glyph-name=".null" horiz-adv-x="0" 
 />
    <glyph glyph-name="nonmarkingreturn" horiz-adv-x="333" 
 />
    <glyph glyph-name="CR" unicode="&#xd;" horiz-adv-x="435" 
 />
    <glyph glyph-name="space" unicode=" " horiz-adv-x="165" 
 />
    <glyph glyph-name="exclam" unicode="!" horiz-adv-x="264" 
d="M71 213l-19 506h162l-17 -506h-126zM57 69q0 34 20.5 57t55.5 23t55.5 -22t20.5 -57q0 -34 -20 -56.5t-55 -22.5t-56 21.5t-21 56.5z" />
    <glyph glyph-name="quotedbl" unicode="&#x22;" horiz-adv-x="378" 
d="M217 706h126l-14 -258h-97zM36 706h126l-14 -258h-96z" />
    <glyph glyph-name="numbersign" unicode="#" horiz-adv-x="700" 
d="M95 390l32 105h108l51 167h113l-50 -167h98l51 167h113l-50 -167h113l-34 -105h-113l-32 -108h116l-36 -102h-115l-52 -180h-116l54 180h-97l-53 -180h-115l54 180h-109l37 102h106l33 108h-107zM315 390l-32 -108h99l33 108h-100z" />
    <glyph glyph-name="dollar" unicode="$" horiz-adv-x="527" 
d="M30 60l58 119q82 -63 155 -63q84 0 84 72q0 42 -29.5 64t-96.5 46q-79 28 -120 71.5t-41 122.5q0 75 44 128t115 69v94h138v-92q72 -16 108.5 -61.5t46.5 -103.5l-129 -38q-22 88 -92 88q-34 0 -54 -17.5t-20 -50.5q0 -36 22 -55.5t76 -39.5q35 -13 53.5 -21t48.5 -26
t45 -37.5t27.5 -52t12.5 -72.5q0 -74 -36.5 -127.5t-104.5 -74.5v-103h-137v95q-45 4 -99.5 24.5t-74.5 41.5z" />
    <glyph glyph-name="percent" unicode="%" horiz-adv-x="940" 
d="M734 410q78 0 122 -51.5t44 -157.5q0 -104 -45.5 -159t-123.5 -55q-80 0 -125 55.5t-45 157.5q0 104 49 157t124 53zM731 81q48 0 48 117q0 120 -46 120q-50 0 -50 -121q0 -116 48 -116zM213 719q78 0 122.5 -51.5t44.5 -157.5q0 -104 -46 -159.5t-123 -55.5
q-80 0 -125.5 56t-45.5 157q0 105 49 158t124 53zM210 390q49 0 49 117q0 120 -47 120q-50 0 -50 -122q0 -115 48 -115zM390 0h-134l291 719h135z" />
    <glyph glyph-name="ampersand" unicode="&#x26;" horiz-adv-x="709" 
d="M287 116q59 0 110 52q-55 56 -135 153q-71 -32 -71 -116q0 -36 25.5 -62.5t70.5 -26.5zM486 443l-109 63q14 35 14 51q0 24 -16.5 36.5t-40.5 12.5q-27 0 -42 -15t-15 -38q0 -32 43 -84q182 -213 379 -410l-96 -93q-59 49 -111 106q-94 -83 -215 -83q-123 0 -182.5 59.5
t-59.5 150.5q0 146 152 217q-57 71 -57 138q0 74 51 119.5t152 45.5q92 0 144.5 -40t52.5 -111q0 -66 -44 -125z" />
    <glyph glyph-name="quotesingle" unicode="'" horiz-adv-x="197" 
d="M36 706h126l-14 -258h-96z" />
    <glyph glyph-name="parenleft" unicode="(" horiz-adv-x="334" 
d="M314 -71l-128 -60q-132 226 -132 467q0 214 125 453l131 -52q-55 -122 -81.5 -211.5t-26.5 -192.5q0 -75 17 -148.5t36 -122t59 -133.5z" />
    <glyph glyph-name="parenright" unicode=")" horiz-adv-x="334" 
d="M20 729l128 60q132 -226 132 -467q0 -214 -125 -453l-131 52q55 122 81.5 211.5t26.5 192.5q0 75 -17 148.5t-36 122t-59 133.5z" />
    <glyph glyph-name="asterisk" unicode="*" horiz-adv-x="442" 
d="M180 422l30 87l-53 31l-60 -66q-25 -27 -25 -49q0 -21 15.5 -35t39.5 -14q40 0 53 46zM66 564l92 -7l16 59l-79 40q-22 11 -39 11q-22 0 -35.5 -14t-13.5 -40q0 -47 59 -49zM260 421l-30 87l53 31l60 -66q25 -27 25 -49q0 -21 -15.5 -35t-39.5 -14q-40 0 -53 46zM374 564
l-92 -7l-16 59l79 40q22 11 39 11q22 0 35.5 -14t13.5 -40q0 -47 -59 -49zM270 721l-17 -91h-61l-19 88q-3 14 -3 24q0 50 53 50q25 0 37.5 -13.5t12.5 -35.5q0 -10 -3 -22z" />
    <glyph glyph-name="plus" unicode="+" horiz-adv-x="540" 
d="M206 373v169h127v-169h173v-124h-173v-171h-127v171h-173v124h173z" />
    <glyph glyph-name="comma" unicode="," horiz-adv-x="269" 
d="M40 -164l28 265q4 32 22.5 48.5t45.5 16.5q35 0 56.5 -17.5t21.5 -45.5q0 -18 -5 -31l-93 -253z" />
    <glyph glyph-name="hyphen" unicode="-" horiz-adv-x="391" 
d="M45 246v116h301v-116h-301z" />
    <glyph glyph-name="period" unicode="." horiz-adv-x="284" 
d="M60 74q0 36 22 61t60 25t60 -23.5t22 -61.5q0 -36 -23 -60.5t-61 -24.5q-37 0 -58.5 23t-21.5 61z" />
    <glyph glyph-name="slash" unicode="/" horiz-adv-x="458" 
d="M0 -61l319 843l130 -43l-322 -846z" />
    <glyph glyph-name="zero" unicode="0" horiz-adv-x="552" 
d="M280 698q243 0 243 -350q0 -190 -63 -274t-187 -84q-125 0 -184.5 85t-59.5 271q0 182 67 267t184 85zM275 106q51 0 74 53.5t23 186.5q0 129 -22 180.5t-73 51.5q-52 0 -74 -53.5t-22 -189.5q0 -123 22 -176t72 -53z" />
    <glyph glyph-name="one" unicode="1" horiz-adv-x="461" 
d="M53 0v109h113v466h-103v110h256v-576h112v-109h-378z" />
    <glyph glyph-name="two" unicode="2" horiz-adv-x="539" 
d="M133 485l-121 63q41 75 101.5 112.5t150.5 37.5q97 0 158 -50.5t61 -142.5q0 -97 -76 -198q-73 -97 -176 -196h263v-111h-469v86q87 83 134 133.5t102 124.5q62 82 62 153q0 33 -21 53t-57 20q-73 0 -112 -85z" />
    <glyph glyph-name="three" unicode="3" horiz-adv-x="522" 
d="M124 504l-107 70q73 124 232 124q98 0 159 -47t61 -128q0 -104 -102 -158q52 -17 81.5 -58t29.5 -101q0 -96 -66.5 -156t-186.5 -60t-215 64l58 119q36 -29 76.5 -44.5t70.5 -15.5q50 0 77.5 26.5t27.5 72.5q0 72 -74 89q-28 6 -95 6v102q67 0 87 3q33 6 53.5 32t20.5 56
q0 39 -23 56.5t-55 17.5q-63 0 -110 -70z" />
    <glyph glyph-name="four" unicode="4" horiz-adv-x="571" 
d="M461 0h-152v161h-281v82l276 442h158v-417h85v-110h-86v-158zM159 268h150v154q0 56 3 95h-4z" />
    <glyph glyph-name="five" unicode="5" horiz-adv-x="555" 
d="M167 308l-115 37v340h416v-116h-292v-139q56 47 134 47q97 0 148.5 -60.5t51.5 -159.5q0 -117 -66.5 -192t-191.5 -75q-130 0 -224 68l57 118q84 -61 162 -61q52 0 81.5 34.5t29.5 92.5q0 53 -23 83.5t-67 30.5q-49 0 -101 -48z" />
    <glyph glyph-name="six" unicode="6" horiz-adv-x="577" 
d="M203 419q52 43 129 43q97 0 148.5 -61t51.5 -155q0 -115 -64 -185.5t-177 -70.5q-246 0 -246 319q0 195 76 292t206 97q71 0 115.5 -25.5t78.5 -71.5l-85 -79q-46 63 -110 63q-53 0 -84.5 -44.5t-38.5 -121.5zM382 241q0 113 -90 113q-55 0 -92 -35q-1 -19 -1 -53
q0 -166 89 -166q46 0 70 38.5t24 102.5z" />
    <glyph glyph-name="seven" unicode="7" horiz-adv-x="510" 
d="M20 559v118h478v-91l-211 -388q-21 -38 -21 -95v-103h-153v101q0 69 29 123l182 335h-304z" />
    <glyph glyph-name="eight" unicode="8" horiz-adv-x="557" 
d="M119 366q-31 22 -48 59.5t-17 76.5q0 90 64 143t164 53q107 0 164.5 -50t57.5 -141q0 -88 -63 -148q86 -38 86 -153q0 -97 -64.5 -156.5t-183.5 -59.5q-122 0 -183.5 58t-61.5 158q0 47 23 91.5t62 68.5zM285 305l-66 6q-33 -29 -33 -100q0 -52 25.5 -82t70.5 -30
q42 0 66.5 29.5t24.5 81.5q0 50 -21 70.5t-67 24.5zM277 591q-32 0 -52.5 -22t-20.5 -64q0 -89 68 -95l59 -5q26 33 26 101q0 39 -22.5 62t-57.5 23z" />
    <glyph glyph-name="nine" unicode="9" horiz-adv-x="568" 
d="M364 271q-50 -46 -128 -46q-97 0 -149 62.5t-52 157.5q0 113 66 183t178 70q119 0 180.5 -80.5t61.5 -233.5q0 -200 -70 -297t-198 -97q-127 0 -201 68l57 105q62 -57 141 -57q54 0 82.5 43.5t31.5 121.5zM367 368q2 20 2 57q0 165 -91 165q-45 0 -68.5 -39t-23.5 -103
q0 -118 89 -118q56 0 92 38z" />
    <glyph glyph-name="colon" unicode=":" horiz-adv-x="284" 
d="M60 74q0 36 22 61t60 25t60 -23.5t22 -61.5q0 -36 -23 -60.5t-61 -24.5q-37 0 -58.5 23t-21.5 61zM60 450q0 36 22 61t60 25t60 -23.5t22 -61.5q0 -36 -23 -60.5t-61 -24.5q-37 0 -58.5 23t-21.5 61z" />
    <glyph glyph-name="semicolon" unicode=";" horiz-adv-x="293" 
d="M40 -164l28 265q4 32 22.5 48.5t45.5 16.5q35 0 56.5 -17.5t21.5 -45.5q0 -18 -5 -31l-93 -253zM74 450q0 36 22 61t60 25t60 -23.5t22 -61.5q0 -36 -23 -60.5t-61 -24.5q-37 0 -58.5 23t-21.5 61z" />
    <glyph glyph-name="less" unicode="&#x3c;" horiz-adv-x="540" 
d="M507 434l-276 -119l275 -125l-52 -117l-422 194v91l423 191z" />
    <glyph glyph-name="equal" unicode="=" horiz-adv-x="540" 
d="M507 263v-124h-475v124h475zM507 476v-124h-475v124h475z" />
    <glyph glyph-name="greater" unicode="&#x3e;" horiz-adv-x="540" 
d="M308 315l-276 119l52 115l423 -191v-91l-422 -194l-52 117z" />
    <glyph glyph-name="question" unicode="?" horiz-adv-x="440" 
d="M73 212v188q108 11 149 52q29 29 29 75q0 38 -27 56.5t-71 18.5q-49 0 -95 -12l-18 115q58 15 130 15q115 0 175 -50t60 -146q0 -71 -45 -124.5t-136 -76.5v-111h-151zM73 69q0 34 20.5 57t55.5 23t55.5 -22t20.5 -57q0 -34 -20 -56.5t-55 -22.5q-34 0 -55.5 21.5
t-21.5 56.5z" />
    <glyph glyph-name="at" unicode="@" horiz-adv-x="775" 
d="M705 520v-492q-94 -34 -192 -34q-109 0 -164.5 44.5t-55.5 139.5q0 87 53.5 131.5t137.5 44.5q44 0 77 -13v97q-49 18 -106 18q-114 0 -183.5 -74.5t-69.5 -202.5q0 -125 71 -201.5t198 -76.5q89 0 157 29l33 -119q-85 -34 -205 -34q-102 0 -182.5 34t-128 91t-72 126
t-24.5 145q0 183 115 292.5t288 109.5q137 0 253 -55zM561 101v154q-21 6 -41 6q-82 0 -82 -81q0 -84 78 -84q22 0 45 5z" />
    <glyph glyph-name="A" unicode="A" horiz-adv-x="631" 
d="M159 0h-155l211 719h193l219 -719h-157l-54 170h-208zM311 588h-3q-10 -68 -27 -131l-45 -177h150l-46 176q-10 37 -29 132z" />
    <glyph glyph-name="B" unicode="B" horiz-adv-x="615" 
d="M74 0v719h247q112 0 173.5 -47t61.5 -134q0 -59 -28 -99.5t-69 -57.5q58 -13 92 -58t34 -105q0 -104 -69 -161t-200 -57h-242zM229 318v-207h86q53 0 79 30t26 78q0 46 -25.5 72.5t-75.5 26.5h-90zM229 606v-181h68q48 0 73 26.5t25 68.5q0 47 -25.5 66.5t-79.5 19.5h-61
z" />
    <glyph glyph-name="C" unicode="C" horiz-adv-x="601" 
d="M372 116q79 0 169 50l27 -127q-100 -53 -221 -53q-85 0 -147 32t-95 87t-47.5 116.5t-14.5 132.5q0 77 14 141.5t45.5 120t89.5 87t139 31.5q211 0 251 -198l-147 -36q-24 112 -104 112q-124 0 -124 -242q0 -127 39 -190.5t126 -63.5z" />
    <glyph glyph-name="D" unicode="D" horiz-adv-x="654" 
d="M74 0v719h240q139 0 218 -75.5t79 -253.5q0 -92 -17 -161.5t-45 -112.5t-70.5 -69.5t-88.5 -36.5t-104 -10h-212zM230 604v-490h63q79 0 116.5 59.5t37.5 200.5q0 125 -34 177.5t-107 52.5h-76z" />
    <glyph glyph-name="E" unicode="E" horiz-adv-x="563" 
d="M74 0v719h447v-120h-291v-172h253v-120h-253v-186h303v-121h-459z" />
    <glyph glyph-name="F" unicode="F" horiz-adv-x="555" 
d="M74 719h462v-121h-306v-172h256v-120h-256v-306h-156v719z" />
    <glyph glyph-name="G" unicode="G" horiz-adv-x="646" 
d="M331 259v114h263v-335q-107 -52 -233 -52q-164 0 -241 92.5t-77 293.5q0 165 72.5 263.5t221.5 98.5q112 0 169.5 -51.5t77.5 -146.5l-144 -35q-15 57 -39 84t-68 27q-127 0 -127 -237q0 -63 6.5 -108.5t23 -83.5t48.5 -57.5t79 -19.5q42 0 79 13v140h-111z" />
    <glyph glyph-name="H" unicode="H" horiz-adv-x="702" 
d="M472 719h156v-719h-156v304h-242v-304h-156v719h156v-290h242v290z" />
    <glyph glyph-name="I" unicode="I" horiz-adv-x="304" 
d="M74 719h156v-719h-156v719z" />
    <glyph glyph-name="J" unicode="J" horiz-adv-x="438" 
d="M11 23l39 123q55 -24 99 -24q40 0 52 22.5t12 71.5v503h157v-506q0 -64 -7 -92q-15 -67 -64.5 -100.5t-123.5 -33.5q-98 0 -164 36z" />
    <glyph glyph-name="K" unicode="K" horiz-adv-x="620" 
d="M600 719l-188 -339l213 -380h-172l-167 303h-59v-303h-153v719h153v-295h56l155 295h162z" />
    <glyph glyph-name="L" unicode="L" horiz-adv-x="545" 
d="M74 0v719h156v-598h293v-121h-449z" />
    <glyph glyph-name="M" unicode="M" horiz-adv-x="816" 
d="M564 719h162l40 -719h-144l-22 458h-3l-125 -391h-120l-126 392h-4l-24 -459h-148l45 719h169l98 -307q38 -118 51 -171h2q22 91 49 171z" />
    <glyph glyph-name="N" unicode="N" horiz-adv-x="694" 
d="M467 719h153v-719h-136l-185 328q-46 81 -78 154l-1 -1q7 -91 7 -164v-317h-153v719h145l179 -333q54 -99 76 -148h1l1 1q-9 94 -9 157v323z" />
    <glyph glyph-name="O" unicode="O" horiz-adv-x="681" 
d="M337 -14q-294 0 -294 384q0 174 82 269t223 95q290 0 290 -359q0 -389 -301 -389zM474 374q0 129 -34 181t-96 52q-137 0 -137 -238q0 -259 132 -259q31 0 53.5 11.5t42 39.5t29.5 81.5t10 131.5z" />
    <glyph glyph-name="P" unicode="P" horiz-adv-x="609" 
d="M230 251v-251h-156v719h258q118 0 184 -55t66 -160q0 -115 -71 -184t-191 -69h-90zM230 367h72q120 0 120 127q0 110 -109 110h-83v-237z" />
    <glyph glyph-name="Q" unicode="Q" horiz-adv-x="676" 
d="M636 25l-31 -139q-163 25 -320 83q-77 29 -127.5 72t-83 126t-32.5 203q0 174 81.5 269t220.5 95q294 0 294 -359q0 -139 -51.5 -219t-136.5 -101v-2q71 -19 186 -28zM473 374q0 129 -33.5 181.5t-95.5 52.5q-138 0 -138 -238q0 -266 133 -266q62 0 98 60t36 210z" />
    <glyph glyph-name="R" unicode="R" horiz-adv-x="624" 
d="M466 321l143 -321h-164l-122 287h-94v-287h-155v719h251q121 0 189 -48.5t68 -148.5q0 -139 -116 -201zM229 404h94q45 0 74 26.5t29 74.5q0 57 -26 78t-84 21h-87v-200z" />
    <glyph glyph-name="S" unicode="S" horiz-adv-x="542" 
d="M24 47l48 134q101 -64 184 -64q44 0 70.5 20t26.5 61q-1 45 -30 67t-98 41q-33 9 -55 16.5t-51 24.5t-46 37t-29.5 54t-12.5 77q0 97 67 158t175 61q192 0 244 -177l-142 -41q-27 93 -104 93q-37 0 -59.5 -19t-22.5 -56q0 -40 30.5 -61t95.5 -39q94 -27 145 -78t51 -139
q0 -108 -72 -169.5t-184 -61.5q-133 0 -231 61z" />
    <glyph glyph-name="T" unicode="T" horiz-adv-x="580" 
d="M10 599v120h560v-120h-202v-599h-156v599h-202z" />
    <glyph glyph-name="U" unicode="U" horiz-adv-x="664" 
d="M223 719v-445q0 -58 7 -83q20 -74 103 -74q84 0 102 73q6 25 6 90v439h157v-463q0 -84 -21 -137q-52 -130 -246 -130q-173 0 -233 110q-32 57 -32 158v462h157z" />
    <glyph glyph-name="V" unicode="V" horiz-adv-x="628" 
d="M317 148q22 108 43 180l110 391h153l-223 -719h-176l-219 719h161l109 -397q27 -100 40 -174h2z" />
    <glyph glyph-name="W" unicode="W" horiz-adv-x="836" 
d="M281 0h-148l-108 719h152l42 -309q13 -97 17 -185q1 -1 2 -1l121 430h122l116 -431l2 1q5 89 17 182l43 313h152l-109 -719h-148l-86 275q-35 112 -49 173h-2q-24 -99 -49 -176z" />
    <glyph glyph-name="X" unicode="X" horiz-adv-x="615" 
d="M615 719l-221 -360l210 -359h-172l-125 234l-126 -234h-181l221 365l-207 354h176l121 -231l129 231h175z" />
    <glyph glyph-name="Y" unicode="Y" horiz-adv-x="629" 
d="M320 407q16 57 39 105l100 207h170l-234 -439v-280h-156v279l-239 440h172l104 -209q18 -37 41 -103h3z" />
    <glyph glyph-name="Z" unicode="Z" horiz-adv-x="580" 
d="M38 603v116h516v-104l-339 -497h327v-118h-522v95l342 508h-324z" />
    <glyph glyph-name="bracketleft" unicode="[" horiz-adv-x="331" 
d="M64 -138v936h262v-95h-119v-746h119v-95h-262z" />
    <glyph glyph-name="backslash" unicode="\" horiz-adv-x="458" 
d="M130 789l319 -843l-127 -46l-322 846z" />
    <glyph glyph-name="bracketright" unicode="]" horiz-adv-x="331" 
d="M267 798v-936h-262v95h118v746h-118v95h262z" />
    <glyph glyph-name="asciicircum" unicode="^" horiz-adv-x="584" 
d="M374 282l-109 243l-109 -242l-126 19l186 389h100l186 -389z" />
    <glyph glyph-name="underscore" unicode="_" horiz-adv-x="500" 
d="M-7 -188v104h514v-104h-514z" />
    <glyph glyph-name="grave" unicode="`" horiz-adv-x="426" 
d="M338 664l-39 -79l-209 98l49 99z" />
    <glyph glyph-name="a" unicode="a" horiz-adv-x="538" 
d="M92 410l-21 107q81 28 173 28q88 0 140.5 -29.5t68.5 -105.5q10 -43 10 -103v-173q0 -40 28 -40q8 0 26 5l11 -92q-43 -18 -94 -18q-73 0 -92 60q-63 -59 -151 -59q-79 0 -120.5 47.5t-41.5 121.5q0 92 52.5 139.5t154.5 47.5q38 0 82 -10v15q0 82 -97 82q-56 0 -129 -23
zM318 141v103q-29 12 -56 12q-84 0 -84 -82q0 -74 60 -74q47 0 80 41z" />
    <glyph glyph-name="b" unicode="b" horiz-adv-x="550" 
d="M211 504q56 41 128 41q81 0 128.5 -58t47.5 -180q0 -148 -63 -233t-196 -85q-108 0 -196 47v683h151v-215zM360 283q0 77 -17.5 109.5t-53.5 32.5q-41 0 -78 -26v-279q24 -15 59 -15q50 0 70 44t20 134z" />
    <glyph glyph-name="c" unicode="c" horiz-adv-x="472" 
d="M304 112q62 0 130 35l11 -123q-74 -36 -164 -36q-70 0 -120 24.5t-76.5 66.5t-38 88t-11.5 100q0 44 7 83t24 75.5t43 62.5t67.5 41.5t94.5 15.5q84 0 130.5 -42t60.5 -113l-125 -40q-9 37 -24 56t-46 19q-76 0 -76 -149q0 -164 113 -164z" />
    <glyph glyph-name="d" unicode="d" horiz-adv-x="555" 
d="M343 517v202h152v-719h-135l-5 43q-48 -53 -126 -53q-88 0 -141 69.5t-53 205.5q0 75 21 136.5t69 102.5t117 41q59 0 101 -28zM344 135v273q-35 25 -66 25q-86 0 -86 -169q0 -157 84 -157q36 0 68 28z" />
    <glyph glyph-name="e" unicode="e" horiz-adv-x="494" 
d="M464 240h-276q3 -64 34 -96t80 -32q71 0 144 41l7 -127q-72 -37 -166 -37q-252 0 -252 285q0 137 62.5 204t161.5 67q205 0 205 -252v-53zM323 329q0 108 -65 108q-34 0 -51.5 -29.5t-17.5 -78.5h134z" />
    <glyph glyph-name="f" unicode="f" horiz-adv-x="357" 
d="M354 429h-126v-429h-151v429h-75v107h75q0 48 9 78q36 118 185 118q77 0 126 -20l-10 -107q-48 16 -93 16q-66 0 -66 -74v-11h126v-107z" />
    <glyph glyph-name="g" unicode="g" horiz-adv-x="555" 
d="M355 502l7 34h133v-532q0 -49 -11 -88.5t-35.5 -72.5t-69.5 -51.5t-107 -18.5q-113 0 -197 39l22 127q71 -42 156 -42q94 0 94 110v35q-39 -47 -119 -47q-89 0 -141 67.5t-52 202.5q0 116 51.5 198t149.5 82q70 0 119 -43zM343 140v265q-36 26 -67 26q-39 0 -61.5 -35.5
t-22.5 -131.5q0 -152 83 -152q36 0 68 28z" />
    <glyph glyph-name="h" unicode="h" horiz-adv-x="566" 
d="M356 545q128 0 146 -115q4 -25 4 -67v-363h-152v344q0 26 -1 34q-5 42 -53 42q-43 0 -87 -36v-384h-153v719h153v-222q63 48 143 48z" />
    <glyph glyph-name="i" unicode="i" horiz-adv-x="272" 
d="M60 536h152v-536h-152v536zM50 676q0 41 24 63t61 22q41 0 64 -22t23 -63t-24 -62.5t-63 -21.5q-38 0 -61.5 22.5t-23.5 61.5z" />
    <glyph glyph-name="j" unicode="j" horiz-adv-x="273" 
d="M213 536v-580q0 -86 -43.5 -134.5t-133.5 -48.5q-79 0 -136 27l22 124q51 -24 90 -24q25 0 36.5 14.5t11.5 52.5v569h153zM50 676q0 41 24 63t61 22q41 0 64 -22t23 -63t-24 -62.5t-63 -21.5q-38 0 -61.5 22.5t-23.5 61.5z" />
    <glyph glyph-name="k" unicode="k" horiz-adv-x="561" 
d="M374 537l158 -17l-142 -210l171 -310h-171l-128 233h-49v-233h-153v719h153v-358h47z" />
    <glyph glyph-name="l" unicode="l" horiz-adv-x="343" 
d="M56 151v568h152v-546q0 -59 44 -59q26 0 63 17l18 -115q-57 -27 -126 -27q-84 0 -117.5 41.5t-33.5 120.5z" />
    <glyph glyph-name="m" unicode="m" horiz-adv-x="851" 
d="M353 545q87 0 124 -57q74 57 161 57q131 0 149 -115q4 -25 4 -67v-363h-152v344q0 18 -2 34q-6 42 -51 42q-40 0 -82 -32v-388h-151v344q0 18 -2 34q-7 42 -50 42q-46 0 -88 -36v-384h-153v536h135l6 -46q68 55 152 55z" />
    <glyph glyph-name="n" unicode="n" horiz-adv-x="566" 
d="M195 536l6 -47q69 56 152 56q131 0 149 -115q4 -25 4 -67v-363h-152v344q0 26 -1 34q-4 42 -53 42q-43 0 -87 -36v-384h-153v536h135z" />
    <glyph glyph-name="o" unicode="o" horiz-adv-x="540" 
d="M265 -13q-63 0 -109.5 23.5t-72 64.5t-37 88t-11.5 102q0 124 61.5 202t179.5 78q229 0 229 -271q0 -58 -13 -107.5t-40.5 -90.5t-75 -65t-111.5 -24zM269 106q79 0 79 163q0 75 -15.5 116.5t-59.5 41.5q-82 0 -82 -162q0 -78 17.5 -118.5t60.5 -40.5z" />
    <glyph glyph-name="p" unicode="p" horiz-adv-x="551" 
d="M60 536h142l5 -41q67 50 142 50t121 -59t46 -179q0 -142 -47 -228.5t-146 -86.5q-66 0 -112 30v-231h-151v745zM212 394v-268q27 -20 67 -20q46 0 64.5 46t18.5 135q0 75 -17 104t-53 29q-39 0 -80 -26z" />
    <glyph glyph-name="q" unicode="q" horiz-adv-x="555" 
d="M237 545q71 0 119 -43l7 34h132v-745h-146v250q-46 -51 -120 -51q-88 0 -141 69.5t-53 205.5q0 117 52 198.5t150 81.5zM344 135v270q-36 26 -66 26q-40 0 -63 -36t-23 -131q0 -157 84 -157q36 0 68 28z" />
    <glyph glyph-name="r" unicode="r" horiz-adv-x="390" 
d="M317 545q39 0 71 -30l-33 -130q-26 20 -59 20q-44 0 -83 -35v-370h-153v536h134l8 -55q51 64 115 64z" />
    <glyph glyph-name="s" unicode="s" horiz-adv-x="461" 
d="M26 40l39 120q78 -56 156 -56q63 0 63 45q0 16 -7 27.5t-24.5 20t-30 12t-41.5 11.5q-69 18 -107.5 52t-38.5 106q0 77 55.5 122t142.5 45q90 0 138 -36t64 -87l-114 -44q-27 58 -86 58q-25 0 -39.5 -11.5t-14.5 -32.5q0 -17 14 -30t31 -20t48 -15q28 -8 47 -14.5t42 -20
t36.5 -29.5t23 -42t9.5 -59q0 -82 -59 -128t-152 -46q-57 0 -112.5 16.5t-82.5 35.5z" />
    <glyph glyph-name="t" unicode="t" horiz-adv-x="368" 
d="M337 429h-113v-248q0 -67 47 -67q27 0 64 17l18 -115q-56 -27 -130 -27q-152 0 -152 154v286h-69v107h69v90l153 71v-161h113v-107z" />
    <glyph glyph-name="u" unicode="u" horiz-adv-x="562" 
d="M209 -10q-132 0 -150 116q-4 25 -4 67v347l153 16v-344q0 -27 2 -35q8 -41 52 -41q39 0 88 35v385h152v-536h-134l-6 46q-70 -56 -153 -56z" />
    <glyph glyph-name="v" unicode="v" horiz-adv-x="516" 
d="M358 537l153 -16l-157 -521h-184l-165 521l159 14l69 -281q12 -49 27 -135h3q8 59 26 132z" />
    <glyph glyph-name="w" unicode="w" horiz-adv-x="707" 
d="M549 536l148 -16l-111 -520h-162l-39 172q-15 66 -29 141h-2q-14 -65 -34 -139l-46 -174h-155l-109 520l153 16l40 -240q6 -38 18 -124h3q8 52 26 122l52 221h113l43 -193q27 -116 31 -150h3q5 53 17 126z" />
    <glyph glyph-name="x" unicode="x" horiz-adv-x="516" 
d="M357 536l159 -16l-172 -252l172 -268h-164l-91 147l-90 -147h-171l173 265l-162 255l167 16l85 -153z" />
    <glyph glyph-name="y" unicode="y" horiz-adv-x="520" 
d="M366 536l149 -16q-75 -268 -168 -493q-25 -59 -46 -99t-51.5 -78.5t-69.5 -57.5t-87 -19q-94 0 -168 40l39 123q69 -36 113 -36q39 0 61 27t48 96l-186 498l162 15l70 -231q22 -72 36 -133h2q26 82 96 364z" />
    <glyph glyph-name="z" unicode="z" horiz-adv-x="465" 
d="M445 449l-245 -339h237v-110h-417v95l239 334h-227v107h413v-87z" />
    <glyph glyph-name="braceleft" unicode="{" horiz-adv-x="362" 
d="M184 337q71 -31 71 -122v-191q0 -32 11 -46.5t37 -14.5q21 0 38 6l16 -95q-43 -18 -98 -18q-107 0 -133 90q-10 38 -10 78v149q0 23 -3 48q-5 37 -20.5 54t-52.5 18v88q41 1 57 21t18 60q1 14 1 41v126q0 46 10 80q26 90 133 90q55 0 98 -18l-16 -95q-19 8 -38 8
q-48 0 -48 -57v-178q0 -90 -71 -122z" />
    <glyph glyph-name="bar" unicode="|" horiz-adv-x="253" 
d="M62 -118v885h133v-885h-133z" />
    <glyph glyph-name="braceright" unicode="}" horiz-adv-x="362" 
d="M179 337q-72 33 -72 122v178q0 57 -48 57q-17 0 -38 -8l-16 95q43 18 98 18q107 0 133 -90q10 -34 10 -80v-126q0 -27 1 -41q2 -40 18.5 -60t56.5 -21v-88q-36 -1 -53 -18.5t-20 -53.5q-3 -45 -3 -48v-149q0 -45 -10 -78q-26 -90 -133 -90q-54 0 -98 18l16 95
q18 -6 38 -6q26 0 37 14.5t11 46.5v191q0 91 72 122z" />
    <glyph glyph-name="asciitilde" unicode="~" horiz-adv-x="636" 
d="M506 384l88 -75q-21 -40 -50 -67q-53 -51 -125 -51q-51 0 -104 24q-14 6 -43 19.5t-37 17.5q-28 13 -52 13q-46 0 -102 -70l-89 76q29 40 51 62q58 58 119 58q50 0 122 -36q50 -25 76 -34q24 -8 45 -8q51 0 101 71z" />
    <glyph glyph-name="uni00A0" unicode="&#xa0;" horiz-adv-x="165" 
 />
    <glyph glyph-name="exclamdown" unicode="&#xa1;" horiz-adv-x="264" 
d="M191 323l19 -507h-162l17 507h126zM205 467q0 -34 -20.5 -57t-55.5 -23t-55.5 22t-20.5 57q0 34 20 56.5t55 22.5t56 -21.5t21 -56.5z" />
    <glyph glyph-name="cent" unicode="&#xa2;" horiz-adv-x="540" 
d="M291 472q-69 0 -71 -146q0 -70 15.5 -110t60.5 -40q50 0 73 81l129 -36q-11 -58 -47.5 -102t-92.5 -59v-97h-137v96q-85 24 -120.5 90t-35.5 173q0 222 155 266v87h138v-85q106 -26 140 -150l-137 -47q-18 79 -70 79z" />
    <glyph glyph-name="sterling" unicode="&#xa3;" horiz-adv-x="552" 
d="M39 294v100h61q-27 70 -27 110q0 87 61 140.5t166 53.5q95 0 147.5 -43.5t76.5 -123.5l-128 -43q-30 90 -98 90q-32 0 -52.5 -21.5t-20.5 -57.5q0 -33 29 -105h175v-99h-147q13 -50 13 -80q0 -62 -43 -106h277v-109h-468l-12 91q50 14 75 48.5t25 72.5q0 36 -16 82h-94z
" />
    <glyph glyph-name="currency" unicode="&#xa4;" horiz-adv-x="607" 
d="M557 165l-62 -61l-68 65q-60 -35 -125 -35t-124 36l-69 -66l-61 61l65 63q-39 60 -39 125q0 67 39 125l-65 64l61 60l69 -66q60 36 124 36t125 -37l68 67l62 -60l-65 -64q41 -61 41 -125q0 -65 -41 -125zM421 353q0 58 -34 92t-84 34q-51 0 -85 -34.5t-34 -91.5
q0 -56 34 -91.5t85 -35.5q49 0 83.5 35.5t34.5 91.5z" />
    <glyph glyph-name="yen" unicode="&#xa5;" horiz-adv-x="552" 
d="M356 0h-156v247h-145v127h96l-161 311h172l117 -273l113 273h170l-159 -311h101v-127h-148v-247z" />
    <glyph glyph-name="brokenbar" unicode="&#xa6;" horiz-adv-x="253" 
d="M61 -118v401h135v-401h-135zM61 401v366h135v-366h-135z" />
    <glyph glyph-name="section" unicode="&#xa7;" horiz-adv-x="586" 
d="M178 573l-4 2q-22 -41 -22 -88q0 -43 23 -89t56.5 -88.5t68 -87.5t61.5 -101t33 -112q2 -22 2 -33q0 -14 -1 -21q36 48 36 123q0 55 -25.5 111t-62 102.5t-73.5 91.5t-63.5 94.5t-28.5 95.5zM237 -56q56 0 56 48q0 39 -23.5 77.5t-101.5 139.5q-64 83 -93 139.5
t-29 126.5q0 113 74 184t195 71q165 0 234 -148l-112 -56q-22 43 -43.5 62t-52.5 19q-23 0 -38 -13t-15 -34q0 -18 10 -39t21.5 -36t40.5 -50q4 -4 11 -13q37 -44 57.5 -70t48 -70.5t40.5 -89t13 -91.5q0 -125 -73 -203.5t-194 -78.5q-97 0 -158.5 43.5t-87.5 99.5l107 68
q20 -38 50.5 -62t62.5 -24z" />
    <glyph glyph-name="dieresis" unicode="&#xa8;" horiz-adv-x="473" 
d="M59 672q0 34 20.5 54t52.5 20q74 0 74 -74q0 -35 -20.5 -55t-53.5 -20t-53 20t-20 55zM270 672q0 35 20 54.5t53 19.5q75 0 75 -74q0 -35 -21 -55t-54 -20q-34 0 -53.5 20t-19.5 55z" />
    <glyph glyph-name="copyright" unicode="&#xa9;" horiz-adv-x="880" 
d="M609 490l-64 -47q-48 60 -101 60q-50 0 -79.5 -41t-29.5 -106q0 -71 31.5 -110t81.5 -39q54 0 108 54l49 -62q-70 -68 -161 -68q-54 0 -95 20.5t-62.5 54t-32 70.5t-10.5 77q0 107 56.5 167.5t143.5 60.5q55 0 98 -25t67 -66zM825 359q0 -167 -109 -273t-281 -106
q-174 0 -277 104t-103 269q0 163 107 270t273 107q171 0 280.5 -106t109.5 -265zM736 353q0 131 -85 215t-215 84q-132 0 -211.5 -83t-79.5 -216q0 -131 81.5 -213.5t209.5 -82.5q132 0 216 81t84 215z" />
    <glyph glyph-name="ordfeminine" unicode="&#xaa;" horiz-adv-x="401" 
d="M239 438v68q-19 7 -36 7q-57 0 -57 -53q0 -47 40 -47q32 0 53 25zM72 621l-9 82q49 17 121 17q68 0 107.5 -19.5t51.5 -72.5q8 -28 8 -73v-219h-94l-9 31q-41 -37 -99 -37t-88.5 33t-30.5 85q0 132 153 132q30 0 56 -6v10q0 30 -17.5 41t-52.5 11q-48 0 -97 -15z" />
    <glyph glyph-name="guillemotleft" unicode="&#xab;" horiz-adv-x="608" 
d="M500 58l-222 225l218 226l86 -89l-136 -134l141 -140zM235 58l-222 225l219 226l85 -89l-135 -134l141 -140z" />
    <glyph glyph-name="logicalnot" unicode="&#xac;" horiz-adv-x="540" 
d="M377 121v153h-335v122h456v-275h-121z" />
    <glyph glyph-name="uni00AD" unicode="&#xad;" horiz-adv-x="391" 
d="M45 246v116h301v-116h-301z" />
    <glyph glyph-name="registered" unicode="&#xae;" horiz-adv-x="880" 
d="M825 359q0 -167 -109 -273t-281 -106q-175 0 -277.5 104t-102.5 269q0 163 107 270t273 107q171 0 280.5 -106t109.5 -265zM736 353q0 131 -85 215t-215 84q-132 0 -211.5 -83t-79.5 -216q0 -131 81.5 -213.5t209.5 -82.5q132 0 216 81t84 215zM526 332l86 -190h-87
l-75 176h-72v-176h-78v435h153q154 0 154 -122q0 -44 -23 -75.5t-58 -47.5zM378 383h54q45 0 68 15t23 54q0 35 -19.5 47.5t-63.5 12.5h-62v-129z" />
    <glyph glyph-name="macron" unicode="&#xaf;" horiz-adv-x="456" 
d="M72 621v105h317v-105h-317z" />
    <glyph glyph-name="degree" unicode="&#xb0;" horiz-adv-x="306" 
d="M31 594q0 54 36 91t89 37q57 0 91 -35.5t34 -86.5q0 -57 -36 -95t-92 -38t-89 36.5t-33 90.5zM106 594q0 -25 13.5 -41.5t36.5 -16.5q24 0 37.5 17t13.5 41q0 26 -13 42t-38 16q-50 0 -50 -58z" />
    <glyph glyph-name="plusminus" unicode="&#xb1;" horiz-adv-x="552" 
d="M513 123v-123h-475v123h175v161h-175v124h175v176h127v-176h173v-124h-173v-161h173z" />
    <glyph glyph-name="twosuperior" unicode="&#xb2;" 
d="M120 677l-82 49q22 45 64.5 72.5t103.5 27.5q69 0 109.5 -33.5t40.5 -93.5q0 -71 -56 -132q-48 -53 -89 -86h151v-92h-309v80q38 30 54 43t39 34.5t51 52.5q42 47 42 87q0 17 -11.5 30.5t-35.5 13.5q-44 0 -72 -53z" />
    <glyph glyph-name="threesuperior" unicode="&#xb3;" 
d="M123 692l-74 51q20 38 61 60.5t97 22.5q64 0 104 -29.5t40 -84.5q0 -33 -19.5 -60t-47.5 -39q73 -19 73 -95q0 -61 -45.5 -99t-125.5 -38q-81 0 -143 42l39 86q49 -37 99 -37q63 0 63 51q0 50 -57 50h-54v75h45q61 0 61 47q0 41 -45 41q-41 0 -71 -44z" />
    <glyph glyph-name="acute" unicode="&#xb4;" horiz-adv-x="426" 
d="M132 585l-39 79l201 118l47 -99z" />
    <glyph glyph-name="mu" unicode="&#xb5;" horiz-adv-x="609" 
d="M499 -12q-37 0 -62 18.5t-33 49.5q-36 -67 -115 -67q-31 0 -53.5 14t-32.5 34v-231h-142v730h150v-350q0 -92 75 -92q38 0 62 29t24 75v338h151v-406q0 -42 29 -42q14 0 23 4q2 -15 5 -44t5 -43q-40 -17 -86 -17z" />
    <glyph glyph-name="paragraph" unicode="&#xb6;" horiz-adv-x="611" 
d="M305 60v226q-113 0 -184 53t-71 164q0 58 22 101.5t59 67.5t80.5 35.5t92.5 11.5h267l-10 -142h-76v-528q0 -102 -57 -166t-184 -64q-106 0 -182 29l26 152q62 -29 133 -29q41 0 62.5 20t21.5 69z" />
    <glyph glyph-name="periodcentered" unicode="&#xb7;" horiz-adv-x="313" 
d="M75 364q0 36 22 61t59 25q38 0 60.5 -23.5t22.5 -61.5q0 -36 -23 -60.5t-62 -24.5q-37 0 -58 23t-21 61z" />
    <glyph glyph-name="cedilla" unicode="&#xb8;" horiz-adv-x="432" 
d="M144 -122v66q34 9 73 9q49 0 76 -26.5t27 -65.5q0 -64 -42.5 -94.5t-100.5 -30.5q-28 0 -61 9l12 68q22 -7 46 -7q53 0 53 45q0 33 -39 33q-16 0 -44 -6z" />
    <glyph glyph-name="onesuperior" unicode="&#xb9;" 
d="M61 391v81h79v265h-73v82h191v-347h81v-81h-278z" />
    <glyph glyph-name="ordmasculine" unicode="&#xba;" horiz-adv-x="412" 
d="M202 330q-48 0 -83 17t-53.5 46t-27 62t-8.5 71q0 86 45.5 140t134.5 54q172 0 172 -188q0 -85 -43.5 -143.5t-136.5 -58.5zM205 416q56 0 56 114q0 50 -11 77.5t-42 27.5q-58 0 -58 -111q0 -54 12 -81t43 -27z" />
    <glyph glyph-name="guillemotright" unicode="&#xbb;" horiz-adv-x="608" 
d="M373 58l-87 88l140 140l-135 134l85 89l219 -226zM330 283l-222 -225l-87 88l141 140l-136 134l86 89z" />
    <glyph glyph-name="onequarter" unicode="&#xbc;" horiz-adv-x="963" 
d="M409 0h-134l290 719h136zM54 291v81h79v265h-73v82h191v-347h81v-81h-278zM862 0h-110v93h-197v60l177 277h130v-261h54v-77h-54v-92zM651 169h101v93q0 42 3 75h-5q-7 -18 -36 -66z" />
    <glyph glyph-name="onehalf" unicode="&#xbd;" horiz-adv-x="963" 
d="M394 0h-134l290 719h136zM37 291v81h79v265h-73v82h191v-347h81v-81h-278zM661 288l-82 49q22 45 64.5 72.5t103.5 27.5q69 0 109.5 -33.5t40.5 -93.5q0 -71 -56 -132q-48 -53 -89 -86h151v-92h-309v80q38 30 54 43t39 34.5t51 52.5q42 47 42 87q0 17 -11.5 30.5
t-35.5 13.5q-44 0 -72 -53z" />
    <glyph glyph-name="threequarters" unicode="&#xbe;" horiz-adv-x="963" 
d="M414 0h-134l290 719h136zM128 592l-74 51q20 38 61 60.5t97 22.5q64 0 104 -29.5t40 -84.5q0 -33 -19.5 -60t-47.5 -39q73 -19 73 -95q0 -61 -45.5 -99t-125.5 -38q-81 0 -143 42l39 86q49 -37 99 -37q63 0 63 51q0 50 -57 50h-54v75h45q61 0 61 47q0 41 -45 41
q-41 0 -71 -44zM872 -2h-110v93h-197v60l177 277h130v-261h54v-77h-54v-92zM661 167h101v93q0 42 3 75h-5q-7 -18 -36 -66z" />
    <glyph glyph-name="questiondown" unicode="&#xbf;" horiz-adv-x="440" 
d="M367 326v-188q-179 -16 -179 -121q0 -39 26.5 -60t73.5 -21q48 0 94 12l18 -115q-58 -15 -130 -15q-115 0 -175 50t-60 146q0 72 45 125t137 76v111h150zM367 469q0 -34 -20.5 -57t-55.5 -23t-55.5 22t-20.5 57q0 34 20 56.5t55 22.5t56 -21.5t21 -56.5z" />
    <glyph glyph-name="Agrave" unicode="&#xc0;" horiz-adv-x="631" 
d="M159 0h-155l211 719h193l219 -719h-157l-54 170h-208zM311 588h-3q-10 -68 -27 -131l-45 -177h150l-46 176q-10 37 -29 132zM217 930l212 -80l-27 -84l-218 59z" />
    <glyph glyph-name="Aacute" unicode="&#xc1;" horiz-adv-x="631" 
d="M159 0h-155l211 719h193l219 -719h-157l-54 170h-208zM311 588h-3q-10 -68 -27 -131l-45 -177h150l-46 176q-10 37 -29 132zM200 850l213 80l33 -105l-219 -59z" />
    <glyph glyph-name="Acircumflex" unicode="&#xc2;" horiz-adv-x="631" 
d="M159 0h-155l211 719h193l219 -719h-157l-54 170h-208zM311 588h-3q-10 -68 -27 -131l-45 -177h150l-46 176q-10 37 -29 132zM255 917h117l100 -109l-61 -50l-100 69l-102 -69l-60 54z" />
    <glyph glyph-name="Atilde" unicode="&#xc3;" horiz-adv-x="631" 
d="M159 0h-155l211 719h193l219 -719h-157l-54 170h-208zM311 588h-3q-10 -68 -27 -131l-45 -177h150l-46 176q-10 37 -29 132zM174 781l-17 96q14 13 42 24t53 11q22 0 63 -14t64 -14q34 0 65 19l9 -101q-30 -17 -72 -17q-24 0 -66.5 11.5t-58.5 11.5q-42 0 -82 -27z" />
    <glyph glyph-name="Adieresis" unicode="&#xc4;" horiz-adv-x="631" 
d="M159 0h-155l211 719h193l219 -719h-157l-54 170h-208zM311 588h-3q-10 -68 -27 -131l-45 -177h150l-46 176q-10 37 -29 132zM135 855q0 35 20 54.5t52 19.5q75 0 75 -74q0 -35 -21 -54.5t-54 -19.5t-52.5 20t-19.5 54zM346 855q0 35 20 54.5t52 19.5q75 0 75 -74
q0 -35 -21 -54.5t-54 -19.5t-52.5 20t-19.5 54z" />
    <glyph glyph-name="Aring" unicode="&#xc5;" horiz-adv-x="631" 
d="M193 796q0 52 34.5 87.5t86.5 35.5q54 0 87 -34.5t33 -83.5q0 -46 -26 -82l219 -719h-157l-54 170h-208l-49 -170h-155l211 719q-22 33 -22 77zM311 588h-3q-10 -68 -27 -131l-45 -177h150l-46 176q-10 37 -29 132zM265 796q0 -24 13 -40.5t36 -16.5t36 16.5t13 40.5
q0 25 -13 40.5t-36 15.5q-49 0 -49 -56z" />
    <glyph glyph-name="AE" unicode="&#xc6;" horiz-adv-x="906" 
d="M415 0v180h-174l-77 -180h-159l309 719h549v-120h-292v-172h254v-119h-254v-188h304v-120h-460zM283 295h132v319h-2q-13 -42 -50 -128z" />
    <glyph glyph-name="Ccedilla" unicode="&#xc7;" horiz-adv-x="601" 
d="M372 116q79 0 169 50l27 -127q-100 -53 -221 -53q-85 0 -147 32t-95 87t-47.5 116.5t-14.5 132.5q0 77 14 141.5t45.5 120t89.5 87t139 31.5q211 0 251 -198l-147 -36q-24 112 -104 112q-124 0 -124 -242q0 -127 39 -190.5t126 -63.5zM266 -122v66q34 9 73 9
q49 0 76 -26.5t27 -65.5q0 -64 -42.5 -94.5t-100.5 -30.5q-28 0 -61 9l12 68q22 -7 46 -7q53 0 53 45q0 33 -39 33q-16 0 -44 -6z" />
    <glyph glyph-name="Egrave" unicode="&#xc8;" horiz-adv-x="563" 
d="M74 0v719h447v-120h-291v-172h253v-120h-253v-186h303v-121h-459zM193 930l212 -80l-27 -84l-218 59z" />
    <glyph glyph-name="Eacute" unicode="&#xc9;" horiz-adv-x="563" 
d="M74 0v719h447v-120h-291v-172h253v-120h-253v-186h303v-121h-459zM191 850l213 80l33 -105l-219 -59z" />
    <glyph glyph-name="Ecircumflex" unicode="&#xca;" horiz-adv-x="563" 
d="M74 0v719h447v-120h-291v-172h253v-120h-253v-186h303v-121h-459zM246 917h117l100 -109l-61 -50l-100 69l-102 -69l-60 54z" />
    <glyph glyph-name="Edieresis" unicode="&#xcb;" horiz-adv-x="563" 
d="M74 0v719h447v-120h-291v-172h253v-120h-253v-186h303v-121h-459zM124 855q0 35 20 54.5t52 19.5q75 0 75 -74q0 -35 -21 -54.5t-54 -19.5t-52.5 20t-19.5 54zM335 855q0 35 20 54.5t52 19.5q75 0 75 -74q0 -35 -21 -54.5t-54 -19.5t-52.5 20t-19.5 54z" />
    <glyph glyph-name="Igrave" unicode="&#xcc;" horiz-adv-x="304" 
d="M74 719h156v-719h-156v719zM51 930l212 -80l-27 -84l-218 59z" />
    <glyph glyph-name="Iacute" unicode="&#xcd;" horiz-adv-x="304" 
d="M74 719h156v-719h-156v719zM39 850l213 80l33 -105l-219 -59z" />
    <glyph glyph-name="Icircumflex" unicode="&#xce;" horiz-adv-x="304" 
d="M74 719h156v-719h-156v719zM96 917h117l100 -109l-61 -50l-100 69l-102 -69l-60 54z" />
    <glyph glyph-name="Idieresis" unicode="&#xcf;" horiz-adv-x="304" 
d="M74 719h156v-719h-156v719zM-28 855q0 35 20 54.5t52 19.5q75 0 75 -74q0 -35 -21 -54.5t-54 -19.5t-52.5 20t-19.5 54zM183 855q0 35 20 54.5t52 19.5q75 0 75 -74q0 -35 -21 -54.5t-54 -19.5t-52.5 20t-19.5 54z" />
    <glyph glyph-name="Eth" unicode="&#xd0;" horiz-adv-x="675" 
d="M28 302v115h68v302h240q139 0 218 -75.5t79 -253.5q0 -92 -17.5 -161.5t-46.5 -112t-71 -69.5t-86.5 -37t-97.5 -10h-218v302h-68zM252 604v-187h102v-115h-102v-188h46q24 0 47 3q63 11 93.5 71.5t30.5 185.5t-34 177.5t-107 52.5h-76z" />
    <glyph glyph-name="Ntilde" unicode="&#xd1;" horiz-adv-x="694" 
d="M467 719h153v-719h-136l-185 328q-46 81 -78 154l-1 -1q7 -91 7 -164v-317h-153v719h145l179 -333q54 -99 76 -148h1l1 1q-9 94 -9 157v323zM216 781l-17 96q14 13 42 24t53 11q22 0 63 -14t64 -14q34 0 65 19l9 -101q-30 -17 -72 -17q-24 0 -66.5 11.5t-58.5 11.5
q-42 0 -82 -27z" />
    <glyph glyph-name="Ograve" unicode="&#xd2;" horiz-adv-x="681" 
d="M337 -14q-294 0 -294 384q0 174 82 269t223 95q290 0 290 -359q0 -389 -301 -389zM474 374q0 129 -34 181t-96 52q-137 0 -137 -238q0 -259 132 -259q31 0 53.5 11.5t42 39.5t29.5 81.5t10 131.5zM250 930l212 -80l-27 -84l-218 59z" />
    <glyph glyph-name="Oacute" unicode="&#xd3;" horiz-adv-x="681" 
d="M337 -14q-294 0 -294 384q0 174 82 269t223 95q290 0 290 -359q0 -389 -301 -389zM474 374q0 129 -34 181t-96 52q-137 0 -137 -238q0 -259 132 -259q31 0 53.5 11.5t42 39.5t29.5 81.5t10 131.5zM244 850l213 80l33 -105l-219 -59z" />
    <glyph glyph-name="Ocircumflex" unicode="&#xd4;" horiz-adv-x="681" 
d="M337 -14q-294 0 -294 384q0 174 82 269t223 95q290 0 290 -359q0 -389 -301 -389zM474 374q0 129 -34 181t-96 52q-137 0 -137 -238q0 -259 132 -259q31 0 53.5 11.5t42 39.5t29.5 81.5t10 131.5zM291 917h117l100 -109l-61 -50l-100 69l-102 -69l-60 54z" />
    <glyph glyph-name="Otilde" unicode="&#xd5;" horiz-adv-x="681" 
d="M337 -14q-294 0 -294 384q0 174 82 269t223 95q290 0 290 -359q0 -389 -301 -389zM474 374q0 129 -34 181t-96 52q-137 0 -137 -238q0 -259 132 -259q31 0 53.5 11.5t42 39.5t29.5 81.5t10 131.5zM210 781l-17 96q14 13 42 24t53 11q22 0 63 -14t64 -14q34 0 65 19
l9 -101q-30 -17 -72 -17q-24 0 -66.5 11.5t-58.5 11.5q-42 0 -82 -27z" />
    <glyph glyph-name="Odieresis" unicode="&#xd6;" horiz-adv-x="681" 
d="M337 -14q-294 0 -294 384q0 174 82 269t223 95q290 0 290 -359q0 -389 -301 -389zM474 374q0 129 -34 181t-96 52q-137 0 -137 -238q0 -259 132 -259q31 0 53.5 11.5t42 39.5t29.5 81.5t10 131.5zM168 855q0 35 20 54.5t52 19.5q75 0 75 -74q0 -35 -21 -54.5t-54 -19.5
t-52.5 20t-19.5 54zM379 855q0 35 20 54.5t52 19.5q75 0 75 -74q0 -35 -21 -54.5t-54 -19.5t-52.5 20t-19.5 54z" />
    <glyph glyph-name="multiply" unicode="&#xd7;" horiz-adv-x="540" 
d="M4 149l166 166l-164 168l97 90l168 -170l171 169l91 -91l-164 -165l167 -168l-94 -88l-173 169l-175 -170z" />
    <glyph glyph-name="Oslash" unicode="&#xd8;" horiz-adv-x="681" 
d="M87 -65l54 119q-98 92 -98 316q0 174 82 269t223 95q52 0 96 -12l39 85l100 -40l-44 -96q99 -89 99 -296q0 -389 -301 -389q-58 0 -101 14l-46 -104zM474 374q0 72 -13 124l-170 -378q20 -10 48 -10q31 0 53.5 11.5t42 39.5t29.5 81.5t10 131.5zM207 369q0 -88 13 -141
l168 371q-21 8 -44 8q-137 0 -137 -238z" />
    <glyph glyph-name="Ugrave" unicode="&#xd9;" horiz-adv-x="664" 
d="M223 719v-445q0 -58 7 -83q20 -74 103 -74q84 0 102 73q6 25 6 90v439h157v-463q0 -84 -21 -137q-52 -130 -246 -130q-173 0 -233 110q-32 57 -32 158v462h157zM235 930l212 -80l-27 -84l-218 59z" />
    <glyph glyph-name="Uacute" unicode="&#xda;" horiz-adv-x="664" 
d="M223 719v-445q0 -58 7 -83q20 -74 103 -74q84 0 102 73q6 25 6 90v439h157v-463q0 -84 -21 -137q-52 -130 -246 -130q-173 0 -233 110q-32 57 -32 158v462h157zM236 851l213 80l33 -105l-219 -59z" />
    <glyph glyph-name="Ucircumflex" unicode="&#xdb;" horiz-adv-x="664" 
d="M223 719v-445q0 -58 7 -83q20 -74 103 -74q84 0 102 73q6 25 6 90v439h157v-463q0 -84 -21 -137q-52 -130 -246 -130q-173 0 -233 110q-32 57 -32 158v462h157zM280 917h117l100 -109l-61 -50l-100 69l-102 -69l-60 54z" />
    <glyph glyph-name="Udieresis" unicode="&#xdc;" horiz-adv-x="664" 
d="M223 719v-445q0 -58 7 -83q20 -74 103 -74q84 0 102 73q6 25 6 90v439h157v-463q0 -84 -21 -137q-52 -130 -246 -130q-173 0 -233 110q-32 57 -32 158v462h157zM154 855q0 35 20 54.5t52 19.5q75 0 75 -74q0 -35 -21 -54.5t-54 -19.5t-52.5 20t-19.5 54zM365 855
q0 35 20 54.5t52 19.5q75 0 75 -74q0 -35 -21 -54.5t-54 -19.5t-52.5 20t-19.5 54z" />
    <glyph glyph-name="Yacute" unicode="&#xdd;" horiz-adv-x="629" 
d="M320 407q16 57 39 105l100 207h170l-234 -439v-280h-156v279l-239 440h172l104 -209q18 -37 41 -103h3zM216 850l213 80l33 -105l-219 -59z" />
    <glyph glyph-name="Thorn" unicode="&#xde;" horiz-adv-x="609" 
d="M230 155v-155h-156v720h156v-110h100q119 0 185.5 -53t66.5 -156q0 -113 -70.5 -179.5t-191.5 -66.5h-90zM230 271h72q120 0 120 122q0 56 -29 79t-83 23h-80v-224z" />
    <glyph glyph-name="germandbls" unicode="&#xdf;" horiz-adv-x="621" 
d="M211 521v-521h-151v513q0 214 246 214q111 0 174 -50.5t63 -175.5v-76h-31q-92 0 -92 -42q0 -26 50 -56q62 -37 82 -57q44 -45 44 -112q0 -69 -50 -118.5t-143 -49.5q-77 0 -135 27l28 115q51 -29 94 -29q30 0 46 13t16 35q0 15 -5.5 27t-19 22.5t-23 16t-30.5 16.5
q-32 16 -50 29t-35 41.5t-17 67.5q0 64 40 101.5t91 47.5v16q0 81 -95 81q-50 0 -73.5 -26t-23.5 -70z" />
    <glyph glyph-name="agrave" unicode="&#xe0;" horiz-adv-x="538" 
d="M92 410l-21 107q81 28 173 28q88 0 140.5 -29.5t68.5 -105.5q10 -43 10 -103v-173q0 -40 28 -40q8 0 26 5l11 -92q-43 -18 -94 -18q-73 0 -92 60q-63 -59 -151 -59q-79 0 -120.5 47.5t-41.5 121.5q0 92 52.5 139.5t154.5 47.5q38 0 82 -10v15q0 82 -97 82q-56 0 -129 -23
zM318 141v103q-29 12 -56 12q-84 0 -84 -82q0 -74 60 -74q47 0 80 41zM381 664l-39 -79l-209 98l49 99z" />
    <glyph glyph-name="aacute" unicode="&#xe1;" horiz-adv-x="538" 
d="M92 410l-21 107q81 28 173 28q88 0 140.5 -29.5t68.5 -105.5q10 -43 10 -103v-173q0 -40 28 -40q8 0 26 5l11 -92q-43 -18 -94 -18q-73 0 -92 60q-63 -59 -151 -59q-79 0 -120.5 47.5t-41.5 121.5q0 92 52.5 139.5t154.5 47.5q38 0 82 -10v15q0 82 -97 82q-56 0 -129 -23
zM318 141v103q-29 12 -56 12q-84 0 -84 -82q0 -74 60 -74q47 0 80 41zM195 583l-39 79l201 118l47 -99z" />
    <glyph glyph-name="acircumflex" unicode="&#xe2;" horiz-adv-x="538" 
d="M92 410l-21 107q81 28 173 28q88 0 140.5 -29.5t68.5 -105.5q10 -43 10 -103v-173q0 -40 28 -40q8 0 26 5l11 -92q-43 -18 -94 -18q-73 0 -92 60q-63 -59 -151 -59q-79 0 -120.5 47.5t-41.5 121.5q0 92 52.5 139.5t154.5 47.5q38 0 82 -10v15q0 82 -97 82q-56 0 -129 -23
zM318 141v103q-29 12 -56 12q-84 0 -84 -82q0 -74 60 -74q47 0 80 41zM207 772h117l103 -128l-63 -60l-102 94l-103 -94l-64 63z" />
    <glyph glyph-name="atilde" unicode="&#xe3;" horiz-adv-x="538" 
d="M92 410l-21 107q81 28 173 28q88 0 140.5 -29.5t68.5 -105.5q10 -43 10 -103v-173q0 -40 28 -40q8 0 26 5l11 -92q-43 -18 -94 -18q-73 0 -92 60q-63 -59 -151 -59q-79 0 -120.5 47.5t-41.5 121.5q0 92 52.5 139.5t154.5 47.5q38 0 82 -10v15q0 82 -97 82q-56 0 -129 -23
zM318 141v103q-29 12 -56 12q-84 0 -84 -82q0 -74 60 -74q47 0 80 41zM119 609l-18 96q14 13 42 24t53 11q22 0 63 -14t64 -14q35 0 65 20l9 -102q-30 -17 -72 -17q-24 0 -66.5 11.5t-58.5 11.5q-41 0 -81 -27z" />
    <glyph glyph-name="adieresis" unicode="&#xe4;" horiz-adv-x="538" 
d="M92 410l-21 107q81 28 173 28q88 0 140.5 -29.5t68.5 -105.5q10 -43 10 -103v-173q0 -40 28 -40q8 0 26 5l11 -92q-43 -18 -94 -18q-73 0 -92 60q-63 -59 -151 -59q-79 0 -120.5 47.5t-41.5 121.5q0 92 52.5 139.5t154.5 47.5q38 0 82 -10v15q0 82 -97 82q-56 0 -129 -23
zM318 141v103q-29 12 -56 12q-84 0 -84 -82q0 -74 60 -74q47 0 80 41zM77 672q0 34 20.5 54t52.5 20q74 0 74 -74q0 -35 -20.5 -55t-53.5 -20t-53 20t-20 55zM288 672q0 35 20 54.5t53 19.5q75 0 75 -74q0 -35 -21 -55t-54 -20q-34 0 -53.5 20t-19.5 55z" />
    <glyph glyph-name="aring" unicode="&#xe5;" horiz-adv-x="538" 
d="M92 410l-21 107q81 28 173 28q88 0 140.5 -29.5t68.5 -105.5q10 -43 10 -103v-173q0 -40 28 -40q8 0 26 5l11 -92q-43 -18 -94 -18q-73 0 -92 60q-63 -59 -151 -59q-79 0 -120.5 47.5t-41.5 121.5q0 92 52.5 139.5t154.5 47.5q38 0 82 -10v15q0 82 -97 82q-56 0 -129 -23
zM318 141v103q-29 12 -56 12q-84 0 -84 -82q0 -74 60 -74q47 0 80 41zM130 714q0 52 35 87.5t88 35.5q57 0 90.5 -34.5t33.5 -83.5q0 -55 -35.5 -92t-91.5 -37t-88 35.5t-32 88.5zM205 714q0 -25 12.5 -41t35.5 -16t36 16.5t13 40.5q0 25 -12.5 40.5t-36.5 15.5
q-48 0 -48 -56z" />
    <glyph glyph-name="ae" unicode="&#xe6;" horiz-adv-x="773" 
d="M738 243h-276q3 -66 33.5 -98t80.5 -32q68 0 144 41l7 -126q-68 -38 -166 -38q-115 0 -177 70q-83 -70 -174 -70q-92 0 -136.5 46.5t-44.5 122.5q0 92 52.5 139.5t154.5 47.5q38 0 82 -10v15q0 82 -101 82q-61 0 -131 -22l-11 109q73 25 177 25q112 0 147 -68
q53 68 144 68q98 0 146.5 -64.5t48.5 -184.5v-53zM245 100q52 0 88 41q-13 42 -15 103q-30 11 -62 11q-78 0 -78 -81q0 -35 18 -54.5t49 -19.5zM597 332q0 105 -64 105q-34 0 -52 -28.5t-18 -76.5h134z" />
    <glyph glyph-name="ccedilla" unicode="&#xe7;" horiz-adv-x="472" 
d="M304 112q62 0 130 35l11 -123q-74 -36 -164 -36q-70 0 -120 24.5t-76.5 66.5t-38 88t-11.5 100q0 44 7 83t24 75.5t43 62.5t67.5 41.5t94.5 15.5q84 0 130.5 -42t60.5 -113l-125 -40q-9 37 -24 56t-46 19q-76 0 -76 -149q0 -164 113 -164zM187 -121v66q35 9 73 9
q49 0 76 -26.5t27 -65.5q0 -64 -42.5 -94.5t-100.5 -30.5q-28 0 -61 9l12 68q22 -7 46 -7q53 0 53 45q0 33 -39 33q-16 0 -44 -6z" />
    <glyph glyph-name="egrave" unicode="&#xe8;" horiz-adv-x="494" 
d="M464 240h-276q3 -64 34 -96t80 -32q71 0 144 41l7 -127q-72 -37 -166 -37q-252 0 -252 285q0 137 62.5 204t161.5 67q205 0 205 -252v-53zM323 329q0 108 -65 108q-34 0 -51.5 -29.5t-17.5 -78.5h134zM381 663l-39 -79l-209 98l49 99z" />
    <glyph glyph-name="eacute" unicode="&#xe9;" horiz-adv-x="494" 
d="M464 240h-276q3 -64 34 -96t80 -32q71 0 144 41l7 -127q-72 -37 -166 -37q-252 0 -252 285q0 137 62.5 204t161.5 67q205 0 205 -252v-53zM323 329q0 108 -65 108q-34 0 -51.5 -29.5t-17.5 -78.5h134zM199 585l-39 79l201 118l47 -99z" />
    <glyph glyph-name="ecircumflex" unicode="&#xea;" horiz-adv-x="494" 
d="M464 240h-276q3 -64 34 -96t80 -32q71 0 144 41l7 -127q-72 -37 -166 -37q-252 0 -252 285q0 137 62.5 204t161.5 67q205 0 205 -252v-53zM323 329q0 108 -65 108q-34 0 -51.5 -29.5t-17.5 -78.5h134zM204 772h117l103 -128l-63 -60l-102 94l-103 -94l-64 63z" />
    <glyph glyph-name="edieresis" unicode="&#xeb;" horiz-adv-x="494" 
d="M464 240h-276q3 -64 34 -96t80 -32q71 0 144 41l7 -127q-72 -37 -166 -37q-252 0 -252 285q0 137 62.5 204t161.5 67q205 0 205 -252v-53zM323 329q0 108 -65 108q-34 0 -51.5 -29.5t-17.5 -78.5h134zM82 672q0 34 20.5 54t52.5 20q74 0 74 -74q0 -35 -20.5 -55
t-53.5 -20t-53 20t-20 55zM293 672q0 35 20 54.5t53 19.5q75 0 75 -74q0 -35 -21 -55t-54 -20q-34 0 -53.5 20t-19.5 55z" />
    <glyph glyph-name="igrave" unicode="&#xec;" horiz-adv-x="272" 
d="M60 536h152v-536h-152v536zM247 664l-39 -79l-209 98l49 99z" />
    <glyph glyph-name="iacute" unicode="&#xed;" horiz-adv-x="272" 
d="M60 536h152v-536h-152v536zM59 585l-39 79l201 118l47 -99z" />
    <glyph glyph-name="icircumflex" unicode="&#xee;" horiz-adv-x="272" 
d="M60 536h152v-536h-152v536zM80 772h117l103 -128l-63 -60l-102 94l-103 -94l-64 63z" />
    <glyph glyph-name="idieresis" unicode="&#xef;" horiz-adv-x="272" 
d="M60 536h152v-536h-152v536zM-44 672q0 34 20.5 54t52.5 20q74 0 74 -74q0 -35 -20.5 -55t-53.5 -20t-53 20t-20 55zM167 672q0 35 20 54.5t53 19.5q75 0 75 -74q0 -35 -21 -55t-54 -20q-34 0 -53.5 20t-19.5 55z" />
    <glyph glyph-name="eth" unicode="&#xf0;" horiz-adv-x="521" 
d="M250 -12q-115 0 -171 74t-56 189q0 111 58.5 181t152.5 70q52 0 92 -25q-23 68 -88.5 110.5t-146.5 52.5l34 107q92 -11 171 -60l74 72l82 -76l-66 -64q105 -112 105 -323q0 -308 -241 -308zM258 102q29 0 47.5 17t26 48t10 56.5t2.5 61.5q0 49 -11 91q-25 19 -68 19
q-45 0 -66 -41.5t-21 -101.5q0 -72 17 -111t63 -39z" />
    <glyph glyph-name="ntilde" unicode="&#xf1;" horiz-adv-x="566" 
d="M195 536l6 -47q69 56 152 56q131 0 149 -115q4 -25 4 -67v-363h-152v344q0 26 -1 34q-4 42 -53 42q-43 0 -87 -36v-384h-153v536h135zM157 609l-18 96q14 13 42 24t53 11q22 0 63 -14t64 -14q35 0 65 20l9 -102q-30 -17 -72 -17q-24 0 -66.5 11.5t-58.5 11.5
q-41 0 -81 -27z" />
    <glyph glyph-name="ograve" unicode="&#xf2;" horiz-adv-x="540" 
d="M265 -13q-63 0 -109.5 23.5t-72 64.5t-37 88t-11.5 102q0 124 61.5 202t179.5 78q229 0 229 -271q0 -58 -13 -107.5t-40.5 -90.5t-75 -65t-111.5 -24zM269 106q79 0 79 163q0 75 -15.5 116.5t-59.5 41.5q-82 0 -82 -162q0 -78 17.5 -118.5t60.5 -40.5zM391 664l-39 -79
l-209 98l49 99z" />
    <glyph glyph-name="oacute" unicode="&#xf3;" horiz-adv-x="540" 
d="M265 -13q-63 0 -109.5 23.5t-72 64.5t-37 88t-11.5 102q0 124 61.5 202t179.5 78q229 0 229 -271q0 -58 -13 -107.5t-40.5 -90.5t-75 -65t-111.5 -24zM269 106q79 0 79 163q0 75 -15.5 116.5t-59.5 41.5q-82 0 -82 -162q0 -78 17.5 -118.5t60.5 -40.5zM223 585l-39 79
l201 118l47 -99z" />
    <glyph glyph-name="ocircumflex" unicode="&#xf4;" horiz-adv-x="540" 
d="M265 -13q-63 0 -109.5 23.5t-72 64.5t-37 88t-11.5 102q0 124 61.5 202t179.5 78q229 0 229 -271q0 -58 -13 -107.5t-40.5 -90.5t-75 -65t-111.5 -24zM269 106q79 0 79 163q0 75 -15.5 116.5t-59.5 41.5q-82 0 -82 -162q0 -78 17.5 -118.5t60.5 -40.5zM221 772h117
l103 -128l-63 -60l-102 94l-103 -94l-64 63z" />
    <glyph glyph-name="otilde" unicode="&#xf5;" horiz-adv-x="540" 
d="M265 -13q-63 0 -109.5 23.5t-72 64.5t-37 88t-11.5 102q0 124 61.5 202t179.5 78q229 0 229 -271q0 -58 -13 -107.5t-40.5 -90.5t-75 -65t-111.5 -24zM269 106q79 0 79 163q0 75 -15.5 116.5t-59.5 41.5q-82 0 -82 -162q0 -78 17.5 -118.5t60.5 -40.5zM144 609l-18 96
q14 13 42 24t53 11q22 0 63 -14t64 -14q35 0 65 20l9 -102q-30 -17 -72 -17q-24 0 -66.5 11.5t-58.5 11.5q-41 0 -81 -27z" />
    <glyph glyph-name="odieresis" unicode="&#xf6;" horiz-adv-x="540" 
d="M265 -13q-63 0 -109.5 23.5t-72 64.5t-37 88t-11.5 102q0 124 61.5 202t179.5 78q229 0 229 -271q0 -58 -13 -107.5t-40.5 -90.5t-75 -65t-111.5 -24zM269 106q79 0 79 163q0 75 -15.5 116.5t-59.5 41.5q-82 0 -82 -162q0 -78 17.5 -118.5t60.5 -40.5zM97 672
q0 34 20.5 54t52.5 20q74 0 74 -74q0 -35 -20.5 -55t-53.5 -20t-53 20t-20 55zM308 672q0 35 20 54.5t53 19.5q75 0 75 -74q0 -35 -21 -55t-54 -20q-34 0 -53.5 20t-19.5 55z" />
    <glyph glyph-name="divide" unicode="&#xf7;" horiz-adv-x="540" 
d="M197 506q0 31 19 53.5t52 22.5q34 0 53.5 -21t19.5 -54q0 -32 -20 -54t-54 -22q-33 0 -51.5 20.5t-18.5 54.5zM197 119q0 30 19 52.5t52 22.5q34 0 53.5 -20.5t19.5 -53.5t-20 -55t-54 -22q-33 0 -51.5 21t-18.5 55zM507 372v-123h-475v123h475z" />
    <glyph glyph-name="oslash" unicode="&#xf8;" horiz-adv-x="540" 
d="M265 -13q-38 0 -75 10l-45 -91l-88 38l51 101q-73 72 -73 220q0 124 61.5 202t179.5 78q42 0 80 -11l42 83l85 -39l-46 -91q68 -67 68 -213q0 -58 -13 -107.5t-40.5 -90.5t-75 -65t-111.5 -24zM187 263q0 -37 2 -53l111 215q-13 5 -26 5q-87 0 -87 -167zM262 102
q45 0 66.5 48t21.5 124q0 7 -0.5 20t-0.5 19l-109 -208q9 -3 22 -3z" />
    <glyph glyph-name="ugrave" unicode="&#xf9;" horiz-adv-x="562" 
d="M209 -10q-132 0 -150 116q-4 25 -4 67v347l153 16v-344q0 -27 2 -35q8 -41 52 -41q39 0 88 35v385h152v-536h-134l-6 46q-70 -56 -153 -56zM403 664l-39 -79l-209 98l49 99z" />
    <glyph glyph-name="uacute" unicode="&#xfa;" horiz-adv-x="562" 
d="M209 -10q-132 0 -150 116q-4 25 -4 67v347l153 16v-344q0 -27 2 -35q8 -41 52 -41q39 0 88 35v385h152v-536h-134l-6 46q-70 -56 -153 -56zM224 585l-39 79l201 118l47 -99z" />
    <glyph glyph-name="ucircumflex" unicode="&#xfb;" horiz-adv-x="562" 
d="M209 -10q-132 0 -150 116q-4 25 -4 67v347l153 16v-344q0 -27 2 -35q8 -41 52 -41q39 0 88 35v385h152v-536h-134l-6 46q-70 -56 -153 -56zM235 772h117l103 -128l-63 -60l-102 94l-103 -94l-64 63z" />
    <glyph glyph-name="udieresis" unicode="&#xfc;" horiz-adv-x="562" 
d="M209 -10q-132 0 -150 116q-4 25 -4 67v347l153 16v-344q0 -27 2 -35q8 -41 52 -41q39 0 88 35v385h152v-536h-134l-6 46q-70 -56 -153 -56zM105 672q0 34 20.5 54t52.5 20q74 0 74 -74q0 -35 -20.5 -55t-53.5 -20t-53 20t-20 55zM316 672q0 35 20 54.5t53 19.5
q75 0 75 -74q0 -35 -21 -55t-54 -20q-34 0 -53.5 20t-19.5 55z" />
    <glyph glyph-name="yacute" unicode="&#xfd;" horiz-adv-x="520" 
d="M366 536l149 -16q-75 -268 -168 -493q-25 -59 -46 -99t-51.5 -78.5t-69.5 -57.5t-87 -19q-94 0 -168 40l39 123q69 -36 113 -36q39 0 61 27t48 96l-186 498l162 15l70 -231q22 -72 36 -133h2q26 82 96 364zM219 585l-39 79l201 118l47 -99z" />
    <glyph glyph-name="thorn" unicode="&#xfe;" horiz-adv-x="551" 
d="M60 721h148v-227q71 51 138 51q77 0 123.5 -58t46.5 -180q0 -52 -8 -100.5t-27 -100t-59.5 -83t-97.5 -31.5q-69 0 -113 30v-231h-151v930zM212 394v-268q27 -20 67 -20q46 0 64.5 46t18.5 135q0 75 -17 104t-53 29q-39 0 -80 -26z" />
    <glyph glyph-name="ydieresis" unicode="&#xff;" horiz-adv-x="520" 
d="M366 536l149 -16q-75 -268 -168 -493q-25 -59 -46 -99t-51.5 -78.5t-69.5 -57.5t-87 -19q-94 0 -168 40l39 123q69 -36 113 -36q39 0 61 27t48 96l-186 498l162 15l70 -231q22 -72 36 -133h2q26 82 96 364zM90 672q0 34 20.5 54t52.5 20q74 0 74 -74q0 -35 -20.5 -55
t-53.5 -20t-53 20t-20 55zM301 672q0 35 20 54.5t53 19.5q75 0 75 -74q0 -35 -21 -55t-54 -20q-34 0 -53.5 20t-19.5 55z" />
    <glyph glyph-name="Amacron" unicode="&#x100;" horiz-adv-x="631" 
d="M159 0h-155l211 719h193l219 -719h-157l-54 170h-208zM311 588h-3q-10 -68 -27 -131l-45 -177h150l-46 176q-10 37 -29 132zM151 791v105h317v-105h-317z" />
    <glyph glyph-name="amacron" unicode="&#x101;" horiz-adv-x="538" 
d="M92 410l-21 107q81 28 173 28q88 0 140.5 -29.5t68.5 -105.5q10 -43 10 -103v-173q0 -40 28 -40q8 0 26 5l11 -92q-43 -18 -94 -18q-73 0 -92 60q-63 -59 -151 -59q-79 0 -120.5 47.5t-41.5 121.5q0 92 52.5 139.5t154.5 47.5q38 0 82 -10v15q0 82 -97 82q-56 0 -129 -23
zM318 141v103q-29 12 -56 12q-84 0 -84 -82q0 -74 60 -74q47 0 80 41zM104 621v105h317v-105h-317z" />
    <glyph glyph-name="Abreve" unicode="&#x102;" horiz-adv-x="631" 
d="M159 0h-155l211 719h193l219 -719h-157l-54 170h-208zM311 588h-3q-10 -68 -27 -131l-45 -177h150l-46 176q-10 37 -29 132zM410 954l84 -41q-58 -133 -181 -133q-125 0 -175 130l86 43q19 -39 39 -59t54 -20q32 0 53 20t40 60z" />
    <glyph glyph-name="abreve" unicode="&#x103;" horiz-adv-x="538" 
d="M92 410l-21 107q81 28 173 28q88 0 140.5 -29.5t68.5 -105.5q10 -43 10 -103v-173q0 -40 28 -40q8 0 26 5l11 -92q-43 -18 -94 -18q-73 0 -92 60q-63 -59 -151 -59q-79 0 -120.5 47.5t-41.5 121.5q0 92 52.5 139.5t154.5 47.5q38 0 82 -10v15q0 82 -97 82q-56 0 -129 -23
zM318 141v103q-29 12 -56 12q-84 0 -84 -82q0 -74 60 -74q47 0 80 41zM354 758l83 -41q-55 -133 -180 -133q-124 0 -175 130l85 44q20 -40 40 -60t54 -20q33 0 53.5 19.5t39.5 60.5z" />
    <glyph glyph-name="Aogonek" unicode="&#x104;" horiz-adv-x="631" 
d="M516 0h-47l-53 170h-209l-49 -170h-154l216 719h183l224 -719q-32 -23 -54 -52.5t-22 -55.5q0 -32 36 -32q23 0 57 14l8 -87q-37 -17 -90 -17q-58 0 -85 26.5t-27 68.5q0 72 66 135zM308 588q-10 -54 -28 -131l-44 -177h149l-45 176q-20 83 -30 132h-2z" />
    <glyph glyph-name="aogonek" unicode="&#x105;" horiz-adv-x="538" 
d="M86 411l-14 111q25 9 75.5 16t89.5 7q98 0 149 -27t67 -104q10 -43 10 -103v-177q0 -40 28 -40q8 0 26 5l11 -92q-75 -64 -75 -109q0 -32 36 -32q23 0 57 14l8 -87q-37 -17 -89 -17q-58 0 -85.5 26.5t-27.5 68.5q0 68 56 120q-51 8 -66 58q-63 -59 -151 -59
q-79 0 -120.5 47.5t-41.5 121.5q0 92 52.5 139.5t154.5 47.5q38 0 82 -10v15q0 82 -101 82q-61 0 -131 -22zM318 141v103q-29 12 -56 12q-84 0 -84 -82q0 -74 60 -74q47 0 80 41z" />
    <glyph glyph-name="Cacute" unicode="&#x106;" horiz-adv-x="601" 
d="M372 116q79 0 169 50l27 -127q-100 -53 -221 -53q-85 0 -147 32t-95 87t-47.5 116.5t-14.5 132.5q0 77 14 141.5t45.5 120t89.5 87t139 31.5q211 0 251 -198l-147 -36q-24 112 -104 112q-124 0 -124 -242q0 -127 39 -190.5t126 -63.5zM227 850l213 80l33 -105l-219 -59z
" />
    <glyph glyph-name="cacute" unicode="&#x107;" horiz-adv-x="472" 
d="M304 112q62 0 130 35l11 -123q-74 -36 -164 -36q-70 0 -120 24.5t-76.5 66.5t-38 88t-11.5 100q0 44 7 83t24 75.5t43 62.5t67.5 41.5t94.5 15.5q84 0 130.5 -42t60.5 -113l-125 -40q-9 37 -24 56t-46 19q-76 0 -76 -149q0 -164 113 -164zM198 585l-39 79l201 118l47 -99
z" />
    <glyph glyph-name="Ccircumflex" unicode="&#x108;" horiz-adv-x="601" 
d="M372 116q79 0 169 50l27 -127q-100 -53 -221 -53q-85 0 -147 32t-95 87t-47.5 116.5t-14.5 132.5q0 77 14 141.5t45.5 120t89.5 87t139 31.5q211 0 251 -198l-147 -36q-24 112 -104 112q-124 0 -124 -242q0 -127 39 -190.5t126 -63.5zM278 917h117l100 -109l-61 -50
l-100 69l-102 -69l-60 54z" />
    <glyph glyph-name="ccircumflex" unicode="&#x109;" horiz-adv-x="472" 
d="M304 112q62 0 130 35l11 -123q-74 -36 -164 -36q-70 0 -120 24.5t-76.5 66.5t-38 88t-11.5 100q0 44 7 83t24 75.5t43 62.5t67.5 41.5t94.5 15.5q84 0 130.5 -42t60.5 -113l-125 -40q-9 37 -24 56t-46 19q-76 0 -76 -149q0 -164 113 -164zM210 772h117l103 -128l-63 -60
l-102 94l-103 -94l-64 63z" />
    <glyph glyph-name="Cdotaccent" unicode="&#x10a;" horiz-adv-x="601" 
d="M372 116q79 0 169 50l27 -127q-100 -53 -221 -53q-85 0 -147 32t-95 87t-47.5 116.5t-14.5 132.5q0 77 14 141.5t45.5 120t89.5 87t139 31.5q211 0 251 -198l-147 -36q-24 112 -104 112q-124 0 -124 -242q0 -127 39 -190.5t126 -63.5zM246 871q0 41 24 64t63 23
q42 0 66 -22t24 -64q0 -41 -24.5 -64t-64.5 -23q-39 0 -63.5 23.5t-24.5 62.5z" />
    <glyph glyph-name="cdotaccent" unicode="&#x10b;" horiz-adv-x="472" 
d="M304 112q62 0 130 35l11 -123q-74 -36 -164 -36q-70 0 -120 24.5t-76.5 66.5t-38 88t-11.5 100q0 44 7 83t24 75.5t43 62.5t67.5 41.5t94.5 15.5q84 0 130.5 -42t60.5 -113l-125 -40q-9 37 -24 56t-46 19q-76 0 -76 -149q0 -164 113 -164zM176 676q0 41 24.5 64.5
t62.5 23.5q42 0 66 -22.5t24 -64.5q0 -41 -24.5 -64t-64.5 -23q-39 0 -63.5 23.5t-24.5 62.5z" />
    <glyph glyph-name="Ccaron" unicode="&#x10c;" horiz-adv-x="601" 
d="M372 116q79 0 169 50l27 -127q-100 -53 -221 -53q-85 0 -147 32t-95 87t-47.5 116.5t-14.5 132.5q0 77 14 141.5t45.5 120t89.5 87t139 31.5q211 0 251 -198l-147 -36q-24 112 -104 112q-124 0 -124 -242q0 -127 39 -190.5t126 -63.5zM394 766h-117l-99 109l61 50
l100 -69l101 69l61 -54z" />
    <glyph glyph-name="ccaron" unicode="&#x10d;" horiz-adv-x="472" 
d="M304 112q62 0 130 35l11 -123q-74 -36 -164 -36q-70 0 -120 24.5t-76.5 66.5t-38 88t-11.5 100q0 44 7 83t24 75.5t43 62.5t67.5 41.5t94.5 15.5q84 0 130.5 -42t60.5 -113l-125 -40q-9 37 -24 56t-46 19q-76 0 -76 -149q0 -164 113 -164zM327 584h-117l-105 128l65 60
l101 -94l104 94l63 -62z" />
    <glyph glyph-name="Dcaron" unicode="&#x10e;" horiz-adv-x="654" 
d="M74 0v719h240q139 0 218 -75.5t79 -253.5q0 -92 -17 -161.5t-45 -112.5t-70.5 -69.5t-88.5 -36.5t-104 -10h-212zM230 604v-490h63q79 0 116.5 59.5t37.5 200.5q0 125 -34 177.5t-107 52.5h-76zM349 766h-117l-99 109l61 50l100 -69l101 69l61 -54z" />
    <glyph glyph-name="dcaron" unicode="&#x10f;" horiz-adv-x="632" 
d="M343 517v202h152v-719h-135l-5 43q-48 -53 -126 -53q-88 0 -141 69.5t-53 205.5q0 75 21 136.5t69 102.5t117 41q59 0 101 -28zM344 135v273q-35 25 -66 25q-86 0 -86 -169q0 -157 84 -157q36 0 68 28zM557 719h115l-20 -213h-95v213z" />
    <glyph glyph-name="Dcroat" unicode="&#x110;" horiz-adv-x="675" 
d="M28 302v115h68v302h240q139 0 218 -75.5t79 -253.5q0 -92 -17.5 -161.5t-46.5 -112t-71 -69.5t-86.5 -37t-97.5 -10h-218v302h-68zM252 604v-187h102v-115h-102v-188h46q24 0 47 3q63 11 93.5 71.5t30.5 185.5t-34 177.5t-107 52.5h-76z" />
    <glyph glyph-name="dcroat" unicode="&#x111;" horiz-adv-x="555" 
d="M343 493v84h-179v96h179v46h152v-46h65v-96h-65v-577h-135l-5 43q-48 -53 -126 -53q-89 0 -141.5 66.5t-52.5 200.5q0 116 52 190t155 74q59 0 101 -28zM344 135v249q-35 25 -66 25q-86 0 -86 -153q0 -149 84 -149q36 0 68 28z" />
    <glyph glyph-name="Emacron" unicode="&#x112;" horiz-adv-x="563" 
d="M74 0v719h447v-120h-291v-172h253v-120h-253v-186h303v-121h-459zM140 791v105h317v-105h-317z" />
    <glyph glyph-name="emacron" unicode="&#x113;" horiz-adv-x="494" 
d="M464 240h-276q3 -64 34 -96t80 -32q71 0 144 41l7 -127q-72 -37 -166 -37q-252 0 -252 285q0 137 62.5 204t161.5 67q205 0 205 -252v-53zM323 329q0 108 -65 108q-34 0 -51.5 -29.5t-17.5 -78.5h134zM102 621v105h317v-105h-317z" />
    <glyph glyph-name="Ebreve" unicode="&#x114;" horiz-adv-x="563" 
d="M74 0v719h447v-120h-291v-172h253v-120h-253v-186h303v-121h-459zM391 954l84 -41q-58 -133 -181 -133q-125 0 -175 130l86 43q19 -39 39 -59t54 -20q32 0 53 20t40 60z" />
    <glyph glyph-name="ebreve" unicode="&#x115;" horiz-adv-x="494" 
d="M464 240h-276q3 -64 34 -96t80 -32q71 0 144 41l7 -127q-72 -37 -166 -37q-252 0 -252 285q0 137 62.5 204t161.5 67q205 0 205 -252v-53zM323 329q0 108 -65 108q-34 0 -51.5 -29.5t-17.5 -78.5h134zM359 758l83 -41q-55 -133 -180 -133q-124 0 -175 130l85 44
q20 -40 40 -60t54 -20q33 0 53.5 19.5t39.5 60.5z" />
    <glyph glyph-name="Edotaccent" unicode="&#x116;" horiz-adv-x="563" 
d="M74 0v719h447v-120h-291v-172h253v-120h-253v-186h303v-121h-459zM218 871q0 41 24 64t63 23q42 0 66 -22t24 -64q0 -41 -24.5 -64t-64.5 -23q-39 0 -63.5 23.5t-24.5 62.5z" />
    <glyph glyph-name="edotaccent" unicode="&#x117;" horiz-adv-x="494" 
d="M464 240h-276q3 -64 34 -96t80 -32q71 0 144 41l7 -127q-72 -37 -166 -37q-252 0 -252 285q0 137 62.5 204t161.5 67q205 0 205 -252v-53zM323 329q0 108 -65 108q-34 0 -51.5 -29.5t-17.5 -78.5h134zM175 676q0 41 24.5 64.5t62.5 23.5q42 0 66 -22.5t24 -64.5
q0 -41 -24.5 -64t-64.5 -23q-39 0 -63.5 23.5t-24.5 62.5z" />
    <glyph glyph-name="Eogonek" unicode="&#x118;" horiz-adv-x="565" 
d="M75 0v719h447v-120h-291v-172h253v-120h-253v-186h303v-121q-39 -15 -66.5 -46t-27.5 -62q0 -32 34 -32q23 0 57 14l8 -87q-37 -17 -89 -17q-59 0 -88 27t-29 68q0 79 73 135h-331z" />
    <glyph glyph-name="eogonek" unicode="&#x119;" horiz-adv-x="494" 
d="M464 240h-276q3 -64 34 -96t80 -32q71 0 144 41l7 -127q-16 -8 -36 -23q-30 -21 -53.5 -53t-23.5 -58q0 -32 36 -32q23 0 57 14l7 -87q-37 -17 -89 -17q-58 0 -85.5 26.5t-27.5 68.5q0 68 64 125q-6 -1 -15 -1q-252 0 -252 285q0 137 62.5 204t161.5 67q205 0 205 -252
v-53zM323 329q0 108 -65 108q-34 0 -51.5 -29.5t-17.5 -78.5h134z" />
    <glyph glyph-name="Ecaron" unicode="&#x11a;" horiz-adv-x="563" 
d="M74 0v719h447v-120h-291v-172h253v-120h-253v-186h303v-121h-459zM359 766h-117l-99 109l61 50l100 -69l101 69l61 -54z" />
    <glyph glyph-name="ecaron" unicode="&#x11b;" horiz-adv-x="494" 
d="M464 240h-276q3 -64 34 -96t80 -32q71 0 144 41l7 -127q-72 -37 -166 -37q-252 0 -252 285q0 137 62.5 204t161.5 67q205 0 205 -252v-53zM323 329q0 108 -65 108q-34 0 -51.5 -29.5t-17.5 -78.5h134zM326 584h-117l-105 128l65 60l101 -94l104 94l63 -62z" />
    <glyph glyph-name="Gcircumflex" unicode="&#x11c;" horiz-adv-x="646" 
d="M331 259v114h263v-335q-107 -52 -233 -52q-164 0 -241 92.5t-77 293.5q0 165 72.5 263.5t221.5 98.5q112 0 169.5 -51.5t77.5 -146.5l-144 -35q-15 57 -39 84t-68 27q-127 0 -127 -237q0 -63 6.5 -108.5t23 -83.5t48.5 -57.5t79 -19.5q42 0 79 13v140h-111zM274 917h117
l100 -109l-61 -50l-100 69l-102 -69l-60 54z" />
    <glyph glyph-name="gcircumflex" unicode="&#x11d;" horiz-adv-x="555" 
d="M355 502q-49 43 -119 43q-98 0 -149.5 -82t-51.5 -198q0 -135 52 -202.5t141 -67.5q80 0 119 47v-35q0 -110 -94 -110q-85 0 -156 42l-22 -127q84 -39 197 -39q62 0 107 18.5t69.5 51.5t35.5 72.5t11 88.5v532h-133zM343 405v-265q-32 -28 -68 -28q-83 0 -83 152
q0 96 22.5 131.5t61.5 35.5q31 0 67 -26zM235 772h117l103 -128l-63 -60l-102 94l-103 -94l-64 63z" />
    <glyph glyph-name="Gbreve" unicode="&#x11e;" horiz-adv-x="646" 
d="M331 259v114h263v-335q-107 -52 -233 -52q-164 0 -241 92.5t-77 293.5q0 165 72.5 263.5t221.5 98.5q112 0 169.5 -51.5t77.5 -146.5l-144 -35q-15 57 -39 84t-68 27q-127 0 -127 -237q0 -63 6.5 -108.5t23 -83.5t48.5 -57.5t79 -19.5q42 0 79 13v140h-111zM434 954
l84 -41q-58 -133 -181 -133q-125 0 -175 130l86 43q19 -39 39 -59t54 -20q32 0 53 20t40 60z" />
    <glyph glyph-name="gbreve" unicode="&#x11f;" horiz-adv-x="555" 
d="M355 502q-49 43 -119 43q-98 0 -149.5 -82t-51.5 -198q0 -135 52 -202.5t141 -67.5q80 0 119 47v-35q0 -110 -94 -110q-85 0 -156 42l-22 -127q84 -39 197 -39q62 0 107 18.5t69.5 51.5t35.5 72.5t11 88.5v532h-133zM343 405v-265q-32 -28 -68 -28q-83 0 -83 152
q0 96 22.5 131.5t61.5 35.5q31 0 67 -26zM388 758l83 -41q-55 -133 -180 -133q-124 0 -175 130l85 44q20 -40 40 -60t54 -20q33 0 53.5 19.5t39.5 60.5z" />
    <glyph glyph-name="Gdotaccent" unicode="&#x120;" horiz-adv-x="646" 
d="M331 259v114h263v-335q-107 -52 -233 -52q-164 0 -241 92.5t-77 293.5q0 165 72.5 263.5t221.5 98.5q112 0 169.5 -51.5t77.5 -146.5l-144 -35q-15 57 -39 84t-68 27q-127 0 -127 -237q0 -63 6.5 -108.5t23 -83.5t48.5 -57.5t79 -19.5q42 0 79 13v140h-111zM254 871
q0 41 24 64t63 23q42 0 66 -22t24 -64q0 -41 -24.5 -64t-64.5 -23q-39 0 -63.5 23.5t-24.5 62.5z" />
    <glyph glyph-name="gdotaccent" unicode="&#x121;" horiz-adv-x="555" 
d="M355 502q-49 43 -119 43q-98 0 -149.5 -82t-51.5 -198q0 -135 52 -202.5t141 -67.5q80 0 119 47v-35q0 -110 -94 -110q-85 0 -156 42l-22 -127q84 -39 197 -39q62 0 107 18.5t69.5 51.5t35.5 72.5t11 88.5v532h-133zM343 405v-265q-32 -28 -68 -28q-83 0 -83 152
q0 96 22.5 131.5t61.5 35.5q31 0 67 -26zM203 676q0 41 24.5 64.5t62.5 23.5q42 0 66 -22.5t24 -64.5q0 -41 -24.5 -64t-64.5 -23q-39 0 -63.5 23.5t-24.5 62.5z" />
    <glyph glyph-name="Gcommaaccent" unicode="&#x122;" horiz-adv-x="646" 
d="M331 259v114h263v-335q-107 -52 -233 -52q-164 0 -241 92.5t-77 293.5q0 165 72.5 263.5t221.5 98.5q112 0 169.5 -51.5t77.5 -146.5l-144 -35q-15 57 -39 84t-68 27q-127 0 -127 -237q0 -63 6.5 -108.5t23 -83.5t48.5 -57.5t79 -19.5q42 0 79 13v140h-111zM254 -242
l84 -19l66 178l-108 28z" />
    <glyph glyph-name="gcommaaccent" unicode="&#x123;" horiz-adv-x="555" 
d="M355 502l7 34h133v-532q0 -49 -11 -88.5t-35.5 -72.5t-69.5 -51.5t-107 -18.5q-113 0 -197 39l22 127q71 -42 156 -42q94 0 94 110v35q-39 -47 -119 -47q-89 0 -141 67.5t-52 202.5q0 116 51.5 198t149.5 82q70 0 119 -43zM343 140v265q-36 26 -67 26q-39 0 -61.5 -35.5
t-22.5 -131.5q0 -152 83 -152q36 0 68 28zM290 791l84 -19l-42 -187l-108 28z" />
    <glyph glyph-name="Hcircumflex" unicode="&#x124;" horiz-adv-x="702" 
d="M472 719h156v-719h-156v304h-242v-304h-156v719h156v-290h242v290zM304 917h117l100 -109l-61 -50l-100 69l-102 -69l-60 54z" />
    <glyph glyph-name="hcircumflex" unicode="&#x125;" horiz-adv-x="566" 
d="M356 545q128 0 146 -115q4 -25 4 -67v-363h-152v344q0 26 -1 34q-5 42 -53 42q-43 0 -87 -36v-384h-153v719h153v-222q63 48 143 48zM157 917h117l100 -109l-61 -50l-100 69l-102 -69l-60 54z" />
    <glyph glyph-name="Hbar" unicode="&#x126;" horiz-adv-x="702" 
d="M472 719h156v-104h70v-96h-70v-519h-156v304h-242v-304h-156v519h-70v96h70v104h156v-104h242v104zM230 429h242v90h-242v-90z" />
    <glyph glyph-name="hbar" unicode="&#x127;" horiz-adv-x="566" 
d="M-9 577v96h69v46h153v-46h208v-96h-208v-109q65 49 143 49q132 0 147 -125q3 -23 3 -75v-317h-152v315q0 26 -1 34q-5 42 -53 42q-42 0 -87 -35v-356h-153v577h-69z" />
    <glyph glyph-name="Itilde" unicode="&#x128;" horiz-adv-x="304" 
d="M74 719h156v-719h-156v719zM21 781l-17 96q14 13 42 24t53 11q22 0 63 -14t64 -14q34 0 65 19l9 -101q-30 -17 -72 -17q-24 0 -66.5 11.5t-58.5 11.5q-42 0 -82 -27z" />
    <glyph glyph-name="itilde" unicode="&#x129;" horiz-adv-x="272" 
d="M60 536h152v-536h-152v536zM4 609l-18 96q14 13 42 24t53 11q22 0 63 -14t64 -14q35 0 65 20l9 -102q-30 -17 -72 -17q-24 0 -66.5 11.5t-58.5 11.5q-41 0 -81 -27z" />
    <glyph glyph-name="Imacron" unicode="&#x12a;" horiz-adv-x="304" 
d="M74 719h156v-719h-156v719zM-6 791v105h317v-105h-317z" />
    <glyph glyph-name="imacron" unicode="&#x12b;" horiz-adv-x="272" 
d="M60 536h152v-536h-152v536zM-19 621v105h317v-105h-317z" />
    <glyph glyph-name="Ibreve" unicode="&#x12c;" horiz-adv-x="304" 
d="M74 719h156v-719h-156v719zM246 954l84 -41q-58 -133 -181 -133q-125 0 -175 130l86 43q19 -39 39 -59t54 -20q32 0 53 20t40 60z" />
    <glyph glyph-name="ibreve" unicode="&#x12d;" horiz-adv-x="272" 
d="M60 536h152v-536h-152v536zM230 758l83 -41q-55 -133 -180 -133q-124 0 -175 130l85 44q20 -40 40 -60t54 -20q33 0 53.5 19.5t39.5 60.5z" />
    <glyph glyph-name="Iogonek" unicode="&#x12e;" horiz-adv-x="306" 
d="M76 719h156v-719q-32 -23 -53.5 -52.5t-21.5 -55.5q0 -32 36 -32q23 0 57 14l8 -87q-37 -17 -90 -17q-116 0 -116 96q0 30 12.5 57.5t24.5 42t33 34.5h-46v719z" />
    <glyph glyph-name="iogonek" unicode="&#x12f;" horiz-adv-x="272" 
d="M103 0h-43v535h152v-535q-30 -23 -51.5 -52.5t-21.5 -54.5q0 -33 36 -33q21 0 57 15l8 -88q-37 -17 -89 -17q-60 0 -88.5 27t-28.5 69q0 30 12 57t23.5 40.5t33.5 36.5zM48 676q0 41 24 63t61 22q41 0 64 -22t23 -63t-24 -62.5t-63 -21.5q-38 0 -61.5 22.5t-23.5 61.5z
" />
    <glyph glyph-name="Idotaccent" unicode="&#x130;" horiz-adv-x="304" 
d="M74 719h156v-719h-156v719zM63 870q0 41 24 64t63 23q42 0 66 -22t24 -64q0 -41 -24.5 -64t-64.5 -23q-39 0 -63.5 23.5t-24.5 62.5z" />
    <glyph glyph-name="dotlessi" unicode="&#x131;" horiz-adv-x="272" 
d="M60 536h152v-536h-152v536z" />
    <glyph glyph-name="IJ" unicode="&#x132;" horiz-adv-x="743" 
d="M75 719h156v-719h-156v719zM316 23l39 123q55 -24 99 -24q40 0 52 22.5t12 71.5v503h157v-506q0 -64 -7 -92q-15 -67 -64.5 -100.5t-123.5 -33.5q-98 0 -164 36z" />
    <glyph glyph-name="ij" unicode="&#x133;" horiz-adv-x="547" 
d="M60 536h152v-536h-152v536zM50 676q0 41 24 63t61 22q41 0 64 -22t23 -63t-24 -62.5t-63 -21.5q-38 0 -61.5 22.5t-23.5 61.5zM488 536v-580q0 -86 -43.5 -134.5t-133.5 -48.5q-79 0 -136 27l22 124q51 -24 90 -24q25 0 36.5 14.5t11.5 52.5v569h153zM325 676q0 41 24 63
t61 22q41 0 64 -22t23 -63t-24 -62.5t-63 -21.5q-38 0 -61.5 22.5t-23.5 61.5z" />
    <glyph glyph-name="Jcircumflex" unicode="&#x134;" horiz-adv-x="438" 
d="M11 23l39 123q55 -24 99 -24q40 0 52 22.5t12 71.5v503h157v-506q0 -64 -7 -92q-15 -67 -64.5 -100.5t-123.5 -33.5q-98 0 -164 36zM234 917h117l100 -109l-61 -50l-100 69l-102 -69l-60 54z" />
    <glyph glyph-name="jcircumflex" unicode="&#x135;" horiz-adv-x="273" 
d="M84 772h117l103 -128l-63 -60l-102 94l-103 -94l-64 63zM213 536v-580q0 -86 -43.5 -134.5t-133.5 -48.5q-79 0 -136 27l22 124q51 -24 90 -24q25 0 36.5 14.5t11.5 52.5v569h153z" />
    <glyph glyph-name="Kcommaaccent" unicode="&#x136;" horiz-adv-x="620" 
d="M600 719l-188 -339l213 -380h-172l-167 303h-59v-303h-153v719h153v-295h56l155 295h162zM239 -242l84 -19l66 178l-108 28z" />
    <glyph glyph-name="kcommaaccent" unicode="&#x137;" horiz-adv-x="561" 
d="M374 537l158 -17l-142 -210l171 -310h-171l-128 233h-49v-233h-153v719h153v-358h47zM209 -242l84 -19l66 178l-108 28z" />
    <glyph glyph-name="kgreenlandic" unicode="&#x138;" horiz-adv-x="569" 
d="M377 537l159 -17l-146 -235l171 -285h-173l-118 207h-57v-207h-153v536h153v-201h51z" />
    <glyph glyph-name="Lacute" unicode="&#x139;" horiz-adv-x="547" 
d="M76 0v719h156v-598h293v-121h-449zM47 850l213 80l33 -105l-219 -59z" />
    <glyph glyph-name="lacute" unicode="&#x13a;" horiz-adv-x="343" 
d="M56 151v568h152v-546q0 -59 44 -59q26 0 63 17l18 -115q-57 -27 -126 -27q-84 0 -117.5 41.5t-33.5 120.5zM27 850l213 80l33 -105l-219 -59z" />
    <glyph glyph-name="Lcommaaccent" unicode="&#x13b;" horiz-adv-x="547" 
d="M76 0v719h156v-598h293v-121h-449zM205 -242l84 -19l66 178l-108 28z" />
    <glyph glyph-name="lcommaaccent" unicode="&#x13c;" horiz-adv-x="343" 
d="M56 151v568h152v-546q0 -59 44 -59q26 0 63 17l18 -115q-57 -27 -126 -27q-84 0 -117.5 41.5t-33.5 120.5zM180 -261l-84 19l42 187l108 -28z" />
    <glyph glyph-name="Lcaron" unicode="&#x13d;" horiz-adv-x="547" 
d="M76 0v719h156v-598h293v-121h-449zM459 719h-115v-213h95z" />
    <glyph glyph-name="lcaron" unicode="&#x13e;" horiz-adv-x="381" 
d="M56 151v568h152v-546q0 -59 44 -59q26 0 63 17l18 -115q-57 -27 -126 -27q-84 0 -117.5 41.5t-33.5 120.5zM274 719h115l-20 -213h-95v213z" />
    <glyph glyph-name="Ldot" unicode="&#x13f;" horiz-adv-x="547" 
d="M76 0v719h156v-598h293v-121h-449zM340 389q0 41 24 64t63 23q42 0 66 -22t24 -64q0 -41 -24.5 -64t-64.5 -23q-39 0 -63.5 23.5t-24.5 62.5z" />
    <glyph glyph-name="ldot" unicode="&#x140;" horiz-adv-x="450" 
d="M56 151v568h152v-546q0 -59 44 -59q26 0 63 17l18 -115q-57 -27 -126 -27q-84 0 -117.5 41.5t-33.5 120.5zM273 384q0 41 24.5 64.5t62.5 23.5q42 0 66 -22.5t24 -64.5q0 -41 -24.5 -64t-64.5 -23q-39 0 -63.5 23.5t-24.5 62.5z" />
    <glyph glyph-name="Lslash" unicode="&#x141;" horiz-adv-x="547" 
d="M-5 235l-39 111l120 52v321h156v-270l170 76l42 -109l-212 -91v-204h293v-121h-449v270z" />
    <glyph glyph-name="lslash" unicode="&#x142;" horiz-adv-x="387" 
d="M-14 342l107 62v315h153v-245l78 47l47 -105l-125 -71v-172q0 -58 43 -58q28 0 63 17l18 -115q-58 -27 -125 -27q-74 0 -109 32.5t-41 94.5q-2 30 -2 48v111l-58 -35z" />
    <glyph glyph-name="Nacute" unicode="&#x143;" horiz-adv-x="694" 
d="M467 719h153v-719h-136l-185 328q-46 81 -78 154l-1 -1q7 -91 7 -164v-317h-153v719h145l179 -333q54 -99 76 -148h1l1 1q-9 94 -9 157v323zM252 850l213 80l33 -105l-219 -59z" />
    <glyph glyph-name="nacute" unicode="&#x144;" horiz-adv-x="566" 
d="M195 536l6 -47q69 56 152 56q131 0 149 -115q4 -25 4 -67v-363h-152v344q0 26 -1 34q-4 42 -53 42q-43 0 -87 -36v-384h-153v536h135zM235 585l-39 79l201 118l47 -99z" />
    <glyph glyph-name="Ncommaaccent" unicode="&#x145;" horiz-adv-x="694" 
d="M467 719h153v-719h-136l-185 328q-46 81 -78 154l-1 -1q7 -91 7 -164v-317h-153v719h145l179 -333q54 -99 76 -148h1l1 1q-9 94 -9 157v323zM270 -242l84 -19l66 178l-108 28z" />
    <glyph glyph-name="ncommaaccent" unicode="&#x146;" horiz-adv-x="566" 
d="M195 536l6 -47q69 56 152 56q131 0 149 -115q4 -25 4 -67v-363h-152v344q0 26 -1 34q-4 42 -53 42q-43 0 -87 -36v-384h-153v536h135zM207 -242l84 -19l66 178l-108 28z" />
    <glyph glyph-name="Ncaron" unicode="&#x147;" horiz-adv-x="694" 
d="M467 719h153v-719h-136l-185 328q-46 81 -78 154l-1 -1q7 -91 7 -164v-317h-153v719h145l179 -333q54 -99 76 -148h1l1 1q-9 94 -9 157v323zM414 766h-117l-99 109l61 50l100 -69l101 69l61 -54z" />
    <glyph glyph-name="ncaron" unicode="&#x148;" horiz-adv-x="566" 
d="M195 536l6 -47q69 56 152 56q131 0 149 -115q4 -25 4 -67v-363h-152v344q0 26 -1 34q-4 42 -53 42q-43 0 -87 -36v-384h-153v536h135zM355 584h-117l-105 128l65 60l101 -94l104 94l63 -62z" />
    <glyph glyph-name="napostrophe" unicode="&#x149;" horiz-adv-x="566" 
d="M195 536l6 -47q69 56 152 56q131 0 149 -115q4 -25 4 -67v-363h-152v344q0 26 -1 34q-4 42 -53 42q-43 0 -87 -36v-384h-153v536h135zM43 598l21 189q7 59 57 59q29 0 46.5 -15t17.5 -41q0 -17 -7 -34l-69 -174z" />
    <glyph glyph-name="Eng" unicode="&#x14a;" horiz-adv-x="697" 
d="M469 719h153v-764q0 -85 -43.5 -133.5t-133.5 -48.5q-79 0 -136 27l22 124q51 -24 92 -24q62 0 62 67v33l-181 323q-62 109 -81 159q-1 0 -1 -0.5t-1 -0.5q8 -93 8 -181v-300h-154v719h146l176 -328q68 -129 79 -153l1 1q-8 93 -8 173v307z" />
    <glyph glyph-name="eng" unicode="&#x14b;" horiz-adv-x="566" 
d="M201 489q69 56 152 56q131 0 149 -115q4 -25 4 -67v-392q0 -29 -3 -55q-21 -141 -172 -141q-83 0 -138 25l22 124q49 -23 87 -23q27 0 39.5 14t12.5 52v377q0 26 -1 34q-5 42 -53 42q-43 0 -87 -36v-384h-153v536h135z" />
    <glyph glyph-name="Omacron" unicode="&#x14c;" horiz-adv-x="681" 
d="M337 -14q-294 0 -294 384q0 174 82 269t223 95q290 0 290 -359q0 -389 -301 -389zM474 374q0 129 -34 181t-96 52q-137 0 -137 -238q0 -259 132 -259q31 0 53.5 11.5t42 39.5t29.5 81.5t10 131.5zM189 791v105h317v-105h-317z" />
    <glyph glyph-name="omacron" unicode="&#x14d;" horiz-adv-x="540" 
d="M265 -13q-63 0 -109.5 23.5t-72 64.5t-37 88t-11.5 102q0 124 61.5 202t179.5 78q229 0 229 -271q0 -58 -13 -107.5t-40.5 -90.5t-75 -65t-111.5 -24zM269 106q79 0 79 163q0 75 -15.5 116.5t-59.5 41.5q-82 0 -82 -162q0 -78 17.5 -118.5t60.5 -40.5zM118 621v105h317
v-105h-317z" />
    <glyph glyph-name="Obreve" unicode="&#x14e;" horiz-adv-x="681" 
d="M337 -14q-294 0 -294 384q0 174 82 269t223 95q290 0 290 -359q0 -389 -301 -389zM474 374q0 129 -34 181t-96 52q-137 0 -137 -238q0 -259 132 -259q31 0 53.5 11.5t42 39.5t29.5 81.5t10 131.5zM438 954l84 -41q-58 -133 -181 -133q-125 0 -175 130l86 43
q19 -39 39 -59t54 -20q32 0 53 20t40 60z" />
    <glyph glyph-name="obreve" unicode="&#x14f;" horiz-adv-x="540" 
d="M265 -13q-63 0 -109.5 23.5t-72 64.5t-37 88t-11.5 102q0 124 61.5 202t179.5 78q229 0 229 -271q0 -58 -13 -107.5t-40.5 -90.5t-75 -65t-111.5 -24zM269 106q79 0 79 163q0 75 -15.5 116.5t-59.5 41.5q-82 0 -82 -162q0 -78 17.5 -118.5t60.5 -40.5zM376 758l83 -41
q-55 -133 -180 -133q-124 0 -175 130l85 44q20 -40 40 -60t54 -20q33 0 53.5 19.5t39.5 60.5z" />
    <glyph glyph-name="Ohungarumlaut" unicode="&#x150;" horiz-adv-x="681" 
d="M337 -14q-294 0 -294 384q0 174 82 269t223 95q290 0 290 -359q0 -389 -301 -389zM474 374q0 129 -34 181t-96 52q-137 0 -137 -238q0 -259 132 -259q31 0 53.5 11.5t42 39.5t29.5 81.5t10 131.5zM383 828l163 162l75 -80l-180 -144zM168 828l163 162l75 -80l-179 -144z
" />
    <glyph glyph-name="ohungarumlaut" unicode="&#x151;" horiz-adv-x="540" 
d="M265 -13q-63 0 -109.5 23.5t-72 64.5t-37 88t-11.5 102q0 124 61.5 202t179.5 78q229 0 229 -271q0 -58 -13 -107.5t-40.5 -90.5t-75 -65t-111.5 -24zM269 106q79 0 79 163q0 75 -15.5 116.5t-59.5 41.5q-82 0 -82 -162q0 -78 17.5 -118.5t60.5 -40.5zM329 645l163 162
l75 -80l-180 -143zM114 645l163 162l75 -80l-179 -143z" />
    <glyph glyph-name="OE" unicode="&#x152;" horiz-adv-x="922" 
d="M330 -10q-64 0 -113.5 18.5t-89 60.5t-60.5 118t-21 183q0 175 76.5 267.5t214.5 92.5q50 0 87 -10h456v-120h-310q37 -62 43 -173h229v-119h-231q-6 -114 -48 -188h328v-120h-473q-39 -10 -88 -10zM457 374q0 130 -30.5 182t-90.5 52t-93 -54t-33 -184q0 -138 30.5 -199
t91.5 -61q30 0 51 11.5t38.5 39.5t26.5 81.5t9 131.5z" />
    <glyph glyph-name="oe" unicode="&#x153;" horiz-adv-x="808" 
d="M421 74q-54 -84 -168 -84q-60 0 -104 24t-68 65t-35 88t-11 100q0 122 59.5 200t171.5 78q104 0 155 -75q56 75 155 75q198 0 198 -253v-53h-277q4 -64 34.5 -95t79.5 -31q70 0 144 40l8 -126q-70 -38 -161 -38q-127 0 -181 85zM269 109q79 0 79 164q0 72 -15.5 113
t-59.5 41q-82 0 -82 -162q0 -78 17.5 -117t60.5 -39zM633 329q0 108 -65 108q-34 0 -52 -29.5t-18 -78.5h135z" />
    <glyph glyph-name="Racute" unicode="&#x154;" horiz-adv-x="624" 
d="M466 321l143 -321h-164l-122 287h-94v-287h-155v719h251q121 0 189 -48.5t68 -148.5q0 -139 -116 -201zM229 404h94q45 0 74 26.5t29 74.5q0 57 -26 78t-84 21h-87v-200zM199 850l213 80l33 -105l-219 -59z" />
    <glyph glyph-name="racute" unicode="&#x155;" horiz-adv-x="390" 
d="M317 545q39 0 71 -30l-33 -130q-26 20 -59 20q-44 0 -83 -35v-370h-153v536h134l8 -55q51 64 115 64zM163 585l-39 79l201 118l47 -99z" />
    <glyph glyph-name="Rcommaaccent" unicode="&#x156;" horiz-adv-x="624" 
d="M466 321l143 -321h-164l-122 287h-94v-287h-155v719h251q121 0 189 -48.5t68 -148.5q0 -139 -116 -201zM229 404h94q45 0 74 26.5t29 74.5q0 57 -26 78t-84 21h-87v-200zM240 -242l84 -19l66 178l-108 28z" />
    <glyph glyph-name="rcommaaccent" unicode="&#x157;" horiz-adv-x="390" 
d="M317 545q39 0 71 -30l-33 -130q-26 20 -59 20q-44 0 -83 -35v-370h-153v536h134l8 -55q51 64 115 64zM36 -242l84 -19l66 178l-108 28z" />
    <glyph glyph-name="Rcaron" unicode="&#x158;" horiz-adv-x="624" 
d="M466 321l143 -321h-164l-122 287h-94v-287h-155v719h251q121 0 189 -48.5t68 -148.5q0 -139 -116 -201zM229 404h94q45 0 74 26.5t29 74.5q0 57 -26 78t-84 21h-87v-200zM348 766h-117l-99 109l61 50l100 -69l101 69l61 -54z" />
    <glyph glyph-name="rcaron" unicode="&#x159;" horiz-adv-x="390" 
d="M317 545q39 0 71 -30l-33 -130q-26 20 -59 20q-44 0 -83 -35v-370h-153v536h134l8 -55q51 64 115 64zM286 584h-117l-105 128l65 60l101 -94l104 94l63 -62z" />
    <glyph glyph-name="Sacute" unicode="&#x15a;" horiz-adv-x="542" 
d="M24 47l48 134q101 -64 184 -64q44 0 70.5 20t26.5 61q-1 45 -30 67t-98 41q-33 9 -55 16.5t-51 24.5t-46 37t-29.5 54t-12.5 77q0 97 67 158t175 61q192 0 244 -177l-142 -41q-27 93 -104 93q-37 0 -59.5 -19t-22.5 -56q0 -40 30.5 -61t95.5 -39q94 -27 145 -78t51 -139
q0 -108 -72 -169.5t-184 -61.5q-133 0 -231 61zM156 850l213 80l33 -105l-219 -59z" />
    <glyph glyph-name="sacute" unicode="&#x15b;" horiz-adv-x="461" 
d="M26 40l39 120q78 -56 156 -56q63 0 63 45q0 16 -7 27.5t-24.5 20t-30 12t-41.5 11.5q-69 18 -107.5 52t-38.5 106q0 77 55.5 122t142.5 45q90 0 138 -36t64 -87l-114 -44q-27 58 -86 58q-25 0 -39.5 -11.5t-14.5 -32.5q0 -17 14 -30t31 -20t48 -15q28 -8 47 -14.5t42 -20
t36.5 -29.5t23 -42t9.5 -59q0 -82 -59 -128t-152 -46q-57 0 -112.5 16.5t-82.5 35.5zM188 585l-39 79l201 118l47 -99z" />
    <glyph glyph-name="Scircumflex" unicode="&#x15c;" horiz-adv-x="542" 
d="M24 47l48 134q101 -64 184 -64q44 0 70.5 20t26.5 61q-1 45 -30 67t-98 41q-33 9 -55 16.5t-51 24.5t-46 37t-29.5 54t-12.5 77q0 97 67 158t175 61q192 0 244 -177l-142 -41q-27 93 -104 93q-37 0 -59.5 -19t-22.5 -56q0 -40 30.5 -61t95.5 -39q94 -27 145 -78t51 -139
q0 -108 -72 -169.5t-184 -61.5q-133 0 -231 61zM226 917h117l100 -109l-61 -50l-100 69l-102 -69l-60 54z" />
    <glyph glyph-name="scircumflex" unicode="&#x15d;" horiz-adv-x="461" 
d="M26 40l39 120q78 -56 156 -56q63 0 63 45q0 16 -7 27.5t-24.5 20t-30 12t-41.5 11.5q-69 18 -107.5 52t-38.5 106q0 77 55.5 122t142.5 45q90 0 138 -36t64 -87l-114 -44q-27 58 -86 58q-25 0 -39.5 -11.5t-14.5 -32.5q0 -17 14 -30t31 -20t48 -15q28 -8 47 -14.5t42 -20
t36.5 -29.5t23 -42t9.5 -59q0 -82 -59 -128t-152 -46q-57 0 -112.5 16.5t-82.5 35.5zM184 772h117l103 -128l-63 -60l-102 94l-103 -94l-64 63z" />
    <glyph glyph-name="Scedilla" unicode="&#x15e;" horiz-adv-x="542" 
d="M24 47l48 134q101 -64 184 -64q44 0 70.5 20t26.5 61q-1 45 -30 67t-98 41q-33 9 -55 16.5t-51 24.5t-46 37t-29.5 54t-12.5 77q0 97 67 158t175 61q192 0 244 -177l-142 -41q-27 93 -104 93q-37 0 -59.5 -19t-22.5 -56q0 -40 30.5 -61t95.5 -39q94 -27 145 -78t51 -139
q0 -108 -72 -169.5t-184 -61.5q-133 0 -231 61zM193 -122v66q35 9 73 9q49 0 76 -26.5t27 -65.5q0 -64 -42.5 -94.5t-100.5 -30.5q-28 0 -61 9l12 68q22 -7 46 -7q53 0 53 45q0 33 -39 33q-15 0 -44 -6z" />
    <glyph glyph-name="scedilla" unicode="&#x15f;" horiz-adv-x="461" 
d="M26 40l39 120q78 -56 156 -56q63 0 63 45q0 16 -7 27.5t-24.5 20t-30 12t-41.5 11.5q-69 18 -107.5 52t-38.5 106q0 77 55.5 122t142.5 45q90 0 138 -36t64 -87l-114 -44q-27 58 -86 58q-25 0 -39.5 -11.5t-14.5 -32.5q0 -17 14 -30t31 -20t48 -15q28 -8 47 -14.5t42 -20
t36.5 -29.5t23 -42t9.5 -59q0 -82 -59 -128t-152 -46q-57 0 -112.5 16.5t-82.5 35.5zM151 -122v66q35 9 73 9q49 0 76 -26.5t27 -65.5q0 -64 -42.5 -94.5t-100.5 -30.5q-28 0 -61 9l12 68q22 -7 46 -7q53 0 53 45q0 33 -39 33q-15 0 -44 -6z" />
    <glyph glyph-name="Scaron" unicode="&#x160;" horiz-adv-x="542" 
d="M24 47l48 134q101 -64 184 -64q44 0 70.5 20t26.5 61q-1 45 -30 67t-98 41q-33 9 -55 16.5t-51 24.5t-46 37t-29.5 54t-12.5 77q0 97 67 158t175 61q192 0 244 -177l-142 -41q-27 93 -104 93q-37 0 -59.5 -19t-22.5 -56q0 -40 30.5 -61t95.5 -39q94 -27 145 -78t51 -139
q0 -108 -72 -169.5t-184 -61.5q-133 0 -231 61zM338 766h-117l-99 109l61 50l100 -69l101 69l61 -54z" />
    <glyph glyph-name="scaron" unicode="&#x161;" horiz-adv-x="461" 
d="M26 40l39 120q78 -56 156 -56q63 0 63 45q0 16 -7 27.5t-24.5 20t-30 12t-41.5 11.5q-69 18 -107.5 52t-38.5 106q0 77 55.5 122t142.5 45q90 0 138 -36t64 -87l-114 -44q-27 58 -86 58q-25 0 -39.5 -11.5t-14.5 -32.5q0 -17 14 -30t31 -20t48 -15q28 -8 47 -14.5t42 -20
t36.5 -29.5t23 -42t9.5 -59q0 -82 -59 -128t-152 -46q-57 0 -112.5 16.5t-82.5 35.5zM299 584h-117l-105 128l65 60l101 -94l104 94l63 -62z" />
    <glyph glyph-name="Tcommaaccent" unicode="&#x162;" horiz-adv-x="580" 
d="M10 599v120h560v-120h-202v-599h-156v599h-202zM201 -242l84 -19l66 178l-108 28z" />
    <glyph glyph-name="tcommaaccent" unicode="&#x163;" horiz-adv-x="368" 
d="M337 429h-113v-248q0 -67 47 -67q27 0 64 17l18 -115q-56 -27 -130 -27q-152 0 -152 154v286h-69v107h69v90l153 71v-161h113v-107zM114 -242l84 -19l66 178l-108 28z" />
    <glyph glyph-name="Tcaron" unicode="&#x164;" horiz-adv-x="580" 
d="M10 599v120h560v-120h-202v-599h-156v599h-202zM349 766h-117l-99 109l61 50l100 -69l101 69l61 -54z" />
    <glyph glyph-name="tcaron" unicode="&#x165;" horiz-adv-x="368" 
d="M337 429h-113v-248q0 -67 47 -67q27 0 64 17l18 -115q-56 -27 -130 -27q-152 0 -152 154v286h-69v107h69v90l153 71v-161h113v-107zM288 819h115l-20 -213h-95v213z" />
    <glyph glyph-name="Tbar" unicode="&#x166;" horiz-adv-x="592" 
d="M16 599v120h560v-120h-202v-214h141v-109h-141v-276h-156v276h-136v109h136v214h-202z" />
    <glyph glyph-name="tbar" unicode="&#x167;" horiz-adv-x="367" 
d="M337 429h-114v-91h114v-107h-114v-61q0 -56 47 -56q27 0 64 17l18 -115q-54 -27 -129 -27q-139 0 -151 130q-1 11 -1 35v77h-70v107h70v91h-70v107h70v90l152 71v-161h114v-107z" />
    <glyph glyph-name="Utilde" unicode="&#x168;" horiz-adv-x="664" 
d="M223 719v-445q0 -58 7 -83q20 -74 103 -74q84 0 102 73q6 25 6 90v439h157v-463q0 -84 -21 -137q-52 -130 -246 -130q-173 0 -233 110q-32 57 -32 158v462h157zM201 781l-17 96q14 13 42 24t53 11q22 0 63 -14t64 -14q34 0 65 19l9 -101q-30 -17 -72 -17
q-24 0 -66.5 11.5t-58.5 11.5q-42 0 -82 -27z" />
    <glyph glyph-name="utilde" unicode="&#x169;" horiz-adv-x="562" 
d="M209 -10q-132 0 -150 116q-4 25 -4 67v347l153 16v-344q0 -27 2 -35q8 -41 52 -41q39 0 88 35v385h152v-536h-134l-6 46q-70 -56 -153 -56zM149 609l-18 96q14 13 42 24t53 11q22 0 63 -14t64 -14q35 0 65 20l9 -102q-30 -17 -72 -17q-24 0 -66.5 11.5t-58.5 11.5
q-41 0 -81 -27z" />
    <glyph glyph-name="Umacron" unicode="&#x16a;" horiz-adv-x="664" 
d="M223 719v-445q0 -58 7 -83q20 -74 103 -74q84 0 102 73q6 25 6 90v439h157v-463q0 -84 -21 -137q-52 -130 -246 -130q-173 0 -233 110q-32 57 -32 158v462h157zM185 791v105h317v-105h-317z" />
    <glyph glyph-name="umacron" unicode="&#x16b;" horiz-adv-x="562" 
d="M209 -10q-132 0 -150 116q-4 25 -4 67v347l153 16v-344q0 -27 2 -35q8 -41 52 -41q39 0 88 35v385h152v-536h-134l-6 46q-70 -56 -153 -56zM124 621v105h317v-105h-317z" />
    <glyph glyph-name="Ubreve" unicode="&#x16c;" horiz-adv-x="664" 
d="M223 719v-445q0 -58 7 -83q20 -74 103 -74q84 0 102 73q6 25 6 90v439h157v-463q0 -84 -21 -137q-52 -130 -246 -130q-173 0 -233 110q-32 57 -32 158v462h157zM434 954l84 -41q-58 -133 -181 -133q-125 0 -175 130l86 43q19 -39 39 -59t54 -20q32 0 53 20t40 60z" />
    <glyph glyph-name="ubreve" unicode="&#x16d;" horiz-adv-x="562" 
d="M209 -10q-132 0 -150 116q-4 25 -4 67v347l153 16v-344q0 -27 2 -35q8 -41 52 -41q39 0 88 35v385h152v-536h-134l-6 46q-70 -56 -153 -56zM377 758l83 -41q-55 -133 -180 -133q-124 0 -175 130l85 44q20 -40 40 -60t54 -20q33 0 53.5 19.5t39.5 60.5z" />
    <glyph glyph-name="Uring" unicode="&#x16e;" horiz-adv-x="664" 
d="M223 719v-445q0 -58 7 -83q20 -74 103 -74q84 0 102 73q6 25 6 90v439h157v-463q0 -84 -21 -137q-52 -130 -246 -130q-173 0 -233 110q-32 57 -32 158v462h157zM221 871q0 52 34.5 87.5t86.5 35.5q54 0 87 -34.5t33 -83.5q0 -55 -34.5 -92t-88.5 -37t-86 35.5t-32 88.5z
M293 871q0 -24 13 -40.5t36 -16.5t36 16.5t13 40.5q0 25 -13 40.5t-36 15.5q-49 0 -49 -56z" />
    <glyph glyph-name="uring" unicode="&#x16f;" horiz-adv-x="562" 
d="M209 -10q-132 0 -150 116q-4 25 -4 67v347l153 16v-344q0 -27 2 -35q8 -41 52 -41q39 0 88 35v385h152v-536h-134l-6 46q-70 -56 -153 -56zM166 708q0 52 35 87.5t88 35.5q57 0 90.5 -34.5t33.5 -83.5q0 -55 -35.5 -92t-91.5 -37t-88 35.5t-32 88.5zM241 708
q0 -25 12.5 -41t35.5 -16t36 16.5t13 40.5q0 25 -12.5 40.5t-36.5 15.5q-48 0 -48 -56z" />
    <glyph glyph-name="Uhungarumlaut" unicode="&#x170;" horiz-adv-x="664" 
d="M223 719v-445q0 -58 7 -83q20 -74 103 -74q84 0 102 73q6 25 6 90v439h157v-463q0 -84 -21 -137q-52 -130 -246 -130q-173 0 -233 110q-32 57 -32 158v462h157zM379 828l163 162l75 -80l-180 -144zM164 828l163 162l75 -80l-179 -144z" />
    <glyph glyph-name="uhungarumlaut" unicode="&#x171;" horiz-adv-x="562" 
d="M209 -10q-132 0 -150 116q-4 25 -4 67v347l153 16v-344q0 -27 2 -35q8 -41 52 -41q39 0 88 35v385h152v-536h-134l-6 46q-70 -56 -153 -56zM325 645l163 162l75 -80l-180 -143zM110 645l163 162l75 -80l-179 -143z" />
    <glyph glyph-name="Uogonek" unicode="&#x172;" horiz-adv-x="666" 
d="M225 719v-445q0 -58 7 -83q20 -74 103 -74q84 0 102 73q6 25 6 90v439h157v-463q0 -84 -21 -137q-20 -51 -83 -102q-87 -71 -87 -121q0 -19 7.5 -27.5t27.5 -8.5q24 0 58 14l7 -87q-37 -17 -89 -17q-58 0 -88 27.5t-30 68.5q0 68 65 124q-12 -1 -34 -1q-173 0 -233 110
q-32 57 -32 158v462h157z" />
    <glyph glyph-name="uogonek" unicode="&#x173;" horiz-adv-x="566" 
d="M366 46q-70 -56 -153 -56q-115 0 -142 87q-12 35 -12 96v347l153 16v-344q0 -26 2 -34q10 -42 52 -42q39 0 88 35v385h152v-536q-85 -52 -85 -107q0 -33 38 -33q23 0 57 14l8 -87q-37 -17 -89 -17q-58 0 -87 28.5t-29 70.5q0 28 9.5 54t19.5 40.5t28 36.5z" />
    <glyph glyph-name="Wcircumflex" unicode="&#x174;" horiz-adv-x="836" 
d="M281 0h-148l-108 719h152l42 -309q13 -97 17 -185q1 -1 2 -1l121 430h122l116 -431l2 1q5 89 17 182l43 313h152l-109 -719h-148l-86 275q-35 112 -49 173h-2q-24 -99 -49 -176zM362 917h117l100 -109l-61 -50l-100 69l-102 -69l-60 54z" />
    <glyph glyph-name="wcircumflex" unicode="&#x175;" horiz-adv-x="707" 
d="M549 536l148 -16l-111 -520h-162l-39 172q-15 66 -29 141h-2q-14 -65 -34 -139l-46 -174h-155l-109 520l153 16l40 -240q6 -38 18 -124h3q8 52 26 122l52 221h113l43 -193q27 -116 31 -150h3q5 53 17 126zM301 772h117l103 -128l-63 -60l-102 94l-103 -94l-64 63z" />
    <glyph glyph-name="Ycircumflex" unicode="&#x176;" horiz-adv-x="629" 
d="M320 407q16 57 39 105l100 207h170l-234 -439v-280h-156v279l-239 440h172l104 -209q18 -37 41 -103h3zM265 917h117l100 -109l-61 -50l-100 69l-102 -69l-60 54z" />
    <glyph glyph-name="ycircumflex" unicode="&#x177;" horiz-adv-x="520" 
d="M366 536l149 -16q-75 -268 -168 -493q-25 -59 -46 -99t-51.5 -78.5t-69.5 -57.5t-87 -19q-94 0 -168 40l39 123q69 -36 113 -36q39 0 61 27t48 96l-186 498l162 15l70 -231q22 -72 36 -133h2q26 82 96 364zM214 772h117l103 -128l-63 -60l-102 94l-103 -94l-64 63z" />
    <glyph glyph-name="Ydieresis" unicode="&#x178;" horiz-adv-x="629" 
d="M320 407q16 57 39 105l100 207h170l-234 -439v-280h-156v279l-239 440h172l104 -209q18 -37 41 -103h3zM144 855q0 35 20 54.5t52 19.5q75 0 75 -74q0 -35 -21 -54.5t-54 -19.5t-52.5 20t-19.5 54zM355 855q0 35 20 54.5t52 19.5q75 0 75 -74q0 -35 -21 -54.5t-54 -19.5
t-52.5 20t-19.5 54z" />
    <glyph glyph-name="Zacute" unicode="&#x179;" horiz-adv-x="580" 
d="M38 603v116h516v-104l-339 -497h327v-118h-522v95l342 508h-324zM201 850l213 80l33 -105l-219 -59z" />
    <glyph glyph-name="zacute" unicode="&#x17a;" horiz-adv-x="465" 
d="M445 449l-245 -339h237v-110h-417v95l239 334h-227v107h413v-87zM186 585l-39 79l201 118l47 -99z" />
    <glyph glyph-name="Zdotaccent" unicode="&#x17b;" horiz-adv-x="580" 
d="M38 603v116h516v-104l-339 -497h327v-118h-522v95l342 508h-324zM211 870q0 41 24 64t63 23q42 0 66 -22t24 -64q0 -41 -24.5 -64t-64.5 -23q-39 0 -63.5 23.5t-24.5 62.5z" />
    <glyph glyph-name="zdotaccent" unicode="&#x17c;" horiz-adv-x="465" 
d="M445 449l-245 -339h237v-110h-417v95l239 334h-227v107h413v-87zM159 676q0 41 24.5 64.5t62.5 23.5q42 0 66 -22.5t24 -64.5q0 -41 -24.5 -64t-64.5 -23q-39 0 -63.5 23.5t-24.5 62.5z" />
    <glyph glyph-name="Zcaron" unicode="&#x17d;" horiz-adv-x="580" 
d="M38 603v116h516v-104l-339 -497h327v-118h-522v95l342 508h-324zM362 766h-117l-99 109l61 50l100 -69l101 69l61 -54z" />
    <glyph glyph-name="zcaron" unicode="&#x17e;" horiz-adv-x="465" 
d="M445 449l-245 -339h237v-110h-417v95l239 334h-227v107h413v-87zM302 584h-117l-105 128l65 60l101 -94l104 94l63 -62z" />
    <glyph glyph-name="longs" unicode="&#x17f;" horiz-adv-x="357" 
d="M228 0h-151v549q0 85 48.5 134t145.5 49q77 0 126 -20l-10 -107q-47 15 -87 15q-39 0 -55.5 -14t-16.5 -53v-553z" />
    <glyph glyph-name="florin" unicode="&#x192;" horiz-adv-x="533" 
d="M531 702l-17 -106q-42 14 -82 14q-34 0 -52.5 -18t-26.5 -56l-14 -72h118l-19 -107h-118l-63 -356q-14 -78 -64 -124q-57 -54 -154 -54q-74 0 -119 19l24 108q45 -16 83 -16q65 0 78 68l64 355h-76l20 107h75q10 56 13 71q19 91 63 133q57 54 157 54q65 0 110 -20z" />
    <glyph glyph-name="Scommaaccent" unicode="&#x218;" horiz-adv-x="542" 
d="M24 47l48 134q101 -64 184 -64q44 0 70.5 20t26.5 61q-1 45 -30 67t-98 41q-33 9 -55 16.5t-51 24.5t-46 37t-29.5 54t-12.5 77q0 97 67 158t175 61q192 0 244 -177l-142 -41q-27 93 -104 93q-37 0 -59.5 -19t-22.5 -56q0 -40 30.5 -61t95.5 -39q94 -27 145 -78t51 -139
q0 -108 -72 -169.5t-184 -61.5q-133 0 -231 61zM171 -242l84 -19l66 178l-108 28z" />
    <glyph glyph-name="scommaaccent" unicode="&#x219;" horiz-adv-x="461" 
d="M26 40l39 120q78 -56 156 -56q63 0 63 45q0 16 -7 27.5t-24.5 20t-30 12t-41.5 11.5q-69 18 -107.5 52t-38.5 106q0 77 55.5 122t142.5 45q90 0 138 -36t64 -87l-114 -44q-27 58 -86 58q-25 0 -39.5 -11.5t-14.5 -32.5q0 -17 14 -30t31 -20t48 -15q28 -8 47 -14.5t42 -20
t36.5 -29.5t23 -42t9.5 -59q0 -82 -59 -128t-152 -46q-57 0 -112.5 16.5t-82.5 35.5zM128 -242l84 -19l66 178l-108 28z" />
    <glyph glyph-name="uni021A" unicode="&#x21a;" horiz-adv-x="580" 
d="M10 599v120h560v-120h-202v-599h-156v599h-202zM192 -242l84 -19l66 178l-108 28z" />
    <glyph glyph-name="uni021B" unicode="&#x21b;" horiz-adv-x="368" 
d="M337 429h-113v-248q0 -67 47 -67q27 0 64 17l18 -115q-56 -27 -130 -27q-152 0 -152 154v286h-69v107h69v90l153 71v-161h113v-107zM114 -242l84 -19l66 178l-108 28z" />
    <glyph glyph-name="dotlessj" unicode="&#x237;" horiz-adv-x="272" 
d="M213 536v-580q0 -86 -43.5 -134.5t-133.5 -48.5q-79 0 -136 27l22 124q51 -24 90 -24q25 0 36.5 14.5t11.5 52.5v569h153z" />
    <glyph glyph-name="apostrophe" unicode="&#x2bc;" horiz-adv-x="202" 
d="M30 613l21 189q7 59 57 59q29 0 46.5 -15t17.5 -41q0 -17 -7 -34l-69 -174z" />
    <glyph glyph-name="circumflex" unicode="&#x2c6;" horiz-adv-x="454" 
d="M174 772h117l103 -128l-63 -60l-102 94l-103 -94l-64 63z" />
    <glyph glyph-name="caron" unicode="&#x2c7;" horiz-adv-x="454" 
d="M282 584h-117l-105 128l65 60l101 -94l104 94l63 -62z" />
    <glyph glyph-name="uni02C9" unicode="&#x2c9;" horiz-adv-x="456" 
d="M72 621v105h317v-105h-317z" />
    <glyph glyph-name="breve" unicode="&#x2d8;" horiz-adv-x="476" 
d="M332 758l83 -41q-55 -133 -180 -133q-124 0 -175 130l85 44q20 -40 40 -60t54 -20q33 0 53.5 19.5t39.5 60.5z" />
    <glyph glyph-name="dotaccent" unicode="&#x2d9;" horiz-adv-x="440" 
d="M131 676q0 41 24.5 64.5t62.5 23.5q42 0 66 -22.5t24 -64.5q0 -41 -24.5 -64t-64.5 -23q-39 0 -63.5 23.5t-24.5 62.5z" />
    <glyph glyph-name="ring" unicode="&#x2da;" horiz-adv-x="450" 
d="M103 708q0 52 35 87.5t88 35.5q57 0 90.5 -34.5t33.5 -83.5q0 -55 -35.5 -92t-91.5 -37t-88 35.5t-32 88.5zM178 708q0 -25 12.5 -41t35.5 -16t36 16.5t13 40.5q0 25 -12.5 40.5t-36.5 15.5q-48 0 -48 -56z" />
    <glyph glyph-name="ogonek" unicode="&#x2db;" horiz-adv-x="508" 
d="M255 2l96 -1q-74 -59 -74 -109q0 -32 36 -32q23 0 57 14l8 -87q-37 -17 -89 -17q-58 0 -85.5 26.5t-27.5 68.5q0 76 79 137z" />
    <glyph glyph-name="tilde" unicode="&#x2dc;" horiz-adv-x="468" 
d="M110 609l-18 96q14 13 42 24t53 11q22 0 63 -14t64 -14q35 0 65 20l9 -102q-30 -17 -72 -17q-24 0 -66.5 11.5t-58.5 11.5q-41 0 -81 -27z" />
    <glyph glyph-name="hungarumlaut" unicode="&#x2dd;" horiz-adv-x="498" 
d="M247 645l163 162l75 -80l-180 -143zM32 645l163 162l75 -80l-179 -143z" />
    <glyph glyph-name="uni0394" unicode="&#x394;" horiz-adv-x="725" 
d="M717 0h-709l287 696h136zM361 509l-151 -389h303z" />
    <glyph glyph-name="uni03A9" unicode="&#x3a9;" horiz-adv-x="763" 
d="M59 354q0 161 93 254t231 93q146 0 233 -89.5t87 -245.5q0 -77 -34 -149.5t-90 -110.5h144v-106h-295l3 88q56 30 90 96.5t34 167.5q0 124 -48.5 180t-123.5 56q-77 0 -126 -59t-49 -180q0 -97 36.5 -165.5t95.5 -96.5l3 -87h-302v106h130q-49 37 -80.5 105.5
t-31.5 142.5z" />
    <glyph glyph-name="uni03BC" unicode="&#x3bc;" horiz-adv-x="609" 
d="M499 -12q-37 0 -62 18.5t-33 49.5q-36 -67 -115 -67q-31 0 -53.5 14t-32.5 34v-231h-142v730h150v-350q0 -92 75 -92q38 0 62 29t24 75v338h151v-406q0 -42 29 -42q14 0 23 4q2 -15 5 -44t5 -43q-40 -17 -86 -17z" />
    <glyph glyph-name="pi" unicode="&#x3c0;" horiz-adv-x="638" 
d="M607 424h-76v-288q0 -42 28 -42q13 0 31 7l13 -93q-41 -19 -100 -19q-99 0 -117 88q-5 30 -5 59v288h-126v-424h-150v424h-76v112h578v-112z" />
    <glyph glyph-name="Wgrave" unicode="&#x1e80;" horiz-adv-x="836" 
d="M281 0h-148l-108 719h152l42 -309q13 -97 17 -185q1 -1 2 -1l121 430h122l116 -431l2 1q5 89 17 182l43 313h152l-109 -719h-148l-86 275q-35 112 -49 173h-2q-24 -99 -49 -176zM328 930l212 -80l-27 -84l-218 59z" />
    <glyph glyph-name="wgrave" unicode="&#x1e81;" horiz-adv-x="707" 
d="M549 536l148 -16l-111 -520h-162l-39 172q-15 66 -29 141h-2q-14 -65 -34 -139l-46 -174h-155l-109 520l153 16l40 -240q6 -38 18 -124h3q8 52 26 122l52 221h113l43 -193q27 -116 31 -150h3q5 53 17 126zM475 664l-39 -79l-209 98l49 99z" />
    <glyph glyph-name="Wacute" unicode="&#x1e82;" horiz-adv-x="836" 
d="M281 0h-148l-108 719h152l42 -309q13 -97 17 -185q1 -1 2 -1l121 430h122l116 -431l2 1q5 89 17 182l43 313h152l-109 -719h-148l-86 275q-35 112 -49 173h-2q-24 -99 -49 -176zM306 850l213 80l33 -105l-219 -59z" />
    <glyph glyph-name="wacute" unicode="&#x1e83;" horiz-adv-x="707" 
d="M549 536l148 -16l-111 -520h-162l-39 172q-15 66 -29 141h-2q-14 -65 -34 -139l-46 -174h-155l-109 520l153 16l40 -240q6 -38 18 -124h3q8 52 26 122l52 221h113l43 -193q27 -116 31 -150h3q5 53 17 126zM277 585l-39 79l201 118l47 -99z" />
    <glyph glyph-name="Wdieresis" unicode="&#x1e84;" horiz-adv-x="836" 
d="M281 0h-148l-108 719h152l42 -309q13 -97 17 -185q1 -1 2 -1l121 430h122l116 -431l2 1q5 89 17 182l43 313h152l-109 -719h-148l-86 275q-35 112 -49 173h-2q-24 -99 -49 -176zM239 855q0 35 20 54.5t52 19.5q75 0 75 -74q0 -35 -21 -54.5t-54 -19.5t-52.5 20t-19.5 54z
M450 855q0 35 20 54.5t52 19.5q75 0 75 -74q0 -35 -21 -54.5t-54 -19.5t-52.5 20t-19.5 54z" />
    <glyph glyph-name="wdieresis" unicode="&#x1e85;" horiz-adv-x="707" 
d="M549 536l148 -16l-111 -520h-162l-39 172q-15 66 -29 141h-2q-14 -65 -34 -139l-46 -174h-155l-109 520l153 16l40 -240q6 -38 18 -124h3q8 52 26 122l52 221h113l43 -193q27 -116 31 -150h3q5 53 17 126zM174 672q0 34 20.5 54t52.5 20q74 0 74 -74q0 -35 -20.5 -55
t-53.5 -20t-53 20t-20 55zM385 672q0 35 20 54.5t53 19.5q75 0 75 -74q0 -35 -21 -55t-54 -20q-34 0 -53.5 20t-19.5 55z" />
    <glyph glyph-name="Ygrave" unicode="&#x1ef2;" horiz-adv-x="629" 
d="M320 407q16 57 39 105l100 207h170l-234 -439v-280h-156v279l-239 440h172l104 -209q18 -37 41 -103h3zM225 930l212 -80l-27 -84l-218 59z" />
    <glyph glyph-name="ygrave" unicode="&#x1ef3;" horiz-adv-x="520" 
d="M366 536l149 -16q-75 -268 -168 -493q-25 -59 -46 -99t-51.5 -78.5t-69.5 -57.5t-87 -19q-94 0 -168 40l39 123q69 -36 113 -36q39 0 61 27t48 96l-186 498l162 15l70 -231q22 -72 36 -133h2q26 82 96 364zM372 664l-39 -79l-209 98l49 99z" />
    <glyph glyph-name="endash" unicode="&#x2013;" horiz-adv-x="500" 
d="M0 223v115h500v-115h-500z" />
    <glyph glyph-name="emdash" unicode="&#x2014;" horiz-adv-x="1000" 
d="M0 223v115h1000v-115h-1000z" />
    <glyph glyph-name="quoteleft" unicode="&#x2018;" horiz-adv-x="229" 
d="M93 778l76 -6l4 -212q1 -34 -15.5 -54.5t-50.5 -20.5q-31 0 -49 17t-18 46q0 14 3 27z" />
    <glyph glyph-name="quoteright" unicode="&#x2019;" horiz-adv-x="229" 
d="M62 491l-6 212q-1 34 16 54.5t52 20.5q30 0 47.5 -17.5t17.5 -47.5q0 -13 -3 -27l-50 -202z" />
    <glyph glyph-name="quotesinglbase" unicode="&#x201a;" horiz-adv-x="235" 
d="M133 -156l-76 9l-6 198q-3 87 69 87q65 0 65 -65q0 -19 -5 -37z" />
    <glyph glyph-name="quotedblleft" unicode="&#x201c;" horiz-adv-x="433" 
d="M93 778l76 -6l4 -212q1 -34 -15.5 -54.5t-50.5 -20.5q-31 0 -49 17t-18 46q0 14 3 27zM297 778l76 -6l4 -212q1 -34 -15.5 -54.5t-50.5 -20.5q-31 0 -49 17t-18 46q0 14 3 27z" />
    <glyph glyph-name="quotedblright" unicode="&#x201d;" horiz-adv-x="433" 
d="M62 491l-6 212q-1 34 16 54.5t52 20.5q30 0 47.5 -17.5t17.5 -47.5q0 -13 -3 -27l-50 -202zM266 491l-6 212q-1 34 16 54.5t52 20.5q30 0 47.5 -17.5t17.5 -47.5q0 -13 -3 -27l-50 -202z" />
    <glyph glyph-name="quotedblbase" unicode="&#x201e;" horiz-adv-x="439" 
d="M133 -156l-76 9l-6 198q-3 87 69 87q65 0 65 -65q0 -19 -5 -37zM337 -156l-76 9l-6 198q-3 87 69 87q65 0 65 -65q0 -19 -5 -37z" />
    <glyph glyph-name="dagger" unicode="&#x2020;" horiz-adv-x="488" 
d="M156 -112l18 557h-134v119h135l-18 155h163l-17 -155h145v-119h-146l17 -557h-163z" />
    <glyph glyph-name="daggerdbl" unicode="&#x2021;" horiz-adv-x="488" 
d="M174 165v280h-134v119h135l-18 155h163l-17 -155h145v-119h-146v-280h146v-119h-145l17 -159h-163l18 159h-135v119h134z" />
    <glyph glyph-name="bullet" unicode="&#x2022;" horiz-adv-x="438" 
d="M85 356q0 63 38 103t96 40q59 0 96.5 -40t37.5 -103t-37.5 -102.5t-96.5 -39.5t-96.5 38.5t-37.5 103.5z" />
    <glyph glyph-name="ellipsis" unicode="&#x2026;" horiz-adv-x="813" 
d="M50 74q0 36 22 61t59 25q39 0 61 -23.5t22 -61.5q0 -36 -23 -60.5t-61 -24.5q-37 0 -58.5 23t-21.5 61zM327 74q0 36 22 61t59 25q38 0 60 -23.5t22 -61.5q0 -36 -22.5 -60.5t-61.5 -24.5q-37 0 -58 23t-21 61zM599 74q0 36 22 61t60 25t60 -23.5t22 -61.5
q0 -36 -23 -60.5t-61 -24.5q-37 0 -58.5 23t-21.5 61z" />
    <glyph glyph-name="perthousand" unicode="&#x2030;" horiz-adv-x="1186" 
d="M341 0h-134l290 719h136zM641 360q70 0 112.5 -46t42.5 -139q0 -91 -43.5 -139.5t-113.5 -48.5q-73 0 -115 49t-42 138q0 91 46 138.5t113 47.5zM638 72q45 0 45 101q0 102 -43 102q-46 0 -46 -103q0 -100 44 -100zM991 360q70 0 112.5 -46t42.5 -139q0 -91 -43.5 -139.5
t-113.5 -48.5q-73 0 -115 49t-42 138q0 91 46 138.5t113 47.5zM988 72q45 0 45 101q0 102 -43 102q-46 0 -46 -103q0 -100 44 -100zM200 719q70 0 112.5 -46t42.5 -138q0 -91 -43.5 -140t-114.5 -49q-73 0 -115 49.5t-42 138.5q0 91 46 138t114 47zM197 431q45 0 45 101
q0 103 -43 103q-46 0 -46 -104q0 -100 44 -100z" />
    <glyph glyph-name="guilsinglleft" unicode="&#x2039;" horiz-adv-x="343" 
d="M234 58l-221 225l218 226l85 -89l-135 -134l141 -140z" />
    <glyph glyph-name="guilsinglright" unicode="&#x203a;" horiz-adv-x="343" 
d="M330 283l-221 -225l-88 88l141 140l-135 134l85 89z" />
    <glyph glyph-name="fraction" unicode="&#x2044;" horiz-adv-x="90" 
d="M-37 0h-134l290 719h136z" />
    <glyph glyph-name="zerosuperior" unicode="&#x2070;" 
d="M202 825q85 0 128.5 -52.5t43.5 -167.5q0 -119 -44 -172t-132 -53t-130 54t-42 170q0 114 47 167.5t129 53.5zM199 463q31 0 45 31.5t14 109.5q0 76 -13 105.5t-44 29.5t-44.5 -31t-13.5 -110q0 -74 12.5 -104.5t43.5 -30.5z" />
    <glyph glyph-name="foursuperior" unicode="&#x2074;" 
d="M326 389h-110v93h-197v60l177 277h130v-261h54v-77h-54v-92zM115 558h101v93q0 42 3 75h-5q-7 -18 -36 -66z" />
    <glyph glyph-name="fivesuperior" unicode="&#x2075;" 
d="M195 604q-31 0 -63 -34l-75 29v220h274v-86h-184v-70q31 26 81 26q63 0 96.5 -38.5t33.5 -102.5q0 -75 -43.5 -120.5t-125.5 -45.5q-85 0 -148 45l39 82q55 -39 101 -39q31 0 51 18t20 51t-16 49t-41 16z" />
    <glyph glyph-name="sixsuperior" unicode="&#x2076;" 
d="M227 746q-33 0 -54 -24.5t-27 -66.5q33 25 83 25q68 0 102.5 -39t34.5 -101q0 -72 -43.5 -115.5t-120.5 -43.5q-168 0 -168 200q0 122 52.5 183.5t141.5 61.5q84 0 134 -57l-59 -59q-33 36 -76 36zM260 537q0 67 -58 67q-32 0 -60 -20v-31q0 -92 58 -92q29 0 44.5 20.5
t15.5 55.5z" />
    <glyph glyph-name="sevensuperior" unicode="&#x2077;" 
d="M43 727v92h314v-73l-135 -226q-15 -25 -15 -63v-66h-109v72q0 50 19 81l111 183h-185z" />
    <glyph glyph-name="eightsuperior" unicode="&#x2078;" 
d="M34 516q0 68 55 102q-19 13 -30 36.5t-11 47.5q0 58 41.5 91t111.5 33q150 0 150 -120q0 -54 -41 -92q56 -26 56 -95q0 -63 -42.5 -100.5t-124.5 -37.5q-83 0 -124 36t-41 99zM203 576l-38 5q-20 -20 -20 -61q0 -28 14.5 -44t41.5 -16q55 0 55 61q0 29 -12 40t-41 15z
M199 751q-18 0 -30.5 -12.5t-12.5 -34.5q0 -53 40 -57l32 -3q15 18 15 61q0 22 -12 34t-32 12z" />
    <glyph glyph-name="ninesuperior" unicode="&#x2079;" 
d="M179 462q64 0 74 90q-33 -25 -81 -25q-68 0 -102.5 39.5t-34.5 101.5q0 71 44.5 114.5t117.5 43.5q168 0 168 -200q0 -245 -185 -245q-84 0 -133 47l47 71q34 -37 85 -37zM141 671q0 -68 58 -68q30 0 58 20v31q0 92 -58 92t-58 -75z" />
    <glyph glyph-name="zeroinferior" unicode="&#x2080;" 
d="M202 329q85 0 128.5 -52.5t43.5 -167.5q0 -119 -44 -172t-132 -53t-130 54t-42 170q0 114 47 167.5t129 53.5zM199 -33q31 0 45 31.5t14 109.5q0 76 -13 105.5t-44 29.5t-44.5 -31t-13.5 -110q0 -74 12.5 -104.5t43.5 -30.5z" />
    <glyph glyph-name="oneinferior" unicode="&#x2081;" 
d="M61 -105v81h79v265h-73v82h191v-347h81v-81h-278z" />
    <glyph glyph-name="twoinferior" unicode="&#x2082;" 
d="M120 181l-82 49q22 45 64.5 72.5t103.5 27.5q69 0 109.5 -33.5t40.5 -93.5q0 -71 -56 -132q-48 -53 -89 -86h151v-92h-309v80q38 30 54 43t39 34.5t51 52.5q42 47 42 87q0 17 -11.5 30.5t-35.5 13.5q-44 0 -72 -53z" />
    <glyph glyph-name="threeinferior" unicode="&#x2083;" 
d="M123 196l-74 51q20 38 61 60.5t97 22.5q64 0 104 -29.5t40 -84.5q0 -33 -19.5 -60t-47.5 -39q73 -19 73 -95q0 -61 -45.5 -99t-125.5 -38q-81 0 -143 42l39 86q49 -37 99 -37q63 0 63 51q0 50 -57 50h-54v75h45q61 0 61 47q0 41 -45 41q-41 0 -71 -44z" />
    <glyph glyph-name="fourinferior" unicode="&#x2084;" 
d="M326 -107h-110v93h-197v60l177 277h130v-261h54v-77h-54v-92zM115 62h101v93q0 42 3 75h-5q-7 -18 -36 -66z" />
    <glyph glyph-name="fiveinferior" unicode="&#x2085;" 
d="M195 108q-31 0 -63 -34l-75 29v220h274v-86h-184v-70q31 26 81 26q63 0 96.5 -38.5t33.5 -102.5q0 -75 -43.5 -120.5t-125.5 -45.5q-85 0 -148 45l39 82q55 -39 101 -39q31 0 51 18t20 51t-16 49t-41 16z" />
    <glyph glyph-name="sixinferior" unicode="&#x2086;" 
d="M227 250q-33 0 -54 -24.5t-27 -66.5q33 25 83 25q68 0 102.5 -39t34.5 -101q0 -72 -43.5 -115.5t-120.5 -43.5q-168 0 -168 200q0 122 52.5 183.5t141.5 61.5q84 0 134 -57l-59 -59q-33 36 -76 36zM260 41q0 67 -58 67q-32 0 -60 -20v-31q0 -92 58 -92q29 0 44.5 20.5
t15.5 55.5z" />
    <glyph glyph-name="seveninferior" unicode="&#x2087;" 
d="M43 231v92h314v-73l-135 -226q-15 -25 -15 -63v-66h-109v72q0 50 19 81l111 183h-185z" />
    <glyph glyph-name="eightinferior" unicode="&#x2088;" 
d="M34 20q0 68 55 102q-19 13 -30 36.5t-11 47.5q0 58 41.5 91t111.5 33q150 0 150 -120q0 -54 -41 -92q56 -26 56 -95q0 -63 -42.5 -100.5t-124.5 -37.5q-83 0 -124 36t-41 99zM203 80l-38 5q-20 -20 -20 -61q0 -28 14.5 -44t41.5 -16q55 0 55 61q0 29 -12 40t-41 15z
M199 255q-18 0 -30.5 -12.5t-12.5 -34.5q0 -53 40 -57l32 -3q15 18 15 61q0 22 -12 34t-32 12z" />
    <glyph glyph-name="nineinferior" unicode="&#x2089;" 
d="M179 -34q64 0 74 90q-33 -25 -81 -25q-68 0 -102.5 39.5t-34.5 101.5q0 71 44.5 114.5t117.5 43.5q168 0 168 -200q0 -245 -185 -245q-84 0 -133 47l47 71q34 -37 85 -37zM141 175q0 -68 58 -68q30 0 58 20v31q0 92 -58 92t-58 -75z" />
    <glyph glyph-name="Euro" unicode="&#x20ac;" horiz-adv-x="576" 
d="M561 518l-128 -33q-11 47 -31.5 67.5t-55.5 20.5q-26 0 -44 -13t-26.5 -37.5t-11.5 -51t-3 -62.5h178v-124h-177q2 -88 20 -132.5t71 -44.5q35 0 56.5 22t42.5 63l106 -66q-43 -75 -94.5 -106t-119.5 -31q-54 0 -94.5 14.5t-66.5 39.5t-42.5 63.5t-24 80.5t-9.5 97h-72
v124h70q5 64 18 112t39.5 90t74.5 64.5t116 22.5q52 0 91 -16t62 -45t35 -56.5t20 -62.5z" />
    <glyph glyph-name="trademark" unicode="&#x2122;" horiz-adv-x="846" 
d="M16 635v84h335v-84h-119v-324h-99v324h-117zM688 719h101l26 -408h-94l-9 155q-2 44 -2 82h-4q-6 -29 -23 -79l-42 -121h-80l-45 127q-6 15 -22 74h-1q-2 -64 -4 -82l-11 -156h-95l29 408h105l53 -162q21 -64 32 -108h1q13 55 31 108z" />
    <glyph glyph-name="Omega" unicode="&#x2126;" horiz-adv-x="763" 
d="M59 354q0 161 93 254t231 93q146 0 233 -89.5t87 -245.5q0 -77 -34 -149.5t-90 -110.5h144v-106h-295l3 88q56 30 90 96.5t34 167.5q0 124 -48.5 180t-123.5 56q-77 0 -126 -59t-49 -180q0 -97 36.5 -165.5t95.5 -96.5l3 -87h-302v106h130q-49 37 -80.5 105.5
t-31.5 142.5z" />
    <glyph glyph-name="onethird" unicode="&#x2153;" horiz-adv-x="963" 
d="M65 291v81h79v265h-73v82h191v-347h81v-81h-278zM399 0h-134l290 719h136zM668 301l-74 51q20 38 61 60.5t97 22.5q64 0 104 -29.5t40 -84.5q0 -33 -19.5 -60t-47.5 -39q73 -19 73 -95q0 -61 -45.5 -99t-125.5 -38q-81 0 -143 42l39 86q49 -37 99 -37q63 0 63 51
q0 50 -57 50h-54v75h45q61 0 61 47q0 41 -45 41q-41 0 -71 -44z" />
    <glyph glyph-name="twothirds" unicode="&#x2154;" horiz-adv-x="963" 
d="M123 577l-82 49q22 45 64.5 72.5t103.5 27.5q69 0 109.5 -33.5t40.5 -93.5q0 -71 -56 -132q-48 -53 -89 -86h151v-92h-309v80q38 30 54 43t39 34.5t51 52.5q42 47 42 87q0 17 -11.5 30.5t-35.5 13.5q-44 0 -72 -53zM418 0h-134l290 719h136zM675 301l-74 51
q20 38 61 60.5t97 22.5q64 0 104 -29.5t40 -84.5q0 -33 -19.5 -60t-47.5 -39q73 -19 73 -95q0 -61 -45.5 -99t-125.5 -38q-81 0 -143 42l39 86q49 -37 99 -37q63 0 63 51q0 50 -57 50h-54v75h45q61 0 61 47q0 41 -45 41q-41 0 -71 -44z" />
    <glyph glyph-name="onefifth" unicode="&#x2155;" horiz-adv-x="963" 
d="M69 291v81h79v265h-73v82h191v-347h81v-81h-278zM399 0h-134l290 719h136zM753 213q-31 0 -63 -34l-75 29v220h274v-86h-184v-70q31 26 81 26q63 0 96.5 -38.5t33.5 -102.5q0 -75 -43.5 -120.5t-125.5 -45.5q-85 0 -148 45l39 82q55 -39 101 -39q31 0 51 18t20 51t-16 49
t-41 16z" />
    <glyph glyph-name="twofifths" unicode="&#x2156;" horiz-adv-x="963" 
d="M102 577l-82 49q22 45 64.5 72.5t103.5 27.5q69 0 109.5 -33.5t40.5 -93.5q0 -71 -56 -132q-48 -53 -89 -86h151v-92h-309v80q38 30 54 43t39 34.5t51 52.5q42 47 42 87q0 17 -11.5 30.5t-35.5 13.5q-44 0 -72 -53zM396 0h-134l290 719h136zM754 213q-31 0 -63 -34
l-75 29v220h274v-86h-184v-70q31 26 81 26q63 0 96.5 -38.5t33.5 -102.5q0 -75 -43.5 -120.5t-125.5 -45.5q-85 0 -148 45l39 82q55 -39 101 -39q31 0 51 18t20 51t-16 49t-41 16z" />
    <glyph glyph-name="threefifths" unicode="&#x2157;" horiz-adv-x="963" 
d="M124 592l-74 51q20 38 61 60.5t97 22.5q64 0 104 -29.5t40 -84.5q0 -33 -19.5 -60t-47.5 -39q73 -19 73 -95q0 -61 -45.5 -99t-125.5 -38q-81 0 -143 42l39 86q49 -37 99 -37q63 0 63 51q0 50 -57 50h-54v75h45q61 0 61 47q0 41 -45 41q-41 0 -71 -44zM392 0h-134
l290 719h136zM755 213q-31 0 -63 -34l-75 29v220h274v-86h-184v-70q31 26 81 26q63 0 96.5 -38.5t33.5 -102.5q0 -75 -43.5 -120.5t-125.5 -45.5q-85 0 -148 45l39 82q55 -39 101 -39q31 0 51 18t20 51t-16 49t-41 16z" />
    <glyph glyph-name="fourfifths" unicode="&#x2158;" horiz-adv-x="963" 
d="M326 289h-110v93h-197v60l177 277h130v-261h54v-77h-54v-92zM115 458h101v93q0 42 3 75h-5q-7 -18 -36 -66zM399 0h-134l290 719h136zM756 213q-31 0 -63 -34l-75 29v220h274v-86h-184v-70q31 26 81 26q63 0 96.5 -38.5t33.5 -102.5q0 -75 -43.5 -120.5t-125.5 -45.5
q-85 0 -148 45l39 82q55 -39 101 -39q31 0 51 18t20 51t-16 49t-41 16z" />
    <glyph glyph-name="onesixth" unicode="&#x2159;" horiz-adv-x="963" 
d="M49 291v81h79v265h-73v82h191v-347h81v-81h-278zM399 0h-134l290 719h136zM775 355q-33 0 -54 -24.5t-27 -66.5q33 25 83 25q68 0 102.5 -39t34.5 -101q0 -72 -43.5 -115.5t-120.5 -43.5q-168 0 -168 200q0 122 52.5 183.5t141.5 61.5q84 0 134 -57l-59 -59
q-33 36 -76 36zM808 146q0 67 -58 67q-32 0 -60 -20v-31q0 -92 58 -92q29 0 44.5 20.5t15.5 55.5z" />
    <glyph glyph-name="fivesixths" unicode="&#x215a;" horiz-adv-x="963" 
d="M206 504q-31 0 -63 -34l-75 29v220h274v-86h-184v-70q31 26 81 26q63 0 96.5 -38.5t33.5 -102.5q0 -75 -43.5 -120.5t-125.5 -45.5q-85 0 -148 45l39 82q55 -39 101 -39q31 0 51 18t20 51t-16 49t-41 16zM402 0h-134l290 719h136zM775 355q-33 0 -54 -24.5t-27 -66.5
q33 25 83 25q68 0 102.5 -39t34.5 -101q0 -72 -43.5 -115.5t-120.5 -43.5q-168 0 -168 200q0 122 52.5 183.5t141.5 61.5q84 0 134 -57l-59 -59q-33 36 -76 36zM808 146q0 67 -58 67q-32 0 -60 -20v-31q0 -92 58 -92q29 0 44.5 20.5t15.5 55.5z" />
    <glyph glyph-name="oneeighth" unicode="&#x215b;" horiz-adv-x="963" 
d="M64 291v81h79v265h-73v82h191v-347h81v-81h-278zM399 0h-134l290 719h136zM582 125q0 68 55 102q-19 13 -30 36.5t-11 47.5q0 58 41.5 91t111.5 33q150 0 150 -120q0 -54 -41 -92q56 -26 56 -95q0 -63 -42.5 -100.5t-124.5 -37.5q-83 0 -124 36t-41 99zM751 185l-38 5
q-20 -20 -20 -61q0 -28 14.5 -44t41.5 -16q55 0 55 61q0 29 -12 40t-41 15zM747 360q-18 0 -30.5 -12.5t-12.5 -34.5q0 -53 40 -57l32 -3q15 18 15 61q0 22 -12 34t-32 12z" />
    <glyph glyph-name="threeeighths" unicode="&#x215c;" horiz-adv-x="963" 
d="M130 592l-74 51q20 38 61 60.5t97 22.5q64 0 104 -29.5t40 -84.5q0 -33 -19.5 -60t-47.5 -39q73 -19 73 -95q0 -61 -45.5 -99t-125.5 -38q-81 0 -143 42l39 86q49 -37 99 -37q63 0 63 51q0 50 -57 50h-54v75h45q61 0 61 47q0 41 -45 41q-41 0 -71 -44zM399 0h-134
l290 719h136zM582 125q0 68 55 102q-19 13 -30 36.5t-11 47.5q0 58 41.5 91t111.5 33q150 0 150 -120q0 -54 -41 -92q56 -26 56 -95q0 -63 -42.5 -100.5t-124.5 -37.5q-83 0 -124 36t-41 99zM751 185l-38 5q-20 -20 -20 -61q0 -28 14.5 -44t41.5 -16q55 0 55 61q0 29 -12 40
t-41 15zM747 360q-18 0 -30.5 -12.5t-12.5 -34.5q0 -53 40 -57l32 -3q15 18 15 61q0 22 -12 34t-32 12z" />
    <glyph glyph-name="fiveeighths" unicode="&#x215d;" horiz-adv-x="963" 
d="M200 504q-31 0 -63 -34l-75 29v220h274v-86h-184v-70q31 26 81 26q63 0 96.5 -38.5t33.5 -102.5q0 -75 -43.5 -120.5t-125.5 -45.5q-85 0 -148 45l39 82q55 -39 101 -39q31 0 51 18t20 51t-16 49t-41 16zM398 0h-134l290 719h136zM582 125q0 68 55 102q-19 13 -30 36.5
t-11 47.5q0 58 41.5 91t111.5 33q150 0 150 -120q0 -54 -41 -92q56 -26 56 -95q0 -63 -42.5 -100.5t-124.5 -37.5q-83 0 -124 36t-41 99zM751 185l-38 5q-20 -20 -20 -61q0 -28 14.5 -44t41.5 -16q55 0 55 61q0 29 -12 40t-41 15zM747 360q-18 0 -30.5 -12.5t-12.5 -34.5
q0 -53 40 -57l32 -3q15 18 15 61q0 22 -12 34t-32 12z" />
    <glyph glyph-name="seveneighths" unicode="&#x215e;" horiz-adv-x="963" 
d="M57 627v92h314v-73l-135 -226q-15 -25 -15 -63v-66h-109v72q0 50 19 81l111 183h-185zM359 0h-134l290 719h136zM573 125q0 68 55 102q-19 13 -30 36.5t-11 47.5q0 58 41.5 91t111.5 33q150 0 150 -120q0 -54 -41 -92q56 -26 56 -95q0 -63 -42.5 -100.5t-124.5 -37.5
q-83 0 -124 36t-41 99zM742 185l-38 5q-20 -20 -20 -61q0 -28 14.5 -44t41.5 -16q55 0 55 61q0 29 -12 40t-41 15zM738 360q-18 0 -30.5 -12.5t-12.5 -34.5q0 -53 40 -57l32 -3q15 18 15 61q0 22 -12 34t-32 12z" />
    <glyph glyph-name="partialdiff" unicode="&#x2202;" horiz-adv-x="605" 
d="M530 306q0 -316 -238 -316q-111 0 -170 71.5t-59 185.5q0 108 60 174t155 66q57 0 96 -39q-6 70 -28 104.5t-66 34.5q-55 0 -125 -54q-55 77 -61 85q34 33 86.5 55.5t110.5 22.5q239 0 239 -390zM300 98q83 0 83 182q0 32 -4 56q-31 46 -77 46q-42 0 -63.5 -37t-21.5 -97
q0 -150 83 -150z" />
    <glyph glyph-name="product" unicode="&#x220f;" horiz-adv-x="757" 
d="M680 -115h-152v700h-300v-700h-151v811h603v-811z" />
    <glyph glyph-name="summation" unicode="&#x2211;" horiz-adv-x="586" 
d="M568 -114h-555v90q168 212 251 318l-243 312v90h526v-113h-332l225 -291l-237 -294h365v-112z" />
    <glyph glyph-name="minus" unicode="&#x2212;" horiz-adv-x="540" 
d="M507 372v-123h-475v123h475z" />
    <glyph glyph-name="uni2215" unicode="&#x2215;" horiz-adv-x="456" 
d="M4 -54l319 843l130 -43l-322 -846z" />
    <glyph glyph-name="uni2219" unicode="&#x2219;" horiz-adv-x="311" 
d="M79 365q0 34 21 57.5t56 23.5q34 0 56 -22t22 -58q0 -34 -22.5 -57t-56.5 -23q-33 0 -54.5 21.5t-21.5 57.5z" />
    <glyph glyph-name="radical" unicode="&#x221a;" horiz-adv-x="701" 
d="M414 -15h-122q-17 51 -62 181.5t-69 201.5q-15 -8 -45 -23.5t-46 -23.5l-48 105q38 19 114.5 56.5t114.5 55.5q18 -56 53.5 -167.5t53.5 -167.5q32 99 191 583h140q-207 -602 -275 -801z" />
    <glyph glyph-name="infinity" unicode="&#x221e;" horiz-adv-x="741" 
d="M708 353q0 -70 -35 -115.5t-93 -57.5q-30 -7 -59 -4q-89 6 -152 81q-74 -85 -164 -85q-79 0 -126 47t-47 124q0 75 48.5 125.5t128.5 50.5q55 0 92.5 -23t73.5 -68q41 46 79 69t91 23q78 0 120.5 -49t42.5 -118zM591 347q0 62 -59 62q-43 0 -92 -67q51 -60 98 -60
q25 0 39 19t14 46zM304 341q-47 68 -91 68q-29 0 -45 -18.5t-16 -46.5t17 -46t46 -18q45 0 89 61z" />
    <glyph glyph-name="integral" unicode="&#x222b;" horiz-adv-x="390" 
d="M361 565q-28 15 -62 15q-47 0 -45 -50v-14q5 -89 14.5 -265.5t14.5 -265.5q2 -17 2 -54q0 -28 -6 -47q-23 -96 -142 -96q-81 0 -132 25q4 18 11.5 54.5t11.5 55.5q28 -15 63 -15q20 0 32 12.5t11 40.5v14q-5 88 -14.5 264t-14.5 264q-1 10 -1 32q-2 45 6 73q22 91 142 91
q72 0 131 -28q-4 -17 -11 -53t-11 -53z" />
    <glyph glyph-name="approxequal" unicode="&#x2248;" horiz-adv-x="692" 
d="M472 373q-52 0 -126 34q-52 25 -70 31q-19 9 -40 9q-46 0 -102 -70q-14 13 -44.5 38.5t-44.5 37.5q26 35 51 62q48 48 100 56q10 1 29 1q44 -1 112 -35q50 -25 76 -32q11 -4 33 -8q8 -2 12 -2q51 0 101 71q13 -11 28 -24t32.5 -28t27.5 -24q-20 -38 -50 -66
q-53 -51 -125 -51zM472 118q-52 0 -126 34q-38 20 -70 32q-23 9 -40 9q-46 0 -102 -70q-14 13 -44 37.5t-45 37.5q29 40 51 63q47 47 100 55q10 2 29 2q44 -1 112 -35q54 -27 76 -33t33 -7q8 -2 12 -2q51 0 101 70q30 -25 88 -75q-20 -37 -50 -67q-54 -51 -125 -51z" />
    <glyph glyph-name="notequal" unicode="&#x2260;" horiz-adv-x="540" 
d="M31 355v124h252q23 47 46 95h143q-8 -16 -23.5 -47.5t-22.5 -47.5h82v-124h-137q-7 -15 -21.5 -45t-21.5 -45h180v-123h-234q-7 -14 -14.5 -30t-17 -35.5t-14.5 -29.5h-148q5 10 14.5 29.5t17 35.5t14.5 30h-95v123h152q7 15 21.5 45t21.5 45h-195z" />
    <glyph glyph-name="lessequal" unicode="&#x2264;" horiz-adv-x="540" 
d="M507 122v-123h-475v123h475zM504 486q-52 -21 -150 -57.5t-125 -47.5q182 -74 274 -111q-7 -16 -23.5 -55.5t-25.5 -61.5q-71 30 -211.5 90t-210.5 90v91q71 29 213 88t212 88q32 -76 47 -114z" />
    <glyph glyph-name="greaterequal" unicode="&#x2265;" horiz-adv-x="540" 
d="M32 -1v123h475v-123h-475zM311 381l-276 105q8 19 23.5 57t23.5 57q71 -29 213 -88t213 -88v-91l-423 -180q-9 22 -25.5 61.5t-23.5 55.5q46 18 137.5 55t137.5 56z" />
    <glyph glyph-name="lozenge" unicode="&#x25ca;" horiz-adv-x="589" 
d="M358 -12h-126q-34 58 -101 174t-101 174q33 60 100 180t100 180h128q134 -240 201 -359q-33 -58 -100 -174.5t-101 -174.5zM293 556q-19 -37 -58 -110.5t-58 -109.5l120 -213q19 36 57.5 106t58.5 106q-40 73 -120 221z" />
    <glyph glyph-name="circle" unicode="&#x25cb;" horiz-adv-x="651" 
d="M100 354q0 93 66.5 159t159.5 66t159 -66t66 -159t-66 -159.5t-159 -66.5t-159.5 66.5t-66.5 159.5z" />
    <glyph glyph-name="oneseventh" unicode="&#xf500;" horiz-adv-x="963" 
d="M51 291v81h79v265h-73v82h191v-347h81v-81h-278zM389 0h-134l290 719h136zM605 336v92h314v-73l-135 -226q-15 -25 -15 -63v-66h-109v72q0 50 19 81l111 183h-185z" />
    <glyph glyph-name="twosevenths" unicode="&#xf501;" horiz-adv-x="963" 
d="M113 577l-82 49q22 45 64.5 72.5t103.5 27.5q69 0 109.5 -33.5t40.5 -93.5q0 -71 -56 -132q-48 -53 -89 -86h151v-92h-309v80q38 30 54 43t39 34.5t51 52.5q42 47 42 87q0 17 -11.5 30.5t-35.5 13.5q-44 0 -72 -53zM407 0h-134l290 719h136zM614 336v92h314v-73
l-135 -226q-15 -25 -15 -63v-66h-109v72q0 50 19 81l111 183h-185z" />
    <glyph glyph-name="threesevenths" unicode="&#xf502;" horiz-adv-x="963" 
d="M118 592l-74 51q20 38 61 60.5t97 22.5q64 0 104 -29.5t40 -84.5q0 -33 -19.5 -60t-47.5 -39q73 -19 73 -95q0 -61 -45.5 -99t-125.5 -38q-81 0 -143 42l39 86q49 -37 99 -37q63 0 63 51q0 50 -57 50h-54v75h45q61 0 61 47q0 41 -45 41q-41 0 -71 -44zM389 0h-134
l290 719h136zM613 336v92h314v-73l-135 -226q-15 -25 -15 -63v-66h-109v72q0 50 19 81l111 183h-185z" />
    <glyph glyph-name="foursevenths" unicode="&#xf503;" horiz-adv-x="963" 
d="M324 289h-110v93h-197v60l177 277h130v-261h54v-77h-54v-92zM113 458h101v93q0 42 3 75h-5q-7 -18 -36 -66zM401 0h-134l290 719h136zM611 336v92h314v-73l-135 -226q-15 -25 -15 -63v-66h-109v72q0 50 19 81l111 183h-185z" />
    <glyph glyph-name="fivesevenths" unicode="&#xf504;" horiz-adv-x="963" 
d="M199 504q-31 0 -63 -34l-75 29v220h274v-86h-184v-70q31 26 81 26q63 0 96.5 -38.5t33.5 -102.5q0 -75 -43.5 -120.5t-125.5 -45.5q-85 0 -148 45l39 82q55 -39 101 -39q31 0 51 18t20 51t-16 49t-41 16zM399 0h-134l290 719h136zM608 336v92h314v-73l-135 -226
q-15 -25 -15 -63v-66h-109v72q0 50 19 81l111 183h-185z" />
    <glyph glyph-name="sixsevenths" unicode="&#xf505;" horiz-adv-x="963" 
d="M238 646q-33 0 -54 -24.5t-27 -66.5q33 25 83 25q68 0 102.5 -39t34.5 -101q0 -72 -43.5 -115.5t-120.5 -43.5q-168 0 -168 200q0 122 52.5 183.5t141.5 61.5q84 0 134 -57l-59 -59q-33 36 -76 36zM271 437q0 67 -58 67q-32 0 -60 -20v-31q0 -92 58 -92q29 0 44.5 20.5
t15.5 55.5zM404 0h-134l290 719h136zM611 336v92h314v-73l-135 -226q-15 -25 -15 -63v-66h-109v72q0 50 19 81l111 183h-185z" />
    <glyph glyph-name="oneninth" unicode="&#xf506;" horiz-adv-x="963" 
d="M60 291v81h79v265h-73v82h191v-347h81v-81h-278zM399 0h-134l290 719h136zM728 71q64 0 74 90q-33 -25 -81 -25q-68 0 -102.5 39.5t-34.5 101.5q0 71 44.5 114.5t117.5 43.5q168 0 168 -200q0 -245 -185 -245q-84 0 -133 47l47 71q34 -37 85 -37zM690 280q0 -68 58 -68
q30 0 58 20v31q0 92 -58 92t-58 -75z" />
    <glyph glyph-name="twoninths" unicode="&#xf507;" horiz-adv-x="963" 
d="M122 577l-82 49q22 45 64.5 72.5t103.5 27.5q69 0 109.5 -33.5t40.5 -93.5q0 -71 -56 -132q-48 -53 -89 -86h151v-92h-309v80q38 30 54 43t39 34.5t51 52.5q42 47 42 87q0 17 -11.5 30.5t-35.5 13.5q-44 0 -72 -53zM419 0h-134l290 719h136zM739 71q64 0 74 90
q-33 -25 -81 -25q-68 0 -102.5 39.5t-34.5 101.5q0 71 44.5 114.5t117.5 43.5q168 0 168 -200q0 -245 -185 -245q-84 0 -133 47l47 71q34 -37 85 -37zM701 280q0 -68 58 -68q30 0 58 20v31q0 92 -58 92t-58 -75z" />
    <glyph glyph-name="fourninths" unicode="&#xf508;" horiz-adv-x="963" 
d="M330 289h-110v93h-197v60l177 277h130v-261h54v-77h-54v-92zM119 458h101v93q0 42 3 75h-5q-7 -18 -36 -66zM409 0h-134l290 719h136zM738 71q64 0 74 90q-33 -25 -81 -25q-68 0 -102.5 39.5t-34.5 101.5q0 71 44.5 114.5t117.5 43.5q168 0 168 -200q0 -245 -185 -245
q-84 0 -133 47l47 71q34 -37 85 -37zM700 280q0 -68 58 -68q30 0 58 20v31q0 92 -58 92t-58 -75z" />
    <glyph glyph-name="fiveninths" unicode="&#xf509;" horiz-adv-x="963" 
d="M205 504q-31 0 -63 -34l-75 29v220h274v-86h-184v-70q31 26 81 26q63 0 96.5 -38.5t33.5 -102.5q0 -75 -43.5 -120.5t-125.5 -45.5q-85 0 -148 45l39 82q55 -39 101 -39q31 0 51 18t20 51t-16 49t-41 16zM405 0h-134l290 719h136zM738 71q64 0 74 90q-33 -25 -81 -25
q-68 0 -102.5 39.5t-34.5 101.5q0 71 44.5 114.5t117.5 43.5q168 0 168 -200q0 -245 -185 -245q-84 0 -133 47l47 71q34 -37 85 -37zM700 280q0 -68 58 -68q30 0 58 20v31q0 92 -58 92t-58 -75z" />
    <glyph glyph-name="sevenninths" unicode="&#xf50a;" horiz-adv-x="963" 
d="M57 627v92h314v-73l-135 -226q-15 -25 -15 -63v-66h-109v72q0 50 19 81l111 183h-185zM370 0h-134l290 719h136zM723 71q64 0 74 90q-33 -25 -81 -25q-68 0 -102.5 39.5t-34.5 101.5q0 71 44.5 114.5t117.5 43.5q168 0 168 -200q0 -245 -185 -245q-84 0 -133 47l47 71
q34 -37 85 -37zM685 280q0 -68 58 -68q30 0 58 20v31q0 92 -58 92t-58 -75z" />
    <glyph glyph-name="eightninths" unicode="&#xf50b;" horiz-adv-x="963" 
d="M43 416q0 68 55 102q-19 13 -30 36.5t-11 47.5q0 58 41.5 91t111.5 33q150 0 150 -120q0 -54 -41 -92q56 -26 56 -95q0 -63 -42.5 -100.5t-124.5 -37.5q-83 0 -124 36t-41 99zM212 476l-38 5q-20 -20 -20 -61q0 -28 14.5 -44t41.5 -16q55 0 55 61q0 29 -12 40t-41 15z
M208 651q-18 0 -30.5 -12.5t-12.5 -34.5q0 -53 40 -57l32 -3q15 18 15 61q0 22 -12 34t-32 12zM409 0h-134l290 719h136zM738 71q64 0 74 90q-33 -25 -81 -25q-68 0 -102.5 39.5t-34.5 101.5q0 71 44.5 114.5t117.5 43.5q168 0 168 -200q0 -245 -185 -245q-84 0 -133 47
l47 71q34 -37 85 -37zM700 280q0 -68 58 -68q30 0 58 20v31q0 92 -58 92t-58 -75z" />
    <glyph glyph-name="commaaccent" unicode="&#xf6c3;" horiz-adv-x="237" 
d="M155 -261l-84 19l42 187l108 -28z" />
    <glyph glyph-name="caron.alt" horiz-adv-x="173" 
d="M59 719h115l-20 -213h-95v213z" />
    <glyph glyph-name="revcommaaccent" horiz-adv-x="237" 
d="M82 791l84 -19l-42 -187l-108 28z" />
    <glyph glyph-name="Delta" horiz-adv-x="725" 
d="M717 0h-709q48 116 143.5 348t143.5 348h136q47 -116 143 -348t143 -348zM361 509q-71 -180 -151 -389h303q-122 310 -152 389z" />
    <glyph glyph-name="zero.osf" horiz-adv-x="570" 
d="M291 598q119 0 185.5 -72.5t66.5 -218.5q0 -161 -68 -239t-195 -78q-124 0 -188.5 79t-64.5 228q0 150 72.5 225.5t191.5 75.5zM284 101q53 0 80.5 46.5t27.5 151.5q0 97 -26.5 139.5t-79.5 42.5q-54 0 -80.5 -45t-26.5 -147q0 -188 105 -188z" />
    <glyph glyph-name="one.osf" horiz-adv-x="454" 
d="M45 0v109h113v366h-103v110h256v-476h113v-109h-379z" />
    <glyph glyph-name="two.osf" horiz-adv-x="544" 
d="M151 386l-121 63q31 69 94 109t155 40q95 0 153.5 -47t58.5 -137q0 -49 -21 -92.5t-75 -94.5q-64 -63 -145 -116h255v-111h-472v91q137 94 222 174q43 41 61.5 71t18.5 65q0 31 -18.5 50t-53.5 19q-70 0 -112 -84z" />
    <glyph glyph-name="three.osf" horiz-adv-x="538" 
d="M134 405l-107 70q73 124 232 124q98 0 159 -47t61 -128q0 -104 -102 -158q52 -17 81.5 -58t29.5 -101q0 -96 -66.5 -156t-186.5 -60t-215 64l58 119q36 -29 76.5 -44.5t70.5 -15.5q50 0 77.5 26.5t27.5 72.5q0 72 -74 89q-28 6 -95 6v102q67 0 87 3q33 6 53.5 32t20.5 56
q0 39 -23 56.5t-55 17.5q-63 0 -110 -70z" />
    <glyph glyph-name="four.osf" horiz-adv-x="552" 
d="M456 -100h-152v161h-281v82l276 442h158v-417h85v-110h-86v-158zM154 168h150v154q0 56 3 95h-4z" />
    <glyph glyph-name="five.osf" horiz-adv-x="557" 
d="M174 208l-115 37v340h416v-116h-292v-139q56 47 134 47q97 0 148.5 -60.5t51.5 -159.5q0 -117 -66.5 -192t-191.5 -75q-130 0 -224 68l57 118q84 -61 162 -61q52 0 81.5 34.5t29.5 92.5q0 53 -23 83.5t-67 30.5q-49 0 -101 -48z" />
    <glyph glyph-name="six.osf" horiz-adv-x="577" 
d="M208 419q52 43 129 43q97 0 148.5 -61t51.5 -155q0 -115 -64 -185.5t-177 -70.5q-246 0 -246 319q0 195 76 292t206 97q71 0 115.5 -25.5t78.5 -71.5l-85 -79q-46 63 -110 63q-53 0 -84.5 -44.5t-38.5 -121.5zM387 241q0 113 -90 113q-55 0 -92 -35q-1 -19 -1 -53
q0 -166 89 -166q46 0 70 38.5t24 102.5z" />
    <glyph glyph-name="seven.osf" horiz-adv-x="523" 
d="M25 459v118h478v-91l-211 -388q-21 -38 -21 -95v-103h-153v101q0 69 29 123l182 335h-304z" />
    <glyph glyph-name="eight.osf" horiz-adv-x="573" 
d="M125 366q-31 22 -48 59.5t-17 76.5q0 90 64 143t164 53q107 0 164.5 -50t57.5 -141q0 -88 -63 -148q86 -38 86 -153q0 -97 -64.5 -156.5t-183.5 -59.5q-122 0 -183.5 58t-61.5 158q0 47 23 91.5t62 68.5zM291 305l-66 6q-33 -29 -33 -100q0 -52 25.5 -82t70.5 -30
q42 0 66.5 29.5t24.5 81.5q0 50 -21 70.5t-67 24.5zM283 591q-32 0 -52.5 -22t-20.5 -64q0 -89 68 -95l59 -5q26 33 26 101q0 39 -22.5 62t-57.5 23z" />
    <glyph glyph-name="nine.osf" horiz-adv-x="571" 
d="M369 170q-50 -46 -128 -46q-97 0 -149 62.5t-52 157.5q0 113 66 183t178 70q119 0 180.5 -80.5t61.5 -233.5q0 -200 -70 -297t-198 -97q-127 0 -201 68l57 105q62 -57 141 -57q54 0 82.5 43.5t31.5 121.5zM372 267q2 20 2 57q0 165 -91 165q-45 0 -68.5 -39t-23.5 -103
q0 -118 89 -118q56 0 92 38z" />
    <glyph glyph-name="zero.tf" horiz-adv-x="540" 
d="M274 698q243 0 243 -350q0 -190 -63 -274t-187 -84q-125 0 -184.5 85t-59.5 271q0 182 67 267t184 85zM269 106q51 0 74 53.5t23 186.5q0 129 -22 180.5t-73 51.5q-52 0 -74 -53.5t-22 -189.5q0 -123 22 -176t72 -53z" />
    <glyph glyph-name="one.tf" horiz-adv-x="540" 
d="M81 0v109h113v466h-103v110h256v-576h112v-109h-378z" />
    <glyph glyph-name="two.tf" horiz-adv-x="540" 
d="M129 485l-121 63q41 75 101.5 112.5t150.5 37.5q97 0 158 -50.5t61 -142.5q0 -97 -76 -198q-73 -97 -176 -196h263v-111h-469v86q87 83 134 133.5t102 124.5q62 82 62 153q0 33 -21 53t-57 20q-73 0 -112 -85z" />
    <glyph glyph-name="three.tf" horiz-adv-x="540" 
d="M125 504l-107 70q73 124 232 124q98 0 159 -47t61 -128q0 -104 -102 -158q52 -17 81.5 -58t29.5 -101q0 -96 -66.5 -156t-186.5 -60t-215 64l58 119q36 -29 76.5 -44.5t70.5 -15.5q50 0 77.5 26.5t27.5 72.5q0 72 -74 89q-28 6 -95 6v102q67 0 87 3q33 6 53.5 32t20.5 56
q0 39 -23 56.5t-55 17.5q-63 0 -110 -70z" />
    <glyph glyph-name="four.tf" horiz-adv-x="540" 
d="M443 0h-152v161h-281v82l276 442h158v-417h85v-110h-86v-158zM141 268h150v154q0 56 3 95h-4z" />
    <glyph glyph-name="five.tf" horiz-adv-x="540" 
d="M161 308l-115 37v340h416v-116h-292v-139q56 47 134 47q97 0 148.5 -60.5t51.5 -159.5q0 -117 -66.5 -192t-191.5 -75q-130 0 -224 68l57 118q84 -61 162 -61q52 0 81.5 34.5t29.5 92.5q0 53 -23 83.5t-67 30.5q-49 0 -101 -48z" />
    <glyph glyph-name="six.tf" horiz-adv-x="541" 
d="M188 419q52 43 129 43q97 0 148.5 -61t51.5 -155q0 -115 -64 -185.5t-177 -70.5q-246 0 -246 319q0 195 76 292t206 97q71 0 115.5 -25.5t78.5 -71.5l-85 -79q-46 63 -110 63q-53 0 -84.5 -44.5t-38.5 -121.5zM367 241q0 113 -90 113q-55 0 -92 -35q-1 -19 -1 -53
q0 -166 89 -166q46 0 70 38.5t24 102.5z" />
    <glyph glyph-name="seven.tf" horiz-adv-x="540" 
d="M31 559v118h478v-91l-211 -388q-21 -38 -21 -95v-103h-153v101q0 69 29 123l182 335h-304z" />
    <glyph glyph-name="eight.tf" horiz-adv-x="540" 
d="M108 366q-31 22 -48 59.5t-17 76.5q0 90 64 143t164 53q107 0 164.5 -50t57.5 -141q0 -88 -63 -148q86 -38 86 -153q0 -97 -64.5 -156.5t-183.5 -59.5q-122 0 -183.5 58t-61.5 158q0 47 23 91.5t62 68.5zM274 305l-66 6q-33 -29 -33 -100q0 -52 25.5 -82t70.5 -30
q42 0 66.5 29.5t24.5 81.5q0 50 -21 70.5t-67 24.5zM266 591q-32 0 -52.5 -22t-20.5 -64q0 -89 68 -95l59 -5q26 33 26 101q0 39 -22.5 62t-57.5 23z" />
    <glyph glyph-name="nine.tf" horiz-adv-x="540" 
d="M356 271q-50 -46 -128 -46q-97 0 -149 62.5t-52 157.5q0 113 66 183t178 70q119 0 180.5 -80.5t61.5 -233.5q0 -200 -70 -297t-198 -97q-127 0 -201 68l57 105q62 -57 141 -57q54 0 82.5 43.5t31.5 121.5zM359 368q2 20 2 57q0 165 -91 165q-45 0 -68.5 -39t-23.5 -103
q0 -118 89 -118q56 0 92 38z" />
    <glyph glyph-name="florin.tf" horiz-adv-x="540" 
d="M576 702l-17 -106q-42 14 -82 14q-34 0 -52.5 -18t-26.5 -56l-14 -72h118l-19 -107h-118l-63 -356q-14 -78 -64 -124q-57 -54 -154 -54q-74 0 -119 19l24 108q45 -16 83 -16q65 0 78 68l64 355h-76l20 107h75q10 56 13 71q19 91 63 133q57 54 157 54q65 0 110 -20z" />
    <glyph glyph-name="dollar.tf" horiz-adv-x="540" 
d="M39 60l58 119q82 -63 155 -63q84 0 84 72q0 42 -29.5 64t-96.5 46q-79 28 -120 71.5t-41 122.5q0 75 44 128t115 69v94h138v-92q72 -16 108.5 -61.5t46.5 -103.5l-129 -38q-22 88 -92 88q-34 0 -54 -17.5t-20 -50.5q0 -36 22 -55.5t76 -39.5q35 -13 53.5 -21t48.5 -26
t45 -37.5t27.5 -52t12.5 -72.5q0 -74 -36.5 -127.5t-104.5 -74.5v-103h-137v95q-45 4 -99.5 24.5t-74.5 41.5z" />
    <glyph glyph-name="Euro.tf" horiz-adv-x="540" 
d="M549 518l-128 -33q-11 47 -31.5 67.5t-55.5 20.5q-26 0 -44 -13t-26.5 -37.5t-11.5 -51t-3 -62.5h178v-124h-177q2 -88 20 -132.5t71 -44.5q35 0 56.5 22t42.5 63l106 -66q-43 -75 -94.5 -106t-119.5 -31q-54 0 -94.5 14.5t-66.5 39.5t-42.5 63.5t-24 80.5t-9.5 97h-72
v124h70q5 64 18 112t39.5 90t74.5 64.5t116 22.5q52 0 91 -16t62 -45t35 -56.5t20 -62.5z" />
    <glyph glyph-name="cent.tf" horiz-adv-x="540" 
d="M277 472q-69 0 -71 -146q0 -70 15.5 -110t60.5 -40q50 0 73 81l129 -36q-11 -58 -47.5 -102t-92.5 -59v-97h-137v96q-85 24 -120.5 90t-35.5 173q0 222 155 266v87h138v-85q106 -26 140 -150l-137 -47q-18 79 -70 79z" />
    <glyph glyph-name="sterling.tf" horiz-adv-x="540" 
d="M44 294v100h61q-27 70 -27 110q0 87 61 140.5t166 53.5q95 0 147.5 -43.5t76.5 -123.5l-128 -43q-30 90 -98 90q-32 0 -52.5 -21.5t-20.5 -57.5q0 -33 29 -105h175v-99h-147q13 -50 13 -80q0 -62 -43 -106h277v-109h-468l-12 91q50 14 75 48.5t25 72.5q0 36 -16 82h-94z
" />
    <glyph glyph-name="yen.tf" horiz-adv-x="540" 
d="M357 0h-156v247h-145v127h96l-161 311h172l117 -273l113 273h170l-159 -311h101v-127h-148v-247z" />
    <glyph glyph-name="zero.tosf" horiz-adv-x="560" 
d="M286 598q119 0 185.5 -72.5t66.5 -218.5q0 -161 -68 -239t-195 -78q-124 0 -188.5 79t-64.5 228q0 150 72.5 225.5t191.5 75.5zM279 101q53 0 80.5 46.5t27.5 151.5q0 97 -26.5 139.5t-79.5 42.5q-54 0 -80.5 -45t-26.5 -147q0 -188 105 -188z" />
    <glyph glyph-name="one.tosf" horiz-adv-x="560" 
d="M100 0v109h113v366h-103v110h256v-476h113v-109h-379z" />
    <glyph glyph-name="two.tosf" horiz-adv-x="560" 
d="M163 386l-121 63q31 69 94 109t155 40q95 0 153.5 -47t58.5 -137q0 -49 -21 -92.5t-75 -94.5q-64 -63 -145 -116h255v-111h-472v91q137 94 222 174q43 41 61.5 71t18.5 65q0 31 -18.5 50t-53.5 19q-70 0 -112 -84z" />
    <glyph glyph-name="three.tosf" horiz-adv-x="560" 
d="M153 405l-107 70q73 124 232 124q98 0 159 -47t61 -128q0 -104 -102 -158q52 -17 81.5 -58t29.5 -101q0 -96 -66.5 -156t-186.5 -60t-215 64l58 119q36 -29 76.5 -44.5t70.5 -15.5q50 0 77.5 26.5t27.5 72.5q0 72 -74 89q-28 6 -95 6v102q67 0 87 3q33 6 53.5 32t20.5 56
q0 39 -23 56.5t-55 17.5q-63 0 -110 -70z" />
    <glyph glyph-name="four.tosf" horiz-adv-x="560" 
d="M453 -100h-152v161h-281v82l276 442h158v-417h85v-110h-86v-158zM151 168h150v154q0 56 3 95h-4z" />
    <glyph glyph-name="five.tosf" horiz-adv-x="560" 
d="M177 208l-115 37v340h416v-116h-292v-139q56 47 134 47q97 0 148.5 -60.5t51.5 -159.5q0 -117 -66.5 -192t-191.5 -75q-130 0 -224 68l57 118q84 -61 162 -61q52 0 81.5 34.5t29.5 92.5q0 53 -23 83.5t-67 30.5q-49 0 -101 -48z" />
    <glyph glyph-name="six.tosf" horiz-adv-x="560" 
d="M194 419q52 43 129 43q97 0 148.5 -61t51.5 -155q0 -115 -64 -185.5t-177 -70.5q-246 0 -246 319q0 195 76 292t206 97q71 0 115.5 -25.5t78.5 -71.5l-85 -79q-46 63 -110 63q-53 0 -84.5 -44.5t-38.5 -121.5zM373 241q0 113 -90 113q-55 0 -92 -35q-1 -19 -1 -53
q0 -166 89 -166q46 0 70 38.5t24 102.5z" />
    <glyph glyph-name="seven.tosf" horiz-adv-x="560" 
d="M41 459v118h478v-91l-211 -388q-21 -38 -21 -95v-103h-153v101q0 69 29 123l182 335h-304z" />
    <glyph glyph-name="eight.tosf" horiz-adv-x="560" 
d="M116 366q-31 22 -48 59.5t-17 76.5q0 90 64 143t164 53q107 0 164.5 -50t57.5 -141q0 -88 -63 -148q86 -38 86 -153q0 -97 -64.5 -156.5t-183.5 -59.5q-122 0 -183.5 58t-61.5 158q0 47 23 91.5t62 68.5zM282 305l-66 6q-33 -29 -33 -100q0 -52 25.5 -82t70.5 -30
q42 0 66.5 29.5t24.5 81.5q0 50 -21 70.5t-67 24.5zM274 591q-32 0 -52.5 -22t-20.5 -64q0 -89 68 -95l59 -5q26 33 26 101q0 39 -22.5 62t-57.5 23z" />
    <glyph glyph-name="nine.tosf" horiz-adv-x="560" 
d="M366 170q-50 -46 -128 -46q-97 0 -149 62.5t-52 157.5q0 113 66 183t178 70q119 0 180.5 -80.5t61.5 -233.5q0 -200 -70 -297t-198 -97q-127 0 -201 68l57 105q62 -57 141 -57q54 0 82.5 43.5t31.5 121.5zM369 267q2 20 2 57q0 165 -91 165q-45 0 -68.5 -39t-23.5 -103
q0 -118 89 -118q56 0 92 38z" />
    <glyph glyph-name="arrow.up" horiz-adv-x="758" 
d="M376 796l332 -329l-82 -82l-183 184v-609h-136v608l-176 -178l-81 81z" />
    <glyph glyph-name="arrow.down" horiz-adv-x="758" 
d="M708 216l-332 -329l-326 325l81 81l176 -178v608h136v-609l183 184z" />
    <glyph glyph-name="arrow.left" horiz-adv-x="936" 
d="M50 375l329 332l82 -82l-184 -183h609v-136h-606l177 -176l-86 -87z" />
    <glyph glyph-name="arrow.right" horiz-adv-x="936" 
d="M557 707l329 -332l-321 -332l-86 87l177 176h-606v136h609l-184 183z" />
    <glyph glyph-name="arrow.rightup" horiz-adv-x="776" 
d="M70 203v475h466v-113h-249l459 -469l-96 -96l-461 466v-263h-119z" />
    <glyph glyph-name="arrow.leftup" horiz-adv-x="776" 
d="M706 678v-475h-119v263l-461 -466l-96 96l459 469h-249v113h466z" />
    <glyph glyph-name="peace" horiz-adv-x="682" 
d="M100 354q0 100 70.5 170.5t170.5 70.5t170.5 -70.5t70.5 -170.5t-70.5 -170.5t-170.5 -70.5t-170.5 70.5t-70.5 170.5zM528 356q0 67 -47.5 120.5t-109.5 58.5v-185l112 -109q45 55 45 115zM154 356q0 -66 41 -113l114 105v187q-63 -4 -109 -58t-46 -121zM229 201
q25 -22 80 -33v106zM371 168q42 5 77 29l-77 77v-106z" />
    <glyph glyph-name="smiley" horiz-adv-x="682" 
d="M100 354q0 100 70.5 170.5t170.5 70.5t170.5 -70.5t70.5 -170.5t-70.5 -170.5t-170.5 -70.5t-170.5 70.5t-70.5 170.5zM157 354q0 -76 54 -130t130 -54t129.5 54t53.5 130t-53.5 129.5t-129.5 53.5t-130 -53.5t-54 -129.5zM339 227q-44 0 -77 23.5t-44 46.5l-11 23l35 15
q1 -3 3 -8t10 -17t18 -21.5t27.5 -17.5t38.5 -8q32 0 56.5 17.5t32.5 35.5l9 18l34 -15q-1 -4 -4 -10t-14 -22t-25 -28t-38 -22t-51 -10zM236 424q0 16 11 27t26 11q16 0 26.5 -11t10.5 -27t-10.5 -26t-26.5 -10q-15 0 -26 10.5t-11 25.5zM372 424q0 16 10 27t26 11
q15 0 26 -11t11 -27q0 -15 -11 -25.5t-26 -10.5q-16 0 -26 10t-10 26z" />
    <glyph glyph-name="smiley.wink" horiz-adv-x="682" 
d="M100 354q0 100 70.5 170.5t170.5 70.5t170.5 -70.5t70.5 -170.5t-70.5 -170.5t-170.5 -70.5t-170.5 70.5t-70.5 170.5zM157 354q0 -76 54 -130t130 -54t129.5 54t53.5 130t-53.5 129.5t-129.5 53.5t-130 -53.5t-54 -129.5zM339 227q-28 0 -50.5 8t-35 19.5t-21 23.5
t-11.5 20l-3 8l33 16q2 -6 7.5 -15.5t28 -25t52.5 -15.5q37 0 64 21.5t35 42.5l9 22l35 -12q-1 -5 -4 -12.5t-14 -27t-25.5 -34.5t-41 -27t-58.5 -12zM236 424q0 16 11 27t26 11q16 0 26.5 -11t10.5 -27t-10.5 -26t-26.5 -10q-15 0 -26 10.5t-11 25.5zM459 469l17 -30
l-104 -60l-18 33z" />
    <glyph glyph-name="smiley.down" horiz-adv-x="682" 
d="M100 354q0 100 70.5 170.5t170.5 70.5t170.5 -70.5t70.5 -170.5t-70.5 -170.5t-170.5 -70.5t-170.5 70.5t-70.5 170.5zM157 354q0 -76 54 -130t130 -54t129.5 54t53.5 130t-53.5 129.5t-129.5 53.5t-130 -53.5t-54 -129.5zM340 344q-28 0 -51.5 -8.5t-38 -20t-24.5 -23.5
t-14 -20l-4 -9l35 -21q1 3 3 7t9.5 15t17.5 19.5t28 15.5t39 7q33 0 57.5 -15.5t32.5 -30.5l9 -16l33 20q-1 3 -4 8.5t-14 19.5t-25 24.5t-38 19t-51 8.5zM236 424q0 16 11 27t26 11q16 0 26.5 -11t10.5 -27t-10.5 -26t-26.5 -10q-15 0 -26 10.5t-11 25.5zM372 424
q0 16 10 27t26 11q15 0 26 -11t11 -27q0 -15 -11 -25.5t-26 -10.5q-16 0 -26 10t-10 26z" />
    <glyph glyph-name="flower" horiz-adv-x="612" 
d="M258 192l36 104l-64 37l-72 -79q-30 -34 -30 -59t18.5 -42t47.5 -17q48 0 64 56zM121 362l111 -8l19 70l-95 48q-24 14 -47 14q-26 0 -42.5 -17t-16.5 -48q0 -29 20 -43.5t51 -15.5zM354 190l-36 105l64 37l72 -79q30 -34 30 -59t-18.5 -42t-47.5 -17q-48 0 -64 55z
M491 362l-111 -8l-19 70l95 48q24 14 47 14q26 0 42.5 -17t16.5 -48q0 -29 -20 -43.5t-51 -15.5zM366 550l-20 -109h-74l-22 106q-4 15 -4 29q0 60 64 60q29 0 44.5 -16.5t15.5 -42.5q0 -7 -4 -27z" />
    <glyph glyph-name="square.open" horiz-adv-x="635" 
d="M178 479v-278h278v278h-278zM100 123v435h435v-435h-435z" />
    <glyph glyph-name="circle.open" horiz-adv-x="651" 
d="M100 354q0 93 66.5 159t159.5 66t159 -66t66 -159t-66 -159.5t-159 -66.5t-159.5 66.5t-66.5 159.5zM179 354q0 -61 43 -104t104 -43q60 0 103 43t43 104q0 60 -43 103t-103 43q-61 0 -104 -43t-43 -103z" />
    <glyph glyph-name="square" horiz-adv-x="635" 
d="M100 123v435h435v-435h-435z" />
    <glyph glyph-name="nbspace" horiz-adv-x="250" 
 />
    <glyph glyph-name="grave.cap" horiz-adv-x="237" 
d="M32 747l212 -80l-27 -84l-218 59z" />
    <glyph glyph-name="acute.cap" horiz-adv-x="237" 
d="M-1 667l213 80l33 -105l-219 -59z" />
    <glyph glyph-name="circumflex.cap" horiz-adv-x="337" 
d="M120 734h117l100 -109l-61 -50l-100 69l-102 -69l-60 54z" />
    <glyph glyph-name="caron.cap" horiz-adv-x="337" 
d="M231 583h-117l-99 109l61 50l100 -69l101 69l61 -54z" />
    <glyph glyph-name="tilde.cap" horiz-adv-x="384" 
d="M59 598l-17 96q14 13 42 24t53 11q22 0 63 -14t64 -14q34 0 65 19l9 -101q-30 -17 -72 -17q-24 0 -66.5 11.5t-58.5 11.5q-42 0 -82 -27z" />
    <glyph glyph-name="dieresis.cap" horiz-adv-x="403" 
d="M27 672q0 35 20 54.5t52 19.5q75 0 75 -74q0 -35 -21 -54.5t-54 -19.5t-52.5 20t-19.5 54zM238 672q0 35 20 54.5t52 19.5q75 0 75 -74q0 -35 -21 -54.5t-54 -19.5t-52.5 20t-19.5 54z" />
    <glyph glyph-name="macron.cap" horiz-adv-x="365" 
d="M24 608v105h317v-105h-317z" />
    <glyph glyph-name="breve.cap" horiz-adv-x="414" 
d="M298 771l84 -41q-58 -133 -181 -133q-125 0 -175 130l86 43q19 -39 39 -59t54 -20q32 0 53 20t40 60z" />
    <glyph glyph-name="ring.cap" horiz-adv-x="322" 
d="M45 688q0 52 34.5 87.5t86.5 35.5q54 0 87 -34.5t33 -83.5q0 -55 -34.5 -92t-88.5 -37t-86 35.5t-32 88.5zM117 688q0 -24 13 -40.5t36 -16.5t36 16.5t13 40.5q0 25 -13 40.5t-36 15.5q-49 0 -49 -56z" />
    <glyph glyph-name="hungarumlaut.cap" horiz-adv-x="498" 
d="M247 645l163 162l75 -80l-180 -144zM32 645l163 162l75 -80l-179 -144z" />
    <glyph glyph-name="dotaccent.cap" horiz-adv-x="286" 
d="M54 687q0 41 24 64t63 23q42 0 66 -22t24 -64q0 -41 -24.5 -64t-64.5 -23q-39 0 -63.5 23.5t-24.5 62.5z" />
    <glyph glyph-name="cedilla.cap" horiz-adv-x="432" 
d="M144 -122v66q34 9 73 9q49 0 76 -26.5t27 -65.5q0 -64 -42.5 -94.5t-100.5 -30.5q-28 0 -61 9l12 68q22 -7 46 -7q53 0 53 47q0 31 -39 31q-16 0 -44 -6z" />
    <glyph glyph-name="ogonek.cap" horiz-adv-x="508" 
d="M255 2l96 -1q-74 -59 -74 -109q0 -32 36 -32q23 0 57 14l8 -87q-37 -17 -89 -17q-58 0 -85.5 26.5t-27.5 68.5q0 76 79 137z" />
    <glyph glyph-name="commaaccent.cap" horiz-adv-x="237" 
d="M155 -261l-84 19l42 187l108 -28z" />
    <glyph glyph-name="comma.alt" horiz-adv-x="269" 
d="M56 -172l-38 69q44 16 68.5 43.5t24.5 59.5h-54v143h144q16 -49 16 -99q0 -77 -45 -134t-116 -82z" />
    <glyph glyph-name="quoteleft.alt" horiz-adv-x="229" 
d="M183 779l34 -62q-40 -15 -62 -39.5t-22 -53.5h49v-128h-130q-14 42 -14 89q0 69 40.5 120t104.5 74z" />
    <glyph glyph-name="quoteright.alt" horiz-adv-x="229" 
d="M53 486l-34 62q40 15 62 39.5t22 53.5h-49v128h130q14 -42 14 -89q0 -69 -40.5 -120t-104.5 -74z" />
    <glyph glyph-name="quotesinglbase.alt" horiz-adv-x="235" 
d="M52 -155l-34 62q40 15 62 39.5t22 53.5h-49v128h130q14 -42 14 -89q0 -69 -40.5 -120t-104.5 -74z" />
    <glyph glyph-name="quotedblleft.alt" horiz-adv-x="433" 
d="M387 779l34 -62q-40 -15 -62 -39.5t-22 -53.5h49v-128h-130q-14 42 -14 89q0 69 40.5 120t104.5 74zM183 779l34 -62q-40 -15 -62 -39.5t-22 -53.5h49v-128h-130q-14 42 -14 89q0 69 40.5 120t104.5 74z" />
    <glyph glyph-name="quotedblright.alt" horiz-adv-x="433" 
d="M257 486l-34 62q40 15 62 39.5t22 53.5h-49v128h130q14 -42 14 -89q0 -69 -40.5 -120t-104.5 -74zM53 486l-34 62q40 15 62 39.5t22 53.5h-49v128h130q14 -42 14 -89q0 -69 -40.5 -120t-104.5 -74z" />
    <glyph glyph-name="quotedblbase.alt" horiz-adv-x="439" 
d="M256 -155l-34 62q40 15 62 39.5t22 53.5h-49v128h130q14 -42 14 -89q0 -69 -40.5 -120t-104.5 -74zM52 -155l-34 62q40 15 62 39.5t22 53.5h-49v128h130q14 -42 14 -89q0 -69 -40.5 -120t-104.5 -74z" />
    <glyph glyph-name="semicolon.alt" horiz-adv-x="269" 
d="M50 487q0 36 22 61t60 25t60 -23.5t22 -61.5q0 -36 -23 -60.5t-61 -24.5q-37 0 -58.5 23t-21.5 61zM56 -172l-38 69q44 16 68.5 43.5t24.5 59.5h-54v143h144q16 -49 16 -99q0 -77 -45 -134t-116 -82z" />
    <glyph glyph-name="four.denom" 
d="M326 289h-110v93h-197v60l177 277h130v-261h54v-77h-54v-92zM115 458h101v93q0 42 3 75h-5q-7 -18 -36 -66z" />
    <glyph glyph-name="five.denom" 
d="M195 504q-31 0 -63 -34l-75 29v220h274v-86h-184v-70q31 26 81 26q63 0 96.5 -38.5t33.5 -102.5q0 -75 -43.5 -120.5t-125.5 -45.5q-85 0 -148 45l39 82q55 -39 101 -39q31 0 51 18t20 51t-16 49t-41 16z" />
    <glyph glyph-name="six.denom" 
d="M227 646q-33 0 -54 -24.5t-27 -66.5q33 25 83 25q68 0 102.5 -39t34.5 -101q0 -72 -43.5 -115.5t-120.5 -43.5q-168 0 -168 200q0 122 52.5 183.5t141.5 61.5q84 0 134 -57l-59 -59q-33 36 -76 36zM260 437q0 67 -58 67q-32 0 -60 -20v-31q0 -92 58 -92q29 0 44.5 20.5
t15.5 55.5z" />
    <glyph glyph-name="seven.denom" 
d="M43 627v92h314v-73l-135 -226q-15 -25 -15 -63v-66h-109v72q0 50 19 81l111 183h-185z" />
    <glyph glyph-name="eight.denom" 
d="M34 416q0 68 55 102q-19 13 -30 36.5t-11 47.5q0 58 41.5 91t111.5 33q150 0 150 -120q0 -54 -41 -92q56 -26 56 -95q0 -63 -42.5 -100.5t-124.5 -37.5q-83 0 -124 36t-41 99zM203 476l-38 5q-20 -20 -20 -61q0 -28 14.5 -44t41.5 -16q55 0 55 61q0 29 -12 40t-41 15z
M199 651q-18 0 -30.5 -12.5t-12.5 -34.5q0 -53 40 -57l32 -3q15 18 15 61q0 22 -12 34t-32 12z" />
    <glyph glyph-name="nine.denom" 
d="M179 362q64 0 74 90q-33 -25 -81 -25q-68 0 -102.5 39.5t-34.5 101.5q0 71 44.5 114.5t117.5 43.5q168 0 168 -200q0 -245 -185 -245q-84 0 -133 47l47 71q34 -37 85 -37zM141 571q0 -68 58 -68q30 0 58 20v31q0 92 -58 92t-58 -75z" />
    <glyph glyph-name="zero.denom" 
d="M202 725q85 0 128.5 -52.5t43.5 -167.5q0 -119 -44 -172t-132 -53t-130 54t-42 170q0 114 47 167.5t129 53.5zM199 363q31 0 45 31.5t14 109.5q0 76 -13 105.5t-44 29.5t-44.5 -31t-13.5 -110q0 -74 12.5 -104.5t43.5 -30.5z" />
    <glyph glyph-name="one.num" 
d="M61 0v81h79v265h-73v82h191v-347h81v-81h-278z" />
    <glyph glyph-name="two.num" 
d="M120 288l-82 49q22 45 64.5 72.5t103.5 27.5q69 0 109.5 -33.5t40.5 -93.5q0 -71 -56 -132q-48 -53 -89 -86h151v-92h-309v80q38 30 54 43t39 34.5t51 52.5q42 47 42 87q0 17 -11.5 30.5t-35.5 13.5q-44 0 -72 -53z" />
    <glyph glyph-name="three.num" 
d="M123 301l-74 51q20 38 61 60.5t97 22.5q64 0 104 -29.5t40 -84.5q0 -33 -19.5 -60t-47.5 -39q73 -19 73 -95q0 -61 -45.5 -99t-125.5 -38q-81 0 -143 42l39 86q49 -37 99 -37q63 0 63 51q0 50 -57 50h-54v75h45q61 0 61 47q0 41 -45 41q-41 0 -71 -44z" />
    <glyph glyph-name="four.num" 
d="M326 0h-110v93h-197v60l177 277h130v-261h54v-77h-54v-92zM115 169h101v93q0 42 3 75h-5q-7 -18 -36 -66z" />
    <glyph glyph-name="five.num" 
d="M195 213q-31 0 -63 -34l-75 29v220h274v-86h-184v-70q31 26 81 26q63 0 96.5 -38.5t33.5 -102.5q0 -75 -43.5 -120.5t-125.5 -45.5q-85 0 -148 45l39 82q55 -39 101 -39q31 0 51 18t20 51t-16 49t-41 16z" />
    <glyph glyph-name="six.num" 
d="M227 355q-33 0 -54 -24.5t-27 -66.5q33 25 83 25q68 0 102.5 -39t34.5 -101q0 -72 -43.5 -115.5t-120.5 -43.5q-168 0 -168 200q0 122 52.5 183.5t141.5 61.5q84 0 134 -57l-59 -59q-33 36 -76 36zM260 146q0 67 -58 67q-32 0 -60 -20v-31q0 -92 58 -92q29 0 44.5 20.5
t15.5 55.5z" />
    <glyph glyph-name="seven.num" 
d="M43 336v92h314v-73l-135 -226q-15 -25 -15 -63v-66h-109v72q0 50 19 81l111 183h-185z" />
    <glyph glyph-name="eight.num" 
d="M34 125q0 68 55 102q-19 13 -30 36.5t-11 47.5q0 58 41.5 91t111.5 33q150 0 150 -120q0 -54 -41 -92q56 -26 56 -95q0 -63 -42.5 -100.5t-124.5 -37.5q-83 0 -124 36t-41 99zM203 185l-38 5q-20 -20 -20 -61q0 -28 14.5 -44t41.5 -16q55 0 55 61q0 29 -12 40t-41 15z
M199 360q-18 0 -30.5 -12.5t-12.5 -34.5q0 -53 40 -57l32 -3q15 18 15 61q0 22 -12 34t-32 12z" />
    <glyph glyph-name="nine.num" 
d="M179 71q64 0 74 90q-33 -25 -81 -25q-68 0 -102.5 39.5t-34.5 101.5q0 71 44.5 114.5t117.5 43.5q168 0 168 -200q0 -245 -185 -245q-84 0 -133 47l47 71q34 -37 85 -37zM141 280q0 -68 58 -68q30 0 58 20v31q0 92 -58 92t-58 -75z" />
    <glyph glyph-name="zero.num" 
d="M202 434q85 0 128.5 -52.5t43.5 -167.5q0 -119 -44 -172t-132 -53t-130 54t-42 170q0 114 47 167.5t129 53.5zM199 72q31 0 45 31.5t14 109.5q0 76 -13 105.5t-44 29.5t-44.5 -31t-13.5 -110q0 -74 12.5 -104.5t43.5 -30.5z" />
    <glyph glyph-name="one.denom" 
d="M61 291v81h79v265h-73v82h191v-347h81v-81h-278z" />
    <glyph glyph-name="two.denom" 
d="M120 577l-82 49q22 45 64.5 72.5t103.5 27.5q69 0 109.5 -33.5t40.5 -93.5q0 -71 -56 -132q-48 -53 -89 -86h151v-92h-309v80q38 30 54 43t39 34.5t51 52.5q42 47 42 87q0 17 -11.5 30.5t-35.5 13.5q-44 0 -72 -53z" />
    <glyph glyph-name="three.denom" 
d="M123 592l-74 51q20 38 61 60.5t97 22.5q64 0 104 -29.5t40 -84.5q0 -33 -19.5 -60t-47.5 -39q73 -19 73 -95q0 -61 -45.5 -99t-125.5 -38q-81 0 -143 42l39 86q49 -37 99 -37q63 0 63 51q0 50 -57 50h-54v75h45q61 0 61 47q0 41 -45 41q-41 0 -71 -44z" />
    </font>
</defs>
</svg>
